# Created by MKDS Course Modifier
mtllib 29.mtl
g polygon0
usemtl e
v 0.4438477 -0.625 0.375
v 0.9282227 -0.53125 0.34375
v 0.4907227 -0.359375 0.625
v 1.037598 0 0.5625
v 0.5063477 0 0.71875
v 0.4907227 0.359375 0.625
vn -0.2324219 -0.8632813 0.4492188
vn 0.2695313 -0.7890625 0.5527344
vn -0.08203125 -0.4511719 0.8886719
vn 0.3535156 0.01367188 0.9355469
vn -0.07226563 0 0.9980469
vn -0.07617188 0.4609375 0.8847656
vt 1.0625 -1
vt 0.9375 -0.0625
vt 0.78125 -1
vt 0.5 0
vt 0.5 -1
vt 0.21875 -1
f 1/1/1 2/2/2 3/3/3
f 2/2/2 4/4/4 3/3/3
f 3/3/3 4/4/4 5/5/5
f 4/4/4 6/6/6 5/5/5
v 0.4438477 0.625 0.375
v 0.4907227 0.359375 0.625
v 0.8071289 0.5546875 0.3515625
v 1.037598 0 0.5625
vn -0.2324219 0.8632813 0.4492188
vn -0.07617188 0.4609375 0.8847656
vn 0.2558594 0.7871094 0.5585938
vn 0.3535156 0.01367188 0.9355469
vt -0.0625 -1
vt 0.21875 -1
vt 0.03125 -0.296875
vt 0.5 0
f 7/7/7 8/8/8 9/9/9
f 8/8/8 10/10/10 9/9/9
g polygon1
usemtl m
v 0.4438477 -0.625 0.375
v 0.4907227 -0.359375 0.625
v 0.1625977 -0.390625 0.421875
v 0.1625977 0 0.5625
v 0.006347656 0 0.03125
v 0.1625977 0.390625 0.421875
v 0.06884766 0.375 -0.125
v 0.2563477 0.59375 -0.125
v 0.1157227 0.3125 -0.484375
vn -0.2324219 -0.8632813 0.4492188
vn -0.08203125 -0.4511719 0.8886719
vn -0.765625 -0.4882813 0.4179688
vn -0.6777344 0 0.734375
vn -0.9980469 0 0.05664063
vn -0.765625 0.4882813 0.4179688
vn -0.90625 0.4238281 -0.02148438
vn -0.5351563 0.8378906 -0.1074219
vn -0.7929688 0.3496094 -0.4980469
vt 1 0
vt 0.765625 0
vt 1 -0.59375
vt 0.5 -0.59375
vt 0.5 -0.9375
vt 0.5 -0.9375
vt 0.5 -0.9375
vt 0.5 -0.9375
vt 0.5 -0.9375
f 11/11/11 12/12/12 13/13/13
f 12/12/12 14/14/14 13/13/13
f 13/13/13 14/14/14 15/15/15
f 14/14/14 16/16/16 15/15/15
f 15/15/15 16/16/16 17/17/17
f 16/16/16 18/18/18 17/17/17
f 17/17/17 18/18/18 19/19/19
v 0.4438477 -0.625 0.375
v 0.1625977 -0.390625 0.421875
v 0.2563477 -0.59375 -0.125
v 0.06884766 -0.375 -0.125
v 0.1157227 -0.3125 -0.484375
v 0.006347656 0 0.03125
v 0.1157227 0.3125 -0.484375
v 0.06884766 0.375 -0.125
vn -0.2324219 -0.8632813 0.4492188
vn -0.765625 -0.4882813 0.4179688
vn -0.5351563 -0.8378906 -0.1074219
vn -0.90625 -0.4238281 -0.02148438
vn -0.7929688 -0.3496094 -0.4980469
vn -0.9980469 0 0.05664063
vn -0.7929688 0.3496094 -0.4980469
vn -0.90625 0.4238281 -0.02148438
vt 0.5 -0.9375
vt 0.5 -0.9375
vt 0.5 -0.9375
vt 0.5 -0.9375
vt 0.5 -0.9375
vt 0.5 -0.9375
vt 0.5 -0.9375
vt 0.5 -0.9375
f 20/20/20 21/21/21 22/22/22
f 21/21/21 23/23/23 22/22/22
f 22/22/22 23/23/23 24/24/24
f 23/23/23 25/25/25 24/24/24
f 24/24/24 25/25/25 26/26/26
f 25/25/25 27/27/27 26/26/26
v 0.4438477 0.625 0.375
v 0.1625977 0.390625 0.421875
v 0.4907227 0.359375 0.625
v 0.1625977 0 0.5625
v 0.5063477 0 0.71875
v 0.4907227 -0.359375 0.625
vn -0.2324219 0.8632813 0.4492188
vn -0.765625 0.4882813 0.4179688
vn -0.07617188 0.4609375 0.8847656
vn -0.6777344 0 0.734375
vn -0.07226563 0 0.9980469
vn -0.08203125 -0.4511719 0.8886719
vt 0 0
vt 0 -0.59375
vt 0.234375 0
vt 0.5 -0.59375
vt 0.5 0
vt 0.765625 0
f 28/28/28 29/29/29 30/30/30
f 29/29/29 31/31/31 30/30/30
f 30/30/30 31/31/31 32/32/32
f 31/31/31 33/33/33 32/32/32
v 0.1625977 0.390625 0.421875
v 0.4438477 0.625 0.375
v 0.2563477 0.59375 -0.125
v 0.06884766 -0.375 -0.125
v 0.1625977 -0.390625 0.421875
v 0.006347656 0 0.03125
vn -0.765625 0.4882813 0.4179688
vn -0.2324219 0.8632813 0.4492188
vn -0.5351563 0.8378906 -0.1074219
vn -0.90625 -0.4238281 -0.02148438
vn -0.765625 -0.4882813 0.4179688
vn -0.9980469 0 0.05664063
vt 0.5 -0.9375
vt 0.5 -0.9375
vt 0.5 -0.9375
vt 0.5 -0.9375
vt 0.5 -0.9375
vt 0.5 -0.9375
f 34/34/34 35/35/35 36/36/36
f 37/37/37 38/38/38 39/39/39
g polygon2
usemtl hair
v 0.2563477 0.59375 -0.125
v 0.5063477 0.484375 -0.59375
v 0.1157227 0.3125 -0.484375
v 0.4438477 0 -0.75
v 0.1157227 -0.3125 -0.484375
v 0.5063477 -0.484375 -0.59375
v 0.2563477 -0.59375 -0.125
v 0.6938477 -0.71875 -0.15625
v 0.5375977 -0.703125 0.09375
v 0.9282227 -0.53125 0.34375
v 0.4438477 -0.625 0.375
vn -0.5351563 0.8378906 -0.1074219
vn -0.3984375 0.7070313 -0.5839844
vn -0.7929688 0.3496094 -0.4980469
vn -0.4882813 0 -0.8730469
vn -0.7929688 -0.3496094 -0.4980469
vn -0.3984375 -0.7070313 -0.5839844
vn -0.5351563 -0.8378906 -0.1074219
vn -0.1035156 -0.9902344 -0.08789063
vn -0.06445313 -0.9882813 0.1425781
vn 0.2695313 -0.7890625 0.5527344
vn -0.2324219 -0.8632813 0.4492188
vt 0.65625 -0.9375
vt 0.96875 -0.6875
vt 0.96875 -0.9375
vt 0.96875 -0.6875
vt 0.96875 -0.9375
vt 0.96875 -0.6875
vt 0.65625 -0.9375
vt 0.65625 -0.6875
vt 0.375 -0.8125
vt 0.03125 -0.5
vt 0.03125 -0.90625
f 40/40/40 41/41/41 42/42/42
f 41/41/41 43/43/43 42/42/42
f 42/42/42 43/43/43 44/44/44
f 43/43/43 45/45/45 44/44/44
f 44/44/44 45/45/45 46/46/46
f 45/45/45 47/47/47 46/46/46
f 46/46/46 47/47/47 48/48/48
f 47/47/47 49/49/49 48/48/48
f 48/48/48 49/49/49 50/50/50
v 0.8071289 0.5546875 0.3515625
v 0.875 0.28125 0.625
v 0.9282227 0.53125 0.34375
v 1.015625 0.21875 0.625
v 1.037598 0 0.5625
v 1.03125 -0.125 0.671875
vn 0.1953125 0.8398438 0.5078125
vn 0.2050781 0.5683594 0.796875
vn 0.4980469 0.7402344 0.453125
vn 0.7109375 0.3183594 0.6269531
vn 0.9980469 0.01757813 -0.046875
vn 0.8535156 -0.1835938 0.4882813
vt 0.75 -0.5
vt 0.75 -0.5
vt 0.75 -0.5
vt 0.75 -0.5
vt 0.75 -0.5
vt 0.75 -0.5
f 51/51/51 52/52/52 53/53/53
f 52/52/52 54/54/54 53/53/53
f 53/53/53 54/54/54 55/55/55
f 54/54/54 56/56/56 55/55/55
v 0.5063477 0.484375 -0.59375
v 0.2563477 0.59375 -0.125
v 0.6938477 0.71875 -0.15625
v 0.5375977 0.703125 0.09375
v 0.75 0.65625 0.09375
v 0.8071289 0.5546875 0.3515625
vn -0.3984375 0.7070313 -0.5839844
vn -0.5351563 0.8378906 -0.1074219
vn 0.02734375 0.9980469 -0.04296875
vn -0.01953125 0.984375 0.1738281
vn 0.2929688 0.9316406 0.2128906
vn 0.2558594 0.7871094 0.5585938
vt 0.96875 -0.6875
vt 0.65625 -0.9375
vt 0.65625 -0.6875
vt 0.375 -0.8125
vt 0.375 -0.6445313
vt 0.03125 -0.6777344
f 57/57/57 58/58/58 59/59/59
f 58/58/58 60/60/60 59/59/59
f 59/59/59 60/60/60 61/61/61
f 60/60/60 62/62/62 61/61/61
v 1.037598 0 0.5625
v 1.03125 -0.125 0.671875
v 0.9282227 -0.53125 0.34375
v 0.9375 -0.125 0.71875
vn 0.9980469 0.01757813 -0.046875
vn 0.8535156 -0.1835938 0.4882813
vn 0.8046875 -0.4824219 0.3457031
vn 0.3300781 -0.09765625 0.9394531
vt 0.875 -0.375
vt 0.875 -0.375
vt 0.875 -0.375
vt 0.875 -0.375
f 63/63/63 64/64/64 65/65/65
f 64/64/64 66/66/66 65/65/65
v 0.8071289 0.5546875 0.3515625
v 1.037598 0 0.5625
v 0.875 0.28125 0.625
v 0.9375 -0.125 0.71875
vn -0.8632813 -0.4472656 -0.2324219
vn -0.8886719 -0.140625 -0.4375
vn -0.7929688 -0.3496094 -0.4980469
vn -0.8515625 0.02929688 -0.5214844
vt 0.5 -0.265625
vt 0.5 -0.265625
vt 0.5 -0.265625
vt 0.5 -0.265625
f 67/67/67 68/68/68 69/69/69
f 68/68/68 70/70/70 69/69/69
v 0.875 0.28125 0.625
v 0.9375 -0.125 0.71875
v 1.015625 0.21875 0.625
v 1.03125 -0.125 0.671875
vn 0.2050781 0.5683594 0.796875
vn 0.3300781 -0.09765625 0.9394531
vn 0.7109375 0.3183594 0.6269531
vn 0.8535156 -0.1835938 0.4882813
vt 0.75 -0.5
vt 0.75 -0.5
vt 0.75 -0.5
vt 0.75 -0.5
f 71/71/71 72/72/72 73/73/73
f 72/72/72 74/74/74 73/73/73
v 0.2563477 0.59375 -0.125
v 0.4438477 0.625 0.375
v 0.5375977 0.703125 0.09375
v 0.8071289 0.5546875 0.3515625
vn -0.5351563 0.8378906 -0.1074219
vn -0.2324219 0.8632813 0.4492188
vn -0.01953125 0.984375 0.1738281
vn 0.2558594 0.7871094 0.5585938
vt 0.65625 -0.9375
vt 0.03125 -0.90625
vt 0.375 -0.8125
vt 0.03125 -0.6777344
f 75/75/75 76/76/76 77/77/77
f 76/76/76 78/78/78 77/77/77
v 0.75 0.65625 0.09375
v 0.9282227 0.53125 0.34375
v 0.6938477 0.71875 -0.15625
v 0.9282227 0.53125 0.34375
v 0.75 0.65625 0.09375
v 0.8071289 0.5546875 0.3515625
v 0.9282227 -0.53125 0.34375
v 0.9375 -0.125 0.71875
v 1.037598 0 0.5625
v 0.4438477 -0.625 0.375
v 0.2563477 -0.59375 -0.125
v 0.5375977 -0.703125 0.09375
vn 0.2929688 0.9316406 0.2128906
vn 0.453125 0.8828125 0.1191406
vn 0.02734375 0.9980469 -0.04296875
vn 0.4980469 0.7402344 0.453125
vn 0.1992188 0.9257813 0.3203125
vn 0.1953125 0.8398438 0.5078125
vn -0.8925781 0.3164063 -0.3203125
vn -0.8515625 0.02929688 -0.5214844
vn -0.8886719 -0.140625 -0.4375
vn -0.2324219 -0.8632813 0.4492188
vn -0.5351563 -0.8378906 -0.1074219
vn -0.06445313 -0.9882813 0.1425781
vt 0.75 -0.5
vt 0.75 -0.5
vt 0.75 -0.5
vt 0.96875 -0.125
vt 0.96875 -0.015625
vt 0.75 -0.015625
vt 0.5 -0.265625
vt 0.5 -0.265625
vt 0.5 -0.265625
vt 0.03125 -0.90625
vt 0.65625 -0.9375
vt 0.375 -0.8125
f 79/79/79 80/80/80 81/81/81
f 82/82/82 83/83/83 84/84/84
f 85/85/85 86/86/86 87/87/87
f 88/88/88 89/89/89 90/90/90
