# Created by MKDS Course Modifier
mtllib 11.mtl
g polygon0
usemtl e
v 0.4438477 -0.625 0.375
v 0.9282227 -0.53125 0.34375
v 0.4907227 -0.359375 0.625
v 1.037598 0 0.5625
v 0.5063477 0 0.71875
v 0.4907227 0.359375 0.625
vn -0.1835938 -0.8574219 0.4824219
vn 0.328125 -0.6347656 0.6992188
vn -0.08203125 -0.4511719 0.8886719
vn 0.4882813 0 0.8730469
vn -0.07226563 0 0.9980469
vn -0.08203125 0.4511719 0.8886719
vt 1.0625 -1
vt 0.9375 -0.0625
vt 0.78125 -1
vt 0.5 0
vt 0.5 -1
vt 0.21875 -1
f 1/1/1 2/2/2 3/3/3
f 2/2/2 4/4/4 3/3/3
f 3/3/3 4/4/4 5/5/5
f 4/4/4 6/6/6 5/5/5
v 1.037598 0 0.5625
v 0.9282227 0.53125 0.34375
v 0.4907227 0.359375 0.625
v 0.4438477 0.625 0.375
vn 0.4882813 0 0.8730469
vn 0.328125 0.6347656 0.6992188
vn -0.08203125 0.4511719 0.8886719
vn -0.1835938 0.8574219 0.4824219
vt 0.5 0
vt 0.0625 -0.0625
vt 0.21875 -1
vt -0.0625 -1
f 7/7/7 8/8/8 9/9/9
f 8/8/8 10/10/10 9/9/9
g polygon1
usemtl m
v 0.4438477 -0.625 0.375
v 0.4907227 -0.359375 0.625
v 0.1625977 -0.390625 0.421875
v 0.1625977 0 0.5625
v 0.006347656 0 0.03125
v 0.1625977 0.390625 0.421875
v 0.06884766 0.375 -0.125
v 0.2563477 0.59375 -0.125
v 0.1157227 0.3125 -0.484375
vn -0.1835938 -0.8574219 0.4824219
vn -0.08203125 -0.4511719 0.8886719
vn -0.765625 -0.4882813 0.4179688
vn -0.6777344 0 0.734375
vn -0.9980469 0 0.05664063
vn -0.765625 0.4882813 0.4179688
vn -0.90625 0.4238281 -0.02148438
vn -0.5351563 0.8378906 -0.1074219
vn -0.7929688 0.3496094 -0.4980469
vt 1 0
vt 0.765625 0
vt 1 -0.59375
vt 0.5 -0.59375
vt 0.5 -0.9375
vt 0.5 -0.9375
vt 0.5 -0.9375
vt 0.5 -0.9375
vt 0.5 -0.9375
f 11/11/11 12/12/12 13/13/13
f 12/12/12 14/14/14 13/13/13
f 13/13/13 14/14/14 15/15/15
f 14/14/14 16/16/16 15/15/15
f 15/15/15 16/16/16 17/17/17
f 16/16/16 18/18/18 17/17/17
f 17/17/17 18/18/18 19/19/19
v 0.4438477 -0.625 0.375
v 0.1625977 -0.390625 0.421875
v 0.2563477 -0.59375 -0.125
v 0.06884766 -0.375 -0.125
v 0.1157227 -0.3125 -0.484375
v 0.006347656 0 0.03125
v 0.1157227 0.3125 -0.484375
v 0.06884766 0.375 -0.125
vn -0.1835938 -0.8574219 0.4824219
vn -0.765625 -0.4882813 0.4179688
vn -0.5351563 -0.8378906 -0.1074219
vn -0.90625 -0.4238281 -0.02148438
vn -0.7929688 -0.3496094 -0.4980469
vn -0.9980469 0 0.05664063
vn -0.7929688 0.3496094 -0.4980469
vn -0.90625 0.4238281 -0.02148438
vt 0.5 -0.9375
vt 0.5 -0.9375
vt 0.5 -0.9375
vt 0.5 -0.9375
vt 0.5 -0.9375
vt 0.5 -0.9375
vt 0.5 -0.9375
vt 0.5 -0.9375
f 20/20/20 21/21/21 22/22/22
f 21/21/21 23/23/23 22/22/22
f 22/22/22 23/23/23 24/24/24
f 23/23/23 25/25/25 24/24/24
f 24/24/24 25/25/25 26/26/26
f 25/25/25 27/27/27 26/26/26
v 0.4438477 0.625 0.375
v 0.1625977 0.390625 0.421875
v 0.4907227 0.359375 0.625
v 0.1625977 0 0.5625
v 0.5063477 0 0.71875
v 0.4907227 -0.359375 0.625
vn -0.1835938 0.8574219 0.4824219
vn -0.765625 0.4882813 0.4179688
vn -0.08203125 0.4511719 0.8886719
vn -0.6777344 0 0.734375
vn -0.07226563 0 0.9980469
vn -0.08203125 -0.4511719 0.8886719
vt 0 0
vt 0 -0.59375
vt 0.234375 0
vt 0.5 -0.59375
vt 0.5 0
vt 0.765625 0
f 28/28/28 29/29/29 30/30/30
f 29/29/29 31/31/31 30/30/30
f 30/30/30 31/31/31 32/32/32
f 31/31/31 33/33/33 32/32/32
v 0.1625977 0.390625 0.421875
v 0.4438477 0.625 0.375
v 0.2563477 0.59375 -0.125
v 0.06884766 -0.375 -0.125
v 0.1625977 -0.390625 0.421875
v 0.006347656 0 0.03125
vn -0.765625 0.4882813 0.4179688
vn -0.1835938 0.8574219 0.4824219
vn -0.5351563 0.8378906 -0.1074219
vn -0.90625 -0.4238281 -0.02148438
vn -0.765625 -0.4882813 0.4179688
vn -0.9980469 0 0.05664063
vt 0.5 -0.9375
vt 0.5 -0.9375
vt 0.5 -0.9375
vt 0.5 -0.9375
vt 0.5 -0.9375
vt 0.5 -0.9375
f 34/34/34 35/35/35 36/36/36
f 37/37/37 38/38/38 39/39/39
g polygon2
usemtl hair
v 1.817139 0 0.07275391
v 1.568359 0.171875 -0.1081543
v 1.535156 0 0.2717285
v 1.371582 0.109375 0.1135254
v 1.0625 0 0.328125
v 1.371582 -0.109375 0.1135254
v 1.535156 0 0.2717285
v 1.568359 -0.171875 -0.1081543
v 1.817139 0 0.07275391
vn 0.5761719 0 0.8164063
vn -0.1503906 0.984375 0.09570313
vn 0.3730469 0 0.9277344
vn -0.6503906 0.6230469 -0.4335938
vn -0.8925781 0 0.4511719
vn -0.4863281 -0.8398438 -0.2363281
vn 0.3730469 0 0.9277344
vn -0.4863281 -0.8398438 -0.2363281
vn 0.5761719 0 0.8164063
vt 0.375 -0.5
vt 0.375 -0.5
vt 0.375 -0.5
vt 0.375 -0.5
vt 0.375 -0.5
vt 0.375 -0.5
vt 0.375 -0.5
vt 0.375 -0.5
vt 0.375 -0.5
f 40/40/40 41/41/41 42/42/42
f 41/41/41 43/43/43 42/42/42
f 42/42/42 43/43/43 44/44/44
f 43/43/43 45/45/45 44/44/44
f 44/44/44 45/45/45 46/46/46
f 45/45/45 47/47/47 46/46/46
f 46/46/46 47/47/47 48/48/48
v 1.225098 0.21875 0.3125
v 1.225098 -0.21875 0.3125
v 1.287598 0 -0.09375
v 1.193848 -0.40625 0
v 1.162598 -0.34375 -0.40625
v 0.9750977 -0.625 -0.1875
v 0.8969727 -0.453125 -0.59375
v 0.6938477 -0.71875 -0.15625
v 0.5063477 -0.484375 -0.59375
vn 0.8925781 0.2402344 0.3789063
vn 0.8925781 -0.2402344 0.3789063
vn 0.9960938 0 -0.08203125
vn 0.8710938 -0.4902344 0.01953125
vn 0.8339844 -0.4179688 -0.3613281
vn 0.5410156 -0.8339844 -0.1132813
vn 0.3925781 -0.6054688 -0.6914063
vn 0.0390625 -0.9785156 -0.2050781
vn -0.1953125 -0.6464844 -0.7382813
vt 0.375 -0.5
vt 0.375 -0.5
vt 0.375 -0.5
vt 0.375 -0.5
vt 0.375 -0.5
vt 0.375 -0.5
vt 0.375 -0.5
vt 0.375 -0.5
vt 0.375 -0.5
f 49/49/49 50/50/50 51/51/51
f 50/50/50 52/52/52 51/51/51
f 51/51/51 52/52/52 53/53/53
f 52/52/52 54/54/54 53/53/53
f 53/53/53 54/54/54 55/55/55
f 54/54/54 56/56/56 55/55/55
f 55/55/55 56/56/56 57/57/57
v 0.9750977 -0.625 -0.1875
v 1.193848 -0.40625 0
v 1.0625 -0.484375 0.296875
v 1.225098 -0.21875 0.3125
v 1.037598 0 0.5625
v 1.225098 0.21875 0.3125
v 1.0625 0.484375 0.296875
v 1.193848 0.40625 0
v 0.9750977 0.625 -0.1875
vn 0.5410156 -0.8339844 -0.1132813
vn 0.8710938 -0.4902344 0.01953125
vn 0.6054688 -0.6640625 0.4375
vn 0.8925781 -0.2402344 0.3789063
vn 0.4882813 0 0.8730469
vn 0.8925781 0.2402344 0.3789063
vn 0.6054688 0.6640625 0.4375
vn 0.8710938 0.4902344 0.01953125
vn 0.5410156 0.8339844 -0.1132813
vt 0.40625 -0.5
vt 0.28125 -0.34375
vt 0.0625 -0.375
vt 0.15625 -0.15625
vt 0.015625 0
vt 0.15625 -0.15625
vt 0.0625 -0.375
vt 0.28125 -0.34375
vt 0.40625 -0.5
f 58/58/58 59/59/59 60/60/60
f 59/59/59 61/61/61 60/60/60
f 60/60/60 61/61/61 62/62/62
f 61/61/61 63/63/63 62/62/62
f 62/62/62 63/63/63 64/64/64
f 63/63/63 65/65/65 64/64/64
f 64/64/64 65/65/65 66/66/66
v 1.225098 0.21875 0.3125
v 1.287598 0 -0.09375
v 1.193848 0.40625 0
v 1.162598 0.34375 -0.40625
v 0.9750977 0.625 -0.1875
v 0.8969727 0.453125 -0.59375
v 0.6938477 0.71875 -0.15625
v 0.5063477 0.484375 -0.59375
vn 0.8925781 0.2402344 0.3789063
vn 0.9960938 0 -0.08203125
vn 0.8710938 0.4902344 0.01953125
vn 0.8339844 0.4179688 -0.3613281
vn 0.5410156 0.8339844 -0.1132813
vn 0.3925781 0.6054688 -0.6914063
vn 0.0390625 0.9785156 -0.2050781
vn -0.1953125 0.6464844 -0.7382813
vt 0.375 -0.5
vt 0.375 -0.5
vt 0.375 -0.5
vt 0.375 -0.5
vt 0.375 -0.5
vt 0.375 -0.5
vt 0.375 -0.5
vt 0.375 -0.5
f 67/67/67 68/68/68 69/69/69
f 68/68/68 70/70/70 69/69/69
f 69/69/69 70/70/70 71/71/71
f 70/70/70 72/72/72 71/71/71
f 71/71/71 72/72/72 73/73/73
f 72/72/72 74/74/74 73/73/73
v 0.1157227 -0.3125 -0.484375
v 0.5063477 -0.484375 -0.59375
v 0.2563477 -0.59375 -0.125
v 0.6938477 -0.71875 -0.15625
v 0.5375977 -0.703125 0.09375
v 0.8125 -0.640625 0.25
v 0.4438477 -0.625 0.375
v 0.9282227 -0.53125 0.34375
vn -0.7929688 -0.3496094 -0.4980469
vn -0.1953125 -0.6464844 -0.7382813
vn -0.5351563 -0.8378906 -0.1074219
vn 0.0390625 -0.9785156 -0.2050781
vn -0.1347656 -0.984375 0.109375
vn 0.28125 -0.9121094 0.2988281
vn -0.1835938 -0.8574219 0.4824219
vn 0.328125 -0.6347656 0.6992188
vt 0.484375 -0.9375
vt 0.484375 -0.6875
vt 0.328125 -0.9375
vt 0.328125 -0.6875
vt 0.1875 -0.8125
vt 0.0625 -0.5625
vt 0.015625 -0.90625
vt 0.03125 -0.46875
f 75/75/75 76/76/76 77/77/77
f 76/76/76 78/78/78 77/77/77
f 77/77/77 78/78/78 79/79/79
f 78/78/78 80/80/80 79/79/79
f 79/79/79 80/80/80 81/81/81
f 80/80/80 82/82/82 81/81/81
v 1.037598 0 0.5625
v 1.0625 0.484375 0.296875
v 0.9282227 0.53125 0.34375
v 0.8125 0.640625 0.25
v 0.4438477 0.625 0.375
v 0.5375977 0.703125 0.09375
v 0.2563477 0.59375 -0.125
v 0.6938477 0.71875 -0.15625
vn 0.4882813 0 0.8730469
vn 0.6054688 0.6640625 0.4375
vn 0.328125 0.6347656 0.6992188
vn 0.28125 0.9121094 0.2988281
vn -0.1835938 0.8574219 0.4824219
vn -0.1503906 0.984375 0.09570313
vn -0.5351563 0.8378906 -0.1074219
vn 0.0390625 0.9785156 -0.2050781
vt 0.015625 0
vt 0.0625 -0.375
vt 0.03125 -0.46875
vt 0.0625 -0.5625
vt 0.015625 -0.90625
vt 0.1875 -0.8125
vt 0.328125 -0.9375
vt 0.328125 -0.6875
f 83/83/83 84/84/84 85/85/85
f 84/84/84 86/86/86 85/85/85
f 85/85/85 86/86/86 87/87/87
f 86/86/86 88/88/88 87/87/87
f 87/87/87 88/88/88 89/89/89
f 88/88/88 90/90/90 89/89/89
v 0.2971191 -1.039063 -0.765625
v 0.1506348 -0.7302246 -0.8520508
v 0.4729004 -0.796875 -0.59375
v 0.5 -0.375 -0.375
v 0.06469727 -0.8791504 -0.5541992
v 0.1506348 -0.7302246 -0.8520508
vn 0.8242188 -0.5664063 -0.04492188
vn 0.2753906 0.5800781 -0.7675781
vn 0.9160156 -0.3964844 0.06640625
vn 0.06835938 0.8847656 0.4628906
vn -0.2167969 -0.2734375 0.9375
vn 0.2753906 0.5800781 -0.7675781
vt 0.375 -0.5
vt 0.375 -0.5
vt 0.375 -0.5
vt 0.375 -0.5
vt 0.375 -0.5
vt 0.375 -0.5
f 91/91/91 92/92/92 93/93/93
f 92/92/92 94/94/94 93/93/93
f 93/93/93 94/94/94 95/95/95
f 94/94/94 96/96/96 95/95/95
v 0.2971191 1.039063 -0.765625
v 0.06469727 0.8791504 -0.5541992
v 0.4729004 0.796875 -0.59375
v 0.5 0.375 -0.375
v 0.1506348 0.7302246 -0.8520508
v 0.06469727 0.8791504 -0.5541992
vn 0.8242188 0.5664063 -0.04492188
vn -0.2167969 0.2734375 0.9375
vn 0.9160156 0.3964844 0.06640625
vn 0.06835938 -0.8847656 0.4628906
vn 0.2753906 -0.5800781 -0.7675781
vn -0.2167969 0.2734375 0.9375
vt 0.375 -0.5
vt 0.375 -0.5
vt 0.375 -0.5
vt 0.375 -0.5
vt 0.375 -0.5
vt 0.375 -0.5
f 97/97/97 98/98/98 99/99/99
f 98/98/98 100/100/100 99/99/99
f 99/99/99 100/100/100 101/101/101
f 100/100/100 102/102/102 101/101/101
v 0.5063477 -0.484375 -0.59375
v 0.8500977 0 -0.765625
v 0.8969727 -0.453125 -0.59375
v 1.162598 0 -0.53125
v 1.162598 -0.34375 -0.40625
v 1.287598 0 -0.09375
vn -0.1953125 -0.6464844 -0.7382813
vn 0.2109375 0 -0.9765625
vn 0.3925781 -0.6054688 -0.6914063
vn 0.7714844 0 -0.6347656
vn 0.8339844 -0.4179688 -0.3613281
vn 0.9960938 0 -0.08203125
vt 0.375 -0.5
vt 0.375 -0.5
vt 0.375 -0.5
vt 0.375 -0.5
vt 0.375 -0.5
vt 0.375 -0.5
f 103/103/103 104/104/104 105/105/105
f 104/104/104 106/106/106 105/105/105
f 105/105/105 106/106/106 107/107/107
f 106/106/106 108/108/108 107/107/107
v 0.6938477 -0.71875 -0.15625
v 0.9750977 -0.625 -0.1875
v 0.8125 -0.640625 0.25
v 1.0625 -0.484375 0.296875
v 0.9282227 -0.53125 0.34375
v 1.037598 0 0.5625
vn 0.0390625 -0.9785156 -0.2050781
vn 0.5410156 -0.8339844 -0.1132813
vn 0.28125 -0.9121094 0.2988281
vn 0.6054688 -0.6640625 0.4375
vn 0.328125 -0.6347656 0.6992188
vn 0.4882813 0 0.8730469
vt 0.328125 -0.6875
vt 0.40625 -0.5
vt 0.0625 -0.5625
vt 0.0625 -0.375
vt 0.03125 -0.46875
vt 0.015625 0
f 109/109/109 110/110/110 111/111/111
f 110/110/110 112/112/112 111/111/111
f 111/111/111 112/112/112 113/113/113
f 112/112/112 114/114/114 113/113/113
v 0.8500977 0 -0.765625
v 0.5063477 -0.484375 -0.59375
v 0.4438477 0 -0.75
v 0.1157227 -0.3125 -0.484375
v 0.1157227 0.3125 -0.484375
vn 0.2109375 0 -0.9765625
vn -0.1953125 -0.6464844 -0.7382813
vn -0.3183594 0 -0.9492188
vn -0.7929688 -0.3496094 -0.4980469
vn -0.7929688 0.3496094 -0.4980469
vt 0.53125 0.25
vt 0.75 -0.015625
vt 0.5 -0.03125
vt 0.65625 -0.359375
vt 0.34375 -0.359375
f 115/115/115 116/116/116 117/117/117
f 116/116/116 118/118/118 117/117/117
f 117/117/117 118/118/118 119/119/119
v 1.0625 0.484375 0.296875
v 0.9750977 0.625 -0.1875
v 0.8125 0.640625 0.25
v 0.6938477 0.71875 -0.15625
v 0.5375977 0.703125 0.09375
vn 0.6054688 0.6640625 0.4375
vn 0.5410156 0.8339844 -0.1132813
vn 0.28125 0.9121094 0.2988281
vn 0.0390625 0.9785156 -0.2050781
vn -0.1503906 0.984375 0.09570313
vt 0.0625 -0.375
vt 0.40625 -0.5
vt 0.0625 -0.5625
vt 0.328125 -0.6875
vt 0.1875 -0.8125
f 120/120/120 121/121/121 122/122/122
f 121/121/121 123/123/123 122/122/122
f 122/122/122 123/123/123 124/124/124
v 0.3344727 -0.78125 0
v 0.4438477 -0.015625 0
v 0.5063477 -0.796875 -0.125
v 0.6782227 -0.8125 0
v 0.5219727 -0.90625 0
vn -0.5742188 -0.3359375 -0.7460938
vn 0.005859375 0.1582031 -0.9882813
vn -0.01953125 -0.3691406 -0.9296875
vn 0.5488281 -0.2734375 -0.7890625
vn -0.03515625 -0.7539063 -0.65625
vt 0.0625 -0.875
vt 0.0625 -0.875
vt 0.0625 -0.875
vt 0.0625 -0.875
vt 0.0625 -0.875
f 125/125/125 126/126/126 127/127/127
f 126/126/126 128/128/128 127/127/127
f 127/127/127 128/128/128 129/129/129
v 0.5219727 0.90625 0
v 0.6782227 0.8125 0
v 0.5063477 0.796875 -0.125
v 0.4438477 0.015625 0
v 0.3344727 0.78125 0
vn -0.03515625 0.7539063 -0.65625
vn 0.5488281 0.2734375 -0.7890625
vn -0.01953125 0.3691406 -0.9296875
vn 0.005859375 -0.1582031 -0.9882813
vn -0.5742188 0.3359375 -0.7460938
vt 0.0625 -0.875
vt 0.0625 -0.875
vt 0.0625 -0.875
vt 0.0625 -0.875
vt 0.0625 -0.875
f 130/130/130 131/131/131 132/132/132
f 131/131/131 133/133/133 132/132/132
f 132/132/132 133/133/133 134/134/134
v 0.1157227 0.3125 -0.484375
v 0.2563477 0.59375 -0.125
v 0.5063477 0.484375 -0.59375
v 0.6938477 0.71875 -0.15625
vn -0.7929688 0.3496094 -0.4980469
vn -0.5351563 0.8378906 -0.1074219
vn -0.1953125 0.6464844 -0.7382813
vn 0.0390625 0.9785156 -0.2050781
vt 0.484375 -0.9375
vt 0.328125 -0.9375
vt 0.484375 -0.6875
vt 0.328125 -0.6875
f 135/135/135 136/136/136 137/137/137
f 136/136/136 138/138/138 137/137/137
v 0.6782227 0.8125 0
v 0.5219727 0.90625 0
v 0.4438477 0.015625 0
v 0.3344727 0.78125 0
vn 0 0 0.9980469
vn 0 0 0.9980469
vn 0 0 0.9980469
vn 0 0 0.9980469
vt 0.0625 -0.875
vt 0.0625 -0.875
vt 0.0625 -0.875
vt 0.0625 -0.875
f 139/139/139 140/140/140 141/141/141
f 140/140/140 142/142/142 141/141/141
v 0.3344727 -0.78125 0
v 0.5219727 -0.90625 0
v 0.4438477 -0.015625 0
v 0.6782227 -0.8125 0
vn 0 0 0.9980469
vn 0 0 0.9980469
vn 0 0 0.9980469
vn 0 0 0.9980469
vt 0.0625 -0.875
vt 0.0625 -0.875
vt 0.0625 -0.875
vt 0.0625 -0.875
f 143/143/143 144/144/144 145/145/145
f 144/144/144 146/146/146 145/145/145
v 1.287598 0 -0.09375
v 1.162598 0 -0.53125
v 1.162598 0.34375 -0.40625
v 0.8969727 0.453125 -0.59375
vn 0.9960938 0 -0.08203125
vn 0.7714844 0 -0.6347656
vn 0.8339844 0.4179688 -0.3613281
vn 0.3925781 0.6054688 -0.6914063
vt 0.375 -0.5
vt 0.375 -0.5
vt 0.375 -0.5
vt 0.375 -0.5
f 147/147/147 148/148/148 149/149/149
f 148/148/148 150/150/150 149/149/149
v 0.5063477 0.484375 -0.59375
v 0.8969727 0.453125 -0.59375
v 0.8500977 0 -0.765625
v 1.162598 0 -0.53125
vn -0.1953125 0.6464844 -0.7382813
vn 0.3925781 0.6054688 -0.6914063
vn 0.2109375 0 -0.9765625
vn 0.7714844 0 -0.6347656
vt 0.375 -0.5
vt 0.375 -0.5
vt 0.375 -0.5
vt 0.375 -0.5
f 151/151/151 152/152/152 153/153/153
f 152/152/152 154/154/154 153/153/153
v 0.8500977 0 -0.765625
v 0.4438477 0 -0.75
v 0.5063477 0.484375 -0.59375
v 0.1157227 0.3125 -0.484375
vn 0.2109375 0 -0.9765625
vn -0.3183594 0 -0.9492188
vn -0.1953125 0.6464844 -0.7382813
vn -0.7929688 0.3496094 -0.4980469
vt 0.46875 0.25
vt 0.5 -0.03125
vt 0.25 -0.015625
vt 0.34375 -0.359375
f 155/155/155 156/156/156 157/157/157
f 156/156/156 158/158/158 157/157/157
v 1.568359 0.171875 -0.1081543
v 1.568359 -0.171875 -0.1081543
v 1.371582 0.109375 0.1135254
v 1.371582 -0.109375 0.1135254
vn -0.1503906 0.984375 0.09570313
vn -0.4863281 -0.8398438 -0.2363281
vn -0.6503906 0.6230469 -0.4335938
vn -0.4863281 -0.8398438 -0.2363281
vt 0.375 -0.5
vt 0.375 -0.5
vt 0.375 -0.5
vt 0.375 -0.5
f 159/159/159 160/160/160 161/161/161
f 160/160/160 162/162/162 161/161/161
v 0.3344727 0.78125 0
v 0.5219727 0.90625 0
v 0.5063477 0.796875 -0.125
v 0.3344727 -0.78125 0
v 0.5063477 -0.796875 -0.125
v 0.5219727 -0.90625 0
v 0.1506348 0.7302246 -0.8520508
v 0.06469727 0.8791504 -0.5541992
v 0.2971191 1.039063 -0.765625
v 0.4729004 -0.796875 -0.59375
v 0.06469727 -0.8791504 -0.5541992
v 0.2971191 -1.039063 -0.765625
v 0.06469727 -0.8791504 -0.5541992
v 0.1506348 -0.7302246 -0.8520508
v 0.2971191 -1.039063 -0.765625
v 0.4729004 0.796875 -0.59375
v 0.1506348 0.7302246 -0.8520508
v 0.2971191 1.039063 -0.765625
v 1.568359 -0.171875 -0.1081543
v 1.568359 0.171875 -0.1081543
v 1.817139 0 0.07275391
v 0.4438477 -0.625 0.375
v 0.2563477 -0.59375 -0.125
v 0.5375977 -0.703125 0.09375
vn -0.5742188 0.3359375 -0.7460938
vn -0.03515625 0.7539063 -0.65625
vn -0.01953125 0.3691406 -0.9296875
vn -0.5742188 -0.3359375 -0.7460938
vn -0.01953125 -0.3691406 -0.9296875
vn -0.03515625 -0.7539063 -0.65625
vn -0.7480469 0.4824219 -0.4570313
vn -0.7480469 0.4824219 -0.4570313
vn -0.7480469 0.4824219 -0.4570313
vn 0.9160156 -0.3964844 0.06640625
vn -0.2167969 -0.2734375 0.9375
vn 0.8242188 -0.5664063 -0.04492188
vn -0.7480469 -0.4824219 -0.4570313
vn -0.7480469 -0.4824219 -0.4570313
vn -0.7480469 -0.4824219 -0.4570313
vn 0.9160156 0.3964844 0.06640625
vn 0.2753906 -0.5800781 -0.7675781
vn 0.8242188 0.5664063 -0.04492188
vn 0.5878906 0 -0.8085938
vn 0.5878906 0 -0.8085938
vn 0.5878906 0 -0.8085938
vn -0.1835938 -0.8574219 0.4824219
vn -0.5351563 -0.8378906 -0.1074219
vn -0.1347656 -0.984375 0.109375
vt 0.0625 -0.875
vt 0.0625 -0.875
vt 0.0625 -0.875
vt 0.0625 -0.875
vt 0.0625 -0.875
vt 0.0625 -0.875
vt 0.375 -0.5
vt 0.375 -0.5
vt 0.375 -0.5
vt 0.375 -0.5
vt 0.375 -0.5
vt 0.375 -0.5
vt 0.375 -0.5
vt 0.375 -0.5
vt 0.375 -0.5
vt 0.375 -0.5
vt 0.375 -0.5
vt 0.375 -0.5
vt 0.375 -0.5
vt 0.375 -0.5
vt 0.375 -0.5
vt 0.015625 -0.90625
vt 0.328125 -0.9375
vt 0.1875 -0.8125
f 163/163/163 164/164/164 165/165/165
f 166/166/166 167/167/167 168/168/168
f 169/169/169 170/170/170 171/171/171
f 172/172/172 173/173/173 174/174/174
f 175/175/175 176/176/176 177/177/177
f 178/178/178 179/179/179 180/180/180
f 181/181/181 182/182/182 183/183/183
f 184/184/184 185/185/185 186/186/186
