# Created by MKDS Course Modifier
mtllib 27.mtl
g polygon0
usemtl e
v 0.4438477 -0.625 0.375
v 0.9282227 -0.53125 0.34375
v 0.4907227 -0.359375 0.625
v 1.037598 0 0.5625
v 0.5063477 0 0.71875
v 0.4907227 0.359375 0.625
vn -0.1835938 -0.8574219 0.4824219
vn 0.4023438 -0.7070313 0.5820313
vn -0.08203125 -0.4511719 0.8886719
vn 0.34375 0 0.9394531
vn -0.07226563 0 0.9980469
vn -0.08203125 0.4511719 0.8886719
vt 1.0625 -1
vt 0.9375 -0.0625
vt 0.78125 -1
vt 0.5 0
vt 0.5 -1
vt 0.21875 -1
f 1/1/1 2/2/2 3/3/3
f 2/2/2 4/4/4 3/3/3
f 3/3/3 4/4/4 5/5/5
f 4/4/4 6/6/6 5/5/5
v 1.037598 0 0.5625
v 0.9282227 0.53125 0.34375
v 0.4907227 0.359375 0.625
v 0.4438477 0.625 0.375
vn 0.34375 0 0.9394531
vn 0.4023438 0.7070313 0.5820313
vn -0.08203125 0.4511719 0.8886719
vn -0.1835938 0.8574219 0.4824219
vt 0.5 0
vt 0.0625 -0.0625
vt 0.21875 -1
vt -0.0625 -1
f 7/7/7 8/8/8 9/9/9
f 8/8/8 10/10/10 9/9/9
g polygon1
usemtl m
v 0.4438477 -0.625 0.375
v 0.4907227 -0.359375 0.625
v 0.1625977 -0.390625 0.421875
v 0.1625977 0 0.5625
v 0.006347656 0 0.03125
v 0.1625977 0.390625 0.421875
v 0.06884766 0.375 -0.125
v 0.2563477 0.59375 -0.125
v 0.1157227 0.3125 -0.484375
vn -0.1835938 -0.8574219 0.4824219
vn -0.08203125 -0.4511719 0.8886719
vn -0.765625 -0.4882813 0.4179688
vn -0.6777344 0 0.734375
vn -0.9980469 0 0.05664063
vn -0.765625 0.4882813 0.4179688
vn -0.90625 0.4238281 -0.02148438
vn -0.5351563 0.8378906 -0.1074219
vn -0.7929688 0.3496094 -0.4980469
vt 1 0
vt 0.765625 0
vt 1 -0.59375
vt 0.5 -0.59375
vt 0.5 -0.9375
vt 0.5 -0.9375
vt 0.5 -0.9375
vt 0.5 -0.9375
vt 0.5 -0.9375
f 11/11/11 12/12/12 13/13/13
f 12/12/12 14/14/14 13/13/13
f 13/13/13 14/14/14 15/15/15
f 14/14/14 16/16/16 15/15/15
f 15/15/15 16/16/16 17/17/17
f 16/16/16 18/18/18 17/17/17
f 17/17/17 18/18/18 19/19/19
v 0.4438477 -0.625 0.375
v 0.1625977 -0.390625 0.421875
v 0.2563477 -0.59375 -0.125
v 0.06884766 -0.375 -0.125
v 0.1157227 -0.3125 -0.484375
v 0.006347656 0 0.03125
v 0.1157227 0.3125 -0.484375
v 0.06884766 0.375 -0.125
vn -0.1835938 -0.8574219 0.4824219
vn -0.765625 -0.4882813 0.4179688
vn -0.5351563 -0.8378906 -0.1074219
vn -0.90625 -0.4238281 -0.02148438
vn -0.7929688 -0.3496094 -0.4980469
vn -0.9980469 0 0.05664063
vn -0.7929688 0.3496094 -0.4980469
vn -0.90625 0.4238281 -0.02148438
vt 0.5 -0.9375
vt 0.5 -0.9375
vt 0.5 -0.9375
vt 0.5 -0.9375
vt 0.5 -0.9375
vt 0.5 -0.9375
vt 0.5 -0.9375
vt 0.5 -0.9375
f 20/20/20 21/21/21 22/22/22
f 21/21/21 23/23/23 22/22/22
f 22/22/22 23/23/23 24/24/24
f 23/23/23 25/25/25 24/24/24
f 24/24/24 25/25/25 26/26/26
f 25/25/25 27/27/27 26/26/26
v 0.4438477 0.625 0.375
v 0.1625977 0.390625 0.421875
v 0.4907227 0.359375 0.625
v 0.1625977 0 0.5625
v 0.5063477 0 0.71875
v 0.4907227 -0.359375 0.625
vn -0.1835938 0.8574219 0.4824219
vn -0.765625 0.4882813 0.4179688
vn -0.08203125 0.4511719 0.8886719
vn -0.6777344 0 0.734375
vn -0.07226563 0 0.9980469
vn -0.08203125 -0.4511719 0.8886719
vt 0 0
vt 0 -0.59375
vt 0.234375 0
vt 0.5 -0.59375
vt 0.5 0
vt 0.765625 0
f 28/28/28 29/29/29 30/30/30
f 29/29/29 31/31/31 30/30/30
f 30/30/30 31/31/31 32/32/32
f 31/31/31 33/33/33 32/32/32
v 0.1625977 0.390625 0.421875
v 0.4438477 0.625 0.375
v 0.2563477 0.59375 -0.125
v 0.06884766 -0.375 -0.125
v 0.1625977 -0.390625 0.421875
v 0.006347656 0 0.03125
vn -0.765625 0.4882813 0.4179688
vn -0.1835938 0.8574219 0.4824219
vn -0.5351563 0.8378906 -0.1074219
vn -0.90625 -0.4238281 -0.02148438
vn -0.765625 -0.4882813 0.4179688
vn -0.9980469 0 0.05664063
vt 0.5 -0.9375
vt 0.5 -0.9375
vt 0.5 -0.9375
vt 0.5 -0.9375
vt 0.5 -0.9375
vt 0.5 -0.9375
f 34/34/34 35/35/35 36/36/36
f 37/37/37 38/38/38 39/39/39
g polygon2
usemtl hair
v 0.1157227 -0.3125 -0.484375
v 0.5063477 -0.484375 -0.59375
v 0.2563477 -0.59375 -0.125
v 0.6938477 -0.71875 -0.15625
v 0.5375977 -0.703125 0.09375
v 0.8125 -0.640625 0.25
v 0.4438477 -0.625 0.375
v 0.9282227 -0.53125 0.34375
vn -0.7929688 -0.3496094 -0.4980469
vn -0.3984375 -0.7070313 -0.5839844
vn -0.5351563 -0.8378906 -0.1074219
vn 0.08398438 -0.9902344 -0.1132813
vn -0.1347656 -0.984375 0.109375
vn 0.296875 -0.9160156 0.2695313
vn -0.1835938 -0.8574219 0.4824219
vn 0.4023438 -0.7070313 0.5820313
vt 0.484375 -0.9375
vt 0.484375 -0.6875
vt 0.328125 -0.9375
vt 0.328125 -0.6875
vt 0.1875 -0.8125
vt 0.0625 -0.5625
vt 0.015625 -0.90625
vt 0.03125 -0.46875
f 40/40/40 41/41/41 42/42/42
f 41/41/41 43/43/43 42/42/42
f 42/42/42 43/43/43 44/44/44
f 43/43/43 45/45/45 44/44/44
f 44/44/44 45/45/45 46/46/46
f 45/45/45 47/47/47 46/46/46
v 0.4438477 0.625 0.375
v 0.9282227 0.53125 0.34375
v 0.8125 0.640625 0.25
v 0.6938477 0.71875 -0.15625
v 0.5375977 0.703125 0.09375
v 0.2563477 0.59375 -0.125
v 0.4438477 0.625 0.375
vn -0.1835938 0.8574219 0.4824219
vn 0.4023438 0.7070313 0.5820313
vn 0.296875 0.9160156 0.2695313
vn 0.08398438 0.9902344 -0.1132813
vn -0.1347656 0.984375 0.109375
vn -0.5351563 0.8378906 -0.1074219
vn -0.1835938 0.8574219 0.4824219
vt 0.015625 -0.90625
vt 0.03125 -0.46875
vt 0.0625 -0.5625
vt 0.328125 -0.6875
vt 0.1875 -0.8125
vt 0.328125 -0.9375
vt 0.015625 -0.90625
f 48/48/48 49/49/49 50/50/50
f 49/49/49 51/51/51 50/50/50
f 50/50/50 51/51/51 52/52/52
f 51/51/51 53/53/53 52/52/52
f 52/52/52 53/53/53 54/54/54
v 0.2971191 1.039063 -0.765625
v 0.06469727 0.8791504 -0.5541992
v 0.4729004 0.796875 -0.59375
v 0.5 0.375 -0.375
v 0.1506348 0.7302246 -0.8520508
v 0.06469727 0.8791504 -0.5541992
vn 0.8242188 0.5664063 -0.04492188
vn -0.2167969 0.2734375 0.9375
vn 0.9160156 0.3964844 0.06640625
vn 0.06835938 -0.8847656 0.4628906
vn 0.2753906 -0.5800781 -0.7675781
vn -0.2167969 0.2734375 0.9375
vt 0.375 -0.5
vt 0.375 -0.5
vt 0.375 -0.5
vt 0.375 -0.5
vt 0.375 -0.5
vt 0.375 -0.5
f 55/55/55 56/56/56 57/57/57
f 56/56/56 58/58/58 57/57/57
f 57/57/57 58/58/58 59/59/59
f 58/58/58 60/60/60 59/59/59
v 0.2971191 -1.039063 -0.765625
v 0.1506348 -0.7302246 -0.8520508
v 0.4729004 -0.796875 -0.59375
v 0.5 -0.375 -0.375
v 0.06469727 -0.8791504 -0.5541992
v 0.1506348 -0.7302246 -0.8520508
vn 0.8242188 -0.5664063 -0.04492188
vn 0.2753906 0.5800781 -0.7675781
vn 0.9160156 -0.3964844 0.06640625
vn 0.06835938 0.8847656 0.4628906
vn -0.2167969 -0.2734375 0.9375
vn 0.2753906 0.5800781 -0.7675781
vt 0.375 -0.5
vt 0.375 -0.5
vt 0.375 -0.5
vt 0.375 -0.5
vt 0.375 -0.5
vt 0.375 -0.5
f 61/61/61 62/62/62 63/63/63
f 62/62/62 64/64/64 63/63/63
f 63/63/63 64/64/64 65/65/65
f 64/64/64 66/66/66 65/65/65
v 0.5063477 -0.484375 -0.59375
v 0.1157227 -0.3125 -0.484375
v 0.4438477 0 -0.75
v 0.1157227 0.3125 -0.484375
v 0.5063477 0.484375 -0.59375
vn -0.3984375 -0.7070313 -0.5839844
vn -0.7929688 -0.3496094 -0.4980469
vn -0.4882813 0 -0.8730469
vn -0.7929688 0.3496094 -0.4980469
vn -0.3984375 0.7070313 -0.5839844
vt 0.75 -0.015625
vt 0.65625 -0.359375
vt 0.5 -0.03125
vt 0.34375 -0.359375
vt 0.25 -0.015625
f 67/67/67 68/68/68 69/69/69
f 68/68/68 70/70/70 69/69/69
f 69/69/69 70/70/70 71/71/71
v 0.1157227 0.3125 -0.484375
v 0.2563477 0.59375 -0.125
v 0.5063477 0.484375 -0.59375
v 0.6938477 0.71875 -0.15625
vn -0.7929688 0.3496094 -0.4980469
vn -0.5351563 0.8378906 -0.1074219
vn -0.3984375 0.7070313 -0.5839844
vn 0.08398438 0.9902344 -0.1132813
vt 0.484375 -0.9375
vt 0.328125 -0.9375
vt 0.484375 -0.6875
vt 0.328125 -0.6875
f 72/72/72 73/73/73 74/74/74
f 73/73/73 75/75/75 74/74/74
v 0.1506348 0.7302246 -0.8520508
v 0.06469727 0.8791504 -0.5541992
v 0.2971191 1.039063 -0.765625
v 0.06469727 -0.8791504 -0.5541992
v 0.1506348 -0.7302246 -0.8520508
v 0.2971191 -1.039063 -0.765625
v 0.4438477 -0.625 0.375
v 0.2563477 -0.59375 -0.125
v 0.5375977 -0.703125 0.09375
v 0.6938477 -0.71875 -0.15625
v 0.9282227 -0.53125 0.34375
v 0.8125 -0.640625 0.25
v 0.4729004 0.796875 -0.59375
v 0.1506348 0.7302246 -0.8520508
v 0.2971191 1.039063 -0.765625
v 0.4729004 -0.796875 -0.59375
v 0.06469727 -0.8791504 -0.5541992
v 0.2971191 -1.039063 -0.765625
v 0.5375977 0.703125 0.09375
v 0.4438477 0.625 0.375
v 0.8125 0.640625 0.25
vn -0.7480469 0.4824219 -0.4570313
vn -0.7480469 0.4824219 -0.4570313
vn -0.7480469 0.4824219 -0.4570313
vn -0.7480469 -0.4824219 -0.4570313
vn -0.7480469 -0.4824219 -0.4570313
vn -0.7480469 -0.4824219 -0.4570313
vn -0.1835938 -0.8574219 0.4824219
vn -0.5351563 -0.8378906 -0.1074219
vn -0.1347656 -0.984375 0.109375
vn 0.08398438 -0.9902344 -0.1132813
vn 0.4023438 -0.7070313 0.5820313
vn 0.296875 -0.9160156 0.2695313
vn 0.9160156 0.3964844 0.06640625
vn 0.2753906 -0.5800781 -0.7675781
vn 0.8242188 0.5664063 -0.04492188
vn 0.9160156 -0.3964844 0.06640625
vn -0.2167969 -0.2734375 0.9375
vn 0.8242188 -0.5664063 -0.04492188
vn -0.1347656 0.984375 0.109375
vn -0.1835938 0.8574219 0.4824219
vn 0.296875 0.9160156 0.2695313
vt 0.375 -0.5
vt 0.375 -0.5
vt 0.375 -0.5
vt 0.375 -0.5
vt 0.375 -0.5
vt 0.375 -0.5
vt 0.015625 -0.90625
vt 0.328125 -0.9375
vt 0.1875 -0.8125
vt 0.328125 -0.6875
vt 0.03125 -0.46875
vt 0.0625 -0.5625
vt 0.375 -0.5
vt 0.375 -0.5
vt 0.375 -0.5
vt 0.375 -0.5
vt 0.375 -0.5
vt 0.375 -0.5
vt 0.1875 -0.8125
vt 0.015625 -0.90625
vt 0.0625 -0.5625
f 76/76/76 77/77/77 78/78/78
f 79/79/79 80/80/80 81/81/81
f 82/82/82 83/83/83 84/84/84
f 85/85/85 86/86/86 87/87/87
f 88/88/88 89/89/89 90/90/90
f 91/91/91 92/92/92 93/93/93
f 94/94/94 95/95/95 96/96/96
