# Created by MKDS Course Modifier
mtllib 20.mtl
g polygon0
usemtl e
v 0.4907227 0.359375 0.625
v 0.5063477 0 0.71875
v 1.037598 0 0.5625
v 0.4907227 -0.359375 0.625
v 0.9282227 -0.53125 0.34375
v 0.4438477 -0.625 0.375
vn -0.08203125 0.4511719 0.8886719
vn -0.07226563 0 0.9980469
vn 0.34375 0 0.9394531
vn -0.08203125 -0.4511719 0.8886719
vn 0.2617188 -0.7128906 0.6503906
vn -0.2324219 -0.8632813 0.4492188
vt 0.21875 -1
vt 0.5 -1
vt 0.5 0
vt 0.78125 -1
vt 0.9375 -0.0625
vt 1.0625 -1
f 1/1/1 2/2/2 3/3/3
f 2/2/2 4/4/4 3/3/3
f 3/3/3 4/4/4 5/5/5
f 4/4/4 6/6/6 5/5/5
v 0.4438477 0.625 0.375
v 0.4907227 0.359375 0.625
v 0.9282227 0.53125 0.34375
v 1.037598 0 0.5625
vn -0.2324219 0.8632813 0.4492188
vn -0.08203125 0.4511719 0.8886719
vn -0.2753906 0.4570313 0.8457031
vn 0.34375 0 0.9394531
vt -0.0625 -1
vt 0.21875 -1
vt 0.0625 -0.0625
vt 0.5 0
f 7/7/7 8/8/8 9/9/9
f 8/8/8 10/10/10 9/9/9
g polygon1
usemtl m
v 0.4438477 -0.625 0.375
v 0.1625977 -0.390625 0.421875
v 0.2563477 -0.59375 -0.125
v 0.06884766 -0.375 -0.125
v 0.1157227 -0.3125 -0.484375
v 0.006347656 0 0.03125
v 0.1157227 0.3125 -0.484375
v 0.06884766 0.375 -0.125
v 0.2563477 0.59375 -0.125
v 0.1625977 0.390625 0.421875
v 0.4438477 0.625 0.375
vn -0.2324219 -0.8632813 0.4492188
vn -0.765625 -0.4882813 0.4179688
vn -0.5351563 -0.8378906 -0.1074219
vn -0.90625 -0.4238281 -0.02148438
vn -0.7929688 -0.3496094 -0.4980469
vn -0.9980469 0 0.05664063
vn -0.7929688 0.3496094 -0.4980469
vn -0.90625 0.4238281 -0.02148438
vn -0.5351563 0.8378906 -0.1074219
vn -0.765625 0.4882813 0.4179688
vn -0.2324219 0.8632813 0.4492188
vt 0.5 -0.9375
vt 0.5 -0.9375
vt 0.5 -0.9375
vt 0.5 -0.9375
vt 0.5 -0.9375
vt 0.5 -0.9375
vt 0.5 -0.9375
vt 0.5 -0.9375
vt 0.5 -0.9375
vt 0.5 -0.9375
vt 0.5 -0.9375
f 11/11/11 12/12/12 13/13/13
f 12/12/12 14/14/14 13/13/13
f 13/13/13 14/14/14 15/15/15
f 14/14/14 16/16/16 15/15/15
f 15/15/15 16/16/16 17/17/17
f 16/16/16 18/18/18 17/17/17
f 17/17/17 18/18/18 19/19/19
f 18/18/18 20/20/20 19/19/19
f 19/19/19 20/20/20 21/21/21
v 0.4907227 -0.359375 0.625
v 0.5063477 0 0.71875
v 0.1625977 0 0.5625
v 0.4907227 0.359375 0.625
v 0.1625977 0.390625 0.421875
v 0.4438477 0.625 0.375
vn -0.08203125 -0.4511719 0.8886719
vn -0.07226563 0 0.9980469
vn -0.6777344 0 0.734375
vn -0.08203125 0.4511719 0.8886719
vn -0.765625 0.4882813 0.4179688
vn -0.2324219 0.8632813 0.4492188
vt 0.765625 0
vt 0.5 0
vt 0.5 -0.59375
vt 0.234375 0
vt 0 -0.59375
vt 0 0
f 22/22/22 23/23/23 24/24/24
f 23/23/23 25/25/25 24/24/24
f 24/24/24 25/25/25 26/26/26
f 25/25/25 27/27/27 26/26/26
v 0.06884766 -0.375 -0.125
v 0.1625977 -0.390625 0.421875
v 0.006347656 0 0.03125
v 0.1625977 0 0.5625
v 0.1625977 0.390625 0.421875
vn -0.90625 -0.4238281 -0.02148438
vn -0.765625 -0.4882813 0.4179688
vn -0.9980469 0 0.05664063
vn -0.6777344 0 0.734375
vn -0.765625 0.4882813 0.4179688
vt 0.5 -0.9375
vt 0.5 -0.9375
vt 0.5 -0.9375
vt 0.5 -0.59375
vt 0.5 -0.9375
f 28/28/28 29/29/29 30/30/30
f 29/29/29 31/31/31 30/30/30
f 30/30/30 31/31/31 32/32/32
v 0.4438477 -0.625 0.375
v 0.4907227 -0.359375 0.625
v 0.1625977 -0.390625 0.421875
v 0.1625977 0 0.5625
vn -0.2324219 -0.8632813 0.4492188
vn -0.08203125 -0.4511719 0.8886719
vn -0.765625 -0.4882813 0.4179688
vn -0.6777344 0 0.734375
vt 1 0
vt 0.765625 0
vt 1 -0.59375
vt 0.5 -0.59375
f 33/33/33 34/34/34 35/35/35
f 34/34/34 36/36/36 35/35/35
v 0.006347656 0 0.03125
v 0.1625977 0.390625 0.421875
v 0.06884766 0.375 -0.125
vn -0.9980469 0 0.05664063
vn -0.765625 0.4882813 0.4179688
vn -0.90625 0.4238281 -0.02148438
vt 0.5 -0.9375
vt 0.5 -0.9375
vt 0.5 -0.9375
f 37/37/37 38/38/38 39/39/39
g polygon2
usemtl hair
v 0.6938477 -0.71875 -0.15625
v 0.2563477 -0.59375 -0.125
v 0.5063477 -0.484375 -0.59375
v 0.1157227 -0.3125 -0.484375
v 0.4438477 0 -0.75
v 0.1157227 0.3125 -0.484375
vn -0.2832031 -0.9296875 -0.2382813
vn -0.5351563 -0.8378906 -0.1074219
vn -0.3984375 -0.7070313 -0.5839844
vn -0.7929688 -0.3496094 -0.4980469
vn -0.4882813 0 -0.8730469
vn -0.7929688 0.3496094 -0.4980469
vt 0.125 -0.34375
vt 0.171875 -0.46875
vt 0.3125 -0.359375
vt 0.375 -0.46875
vt 0.5 -0.375
vt 0.625 -0.46875
f 40/40/40 41/41/41 42/42/42
f 41/41/41 43/43/43 42/42/42
f 42/42/42 43/43/43 44/44/44
f 43/43/43 45/45/45 44/44/44
v 0.4438477 0.625 0.375
v 0.5375977 0.703125 0.09375
v 0.2563477 0.59375 -0.125
v 0.6938477 0.71875 -0.15625
v 0.5063477 0.484375 -0.59375
vn -0.2324219 0.8632813 0.4492188
vn -0.4492188 0.8671875 0.2109375
vn -0.5351563 0.8378906 -0.1074219
vn -0.2832031 0.9296875 -0.2382813
vn -0.3984375 0.7070313 -0.5839844
vt -0.1875 -0.4375
vt 0.03125 -0.4140625
vt 0.171875 -0.46875
vt 0.125 -0.34375
vt 0.3125 -0.359375
f 46/46/46 47/47/47 48/48/48
f 47/47/47 49/49/49 48/48/48
f 48/48/48 49/49/49 50/50/50
v 0.6938477 0.71875 -0.15625
v 0.625 0.875 -0.3125
v 0.9282227 0.53125 0.34375
v 0.90625 0.625 0.4375
v 1 0.1875 0.6875
vn 0.8984375 -0.04101563 -0.4375
vn 0.5644531 0.7753906 -0.2832031
vn 0.9667969 0.2011719 -0.1621094
vn 0.7539063 0.6152344 0.2304688
vn 0.890625 0.3515625 0.2871094
vt 0.5 -0.15625
vt 0.5 -0.15625
vt 0.75 -0.15625
vt 0.75 -0.15625
vt 1 -0.15625
f 51/51/51 52/52/52 53/53/53
f 52/52/52 54/54/54 53/53/53
f 53/53/53 54/54/54 55/55/55
v 1 0.1875 0.6875
v 0.75 0.65625 0.5
v 1.037598 0 0.5625
v 0.9282227 0.53125 0.34375
vn -0.8886719 -0.3632813 0.2773438
vn -0.7949219 -0.6054688 -0.04492188
vn -0.9003906 -0.4082031 -0.1484375
vn -0.2753906 0.4570313 0.8457031
vt 0.25 -0.140625
vt 0.5 -0.1640625
vt 0.25 -0.25
vt 0.5 -0.25
f 56/56/56 57/57/57 58/58/58
f 57/57/57 59/59/59 58/58/58
v 0.5375977 0.703125 0.09375
v 0.75 0.65625 0.5
v 0.625 0.875 -0.3125
v 0.90625 0.625 0.4375
vn -0.9707031 0.2011719 -0.125
vn 0.1152344 0.875 0.4707031
vn 0.5644531 0.7753906 -0.2832031
vn 0.7539063 0.6152344 0.2304688
vt 0.125 -0.0625
vt 0.125 -0.0625
vt 0.125 -0.0625
vt 0.125 -0.0625
f 60/60/60 61/61/61 62/62/62
f 61/61/61 63/63/63 62/62/62
v 0.90625 -0.625 0.4375
v 0.9282227 -0.53125 0.34375
v 1 -0.1875 0.6875
v 1.037598 0 0.5625
vn 0.7539063 -0.6152344 0.2304688
vn 0.9667969 -0.2011719 -0.1621094
vn 0.890625 -0.3515625 0.2871094
vn 0.9804688 -0.1992188 -0.005859375
vt 0.75 -0.15625
vt 0.75 -0.15625
vt 1 -0.15625
vt 1 -0.15625
f 64/64/64 65/65/65 66/66/66
f 65/65/65 67/67/67 66/66/66
v 0.5375977 -0.703125 0.09375
v 0.75 -0.65625 0.5
v 0.9282227 -0.53125 0.34375
v 1.037598 0 0.5625
vn -0.4765625 0.8671875 0.1503906
vn -0.7949219 0.6054688 -0.04492188
vn -0.6835938 0.6953125 -0.2226563
vn -0.9003906 0.4082031 -0.1484375
vt 0.625 -0.1953125
vt 0.5 -0.1640625
vt 0.5 -0.25
vt 0.25 -0.25
f 68/68/68 69/69/69 70/70/70
f 69/69/69 71/71/71 70/70/70
v 0.4438477 -0.625 0.375
v 0.2563477 -0.59375 -0.125
v 0.5375977 -0.703125 0.09375
v 0.6938477 -0.71875 -0.15625
vn -0.2324219 -0.8632813 0.4492188
vn -0.5351563 -0.8378906 -0.1074219
vn -0.1796875 -0.9765625 0.1113281
vn -0.2832031 -0.9296875 -0.2382813
vt -0.1875 -0.4375
vt 0.171875 -0.46875
vt 0.03125 -0.4140625
vt 0.125 -0.34375
f 72/72/72 73/73/73 74/74/74
f 73/73/73 75/75/75 74/74/74
v 0.6938477 -0.71875 -0.15625
v 0.9282227 -0.53125 0.34375
v 0.625 -0.875 -0.3125
v 0.90625 -0.625 0.4375
vn 0.8984375 0.04101563 -0.4375
vn 0.9667969 -0.2011719 -0.1621094
vn 0.5644531 -0.7753906 -0.2832031
vn 0.7539063 -0.6152344 0.2304688
vt 0.5 -0.15625
vt 0.75 -0.15625
vt 0.5 -0.15625
vt 0.75 -0.15625
f 76/76/76 77/77/77 78/78/78
f 77/77/77 79/79/79 78/78/78
v 1 -0.1875 0.6875
v 0.75 -0.65625 0.5
v 0.90625 -0.625 0.4375
v 0.625 -0.875 -0.3125
vn 0.890625 -0.3515625 0.2871094
vn 0.1152344 -0.875 0.4707031
vn 0.7539063 -0.6152344 0.2304688
vn 0.5644531 -0.7753906 -0.2832031
vt 0.125 -0.0625
vt 0.125 -0.0625
vt 0.125 -0.0625
vt 0.125 -0.0625
f 80/80/80 81/81/81 82/82/82
f 81/81/81 83/83/83 82/82/82
v 0.4438477 0 -0.75
v 0.1157227 0.3125 -0.484375
v 0.5063477 0.484375 -0.59375
v 0.2563477 0.59375 -0.125
vn -0.4882813 0 -0.8730469
vn -0.7929688 0.3496094 -0.4980469
vn -0.3984375 0.7070313 -0.5839844
vn -0.5351563 0.8378906 -0.1074219
vt 0.5 -0.375
vt 0.375 -0.46875
vt 0.3125 -0.359375
vt 0.171875 -0.46875
f 84/84/84 85/85/85 86/86/86
f 85/85/85 87/87/87 86/86/86
v 0.5375977 -0.703125 0.09375
v 0.9282227 -0.53125 0.34375
v 0.4438477 -0.625 0.375
v 0.625 -0.875 -0.3125
v 0.5375977 -0.703125 0.09375
v 0.6938477 -0.71875 -0.15625
v 0.5375977 0.703125 0.09375
v 0.625 0.875 -0.3125
v 0.6938477 0.71875 -0.15625
v 0.5375977 -0.703125 0.09375
v 0.625 -0.875 -0.3125
v 0.75 -0.65625 0.5
v 0.9282227 0.53125 0.34375
v 1 0.1875 0.6875
v 1.037598 0 0.5625
v 0.75 -0.65625 0.5
v 1 -0.1875 0.6875
v 1.037598 0 0.5625
v 0.5375977 0.703125 0.09375
v 0.4438477 0.625 0.375
v 0.9282227 0.53125 0.34375
v 0.75 0.65625 0.5
v 1 0.1875 0.6875
v 0.90625 0.625 0.4375
v 0.75 0.65625 0.5
v 0.5375977 0.703125 0.09375
v 0.9282227 0.53125 0.34375
vn -0.1796875 -0.9765625 0.1113281
vn 0.2617188 -0.7128906 0.6503906
vn -0.2324219 -0.8632813 0.4492188
vn 0.5644531 -0.7753906 -0.2832031
vn -0.9707031 -0.2011719 -0.125
vn -0.5996094 0.6816406 -0.4179688
vn -0.9707031 0.2011719 -0.125
vn 0.5644531 0.7753906 -0.2832031
vn -0.5996094 -0.6816406 -0.4179688
vn -0.9707031 -0.2011719 -0.125
vn 0.5644531 -0.7753906 -0.2832031
vn 0.1152344 -0.875 0.4707031
vn 0.9667969 0.2011719 -0.1621094
vn 0.890625 0.3515625 0.2871094
vn 0.9804688 0.1992188 -0.005859375
vn -0.7949219 0.6054688 -0.04492188
vn -0.8886719 0.3632813 0.2773438
vn -0.9003906 0.4082031 -0.1484375
vn -0.4492188 0.8671875 0.2109375
vn -0.2324219 0.8632813 0.4492188
vn -0.2753906 0.4570313 0.8457031
vn 0.1152344 0.875 0.4707031
vn 0.890625 0.3515625 0.2871094
vn 0.7539063 0.6152344 0.2304688
vn -0.7949219 -0.6054688 -0.04492188
vn -0.4492188 0.8671875 0.2109375
vn -0.2753906 0.4570313 0.8457031
vt 0.015625 -0.40625
vt -0.015625 -0.25
vt 0 -0.40625
vt 0.5 -0.25
vt 0.4375 -0.15625
vt 0.375 -0.25
vt 0.4375 -0.15625
vt 0.5 -0.25
vt 0.375 -0.25
vt 0.125 -0.0625
vt 0.125 -0.0625
vt 0.125 -0.0625
vt 0.75 -0.15625
vt 1 -0.15625
vt 1 -0.15625
vt 0.5 -0.1640625
vt 0.25 -0.140625
vt 0.25 -0.25
vt 0.015625 -0.40625
vt 0 -0.40625
vt -0.015625 -0.25
vt 0.125 -0.0625
vt 0.125 -0.0625
vt 0.125 -0.0625
vt 0.5 -0.1640625
vt 0.625 -0.1953125
vt 0.5 -0.25
f 88/88/88 89/89/89 90/90/90
f 91/91/91 92/92/92 93/93/93
f 94/94/94 95/95/95 96/96/96
f 97/97/97 98/98/98 99/99/99
f 100/100/100 101/101/101 102/102/102
f 103/103/103 104/104/104 105/105/105
f 106/106/106 107/107/107 108/108/108
f 109/109/109 110/110/110 111/111/111
f 112/112/112 113/113/113 114/114/114
