# Created by MKDS Course Modifier
mtllib 4.mtl
g polygon0
usemtl e
v 0.4907227 0.359375 0.625
v 0.5063477 0 0.71875
v 1.037598 0 0.5625
v 0.4907227 -0.359375 0.625
v 0.9282227 -0.53125 0.34375
v 0.4438477 -0.625 0.375
vn -0.08203125 0.4511719 0.8886719
vn -0.07226563 0 0.9980469
vn 0.4472656 0 0.8945313
vn -0.08203125 -0.4511719 0.8886719
vn 0.34375 -0.7246094 0.5976563
vn -0.2324219 -0.8632813 0.4492188
vt 0.21875 -1
vt 0.5 -1
vt 0.5 0
vt 0.78125 -1
vt 0.9375 -0.0625
vt 1.0625 -1
f 1/1/1 2/2/2 3/3/3
f 2/2/2 4/4/4 3/3/3
f 3/3/3 4/4/4 5/5/5
f 4/4/4 6/6/6 5/5/5
v 0.4438477 0.625 0.375
v 0.4907227 0.359375 0.625
v 0.9282227 0.53125 0.34375
v 1.037598 0 0.5625
vn -0.2324219 0.8632813 0.4492188
vn -0.08203125 0.4511719 0.8886719
vn 0.34375 0.7246094 0.5976563
vn 0.4472656 0 0.8945313
vt -0.0625 -1
vt 0.21875 -1
vt 0.0625 -0.0625
vt 0.5 0
f 7/7/7 8/8/8 9/9/9
f 8/8/8 10/10/10 9/9/9
g polygon1
usemtl m
v 0.4438477 -0.625 0.375
v 0.1625977 -0.390625 0.421875
v 0.2563477 -0.59375 -0.125
v 0.06884766 -0.375 -0.125
v 0.1157227 -0.3125 -0.484375
v 0.006347656 0 0.03125
v 0.1157227 0.3125 -0.484375
v 0.06884766 0.375 -0.125
v 0.2563477 0.59375 -0.125
v 0.1625977 0.390625 0.421875
v 0.4438477 0.625 0.375
vn -0.2324219 -0.8632813 0.4492188
vn -0.765625 -0.4882813 0.4179688
vn -0.5351563 -0.8378906 -0.1074219
vn -0.90625 -0.4238281 -0.02148438
vn -0.7929688 -0.3496094 -0.4980469
vn -0.9980469 0 0.05664063
vn -0.7929688 0.3496094 -0.4980469
vn -0.90625 0.4238281 -0.02148438
vn -0.5351563 0.8378906 -0.1074219
vn -0.765625 0.4882813 0.4179688
vn -0.2324219 0.8632813 0.4492188
vt 0 -0.875
vt 0 -0.875
vt 0 -0.875
vt 0 -0.875
vt 0 -0.875
vt 0 -0.875
vt 0 -0.875
vt 0 -0.875
vt 0 -0.875
vt 0 -0.875
vt 0 -0.875
f 11/11/11 12/12/12 13/13/13
f 12/12/12 14/14/14 13/13/13
f 13/13/13 14/14/14 15/15/15
f 14/14/14 16/16/16 15/15/15
f 15/15/15 16/16/16 17/17/17
f 16/16/16 18/18/18 17/17/17
f 17/17/17 18/18/18 19/19/19
f 18/18/18 20/20/20 19/19/19
f 19/19/19 20/20/20 21/21/21
v 0.4907227 -0.359375 0.625
v 0.5063477 0 0.71875
v 0.1625977 0 0.5625
v 0.4907227 0.359375 0.625
v 0.1625977 0.390625 0.421875
v 0.4438477 0.625 0.375
vn -0.08203125 -0.4511719 0.8886719
vn -0.07226563 0 0.9980469
vn -0.6777344 0 0.734375
vn -0.08203125 0.4511719 0.8886719
vn -0.765625 0.4882813 0.4179688
vn -0.2324219 0.8632813 0.4492188
vt 0.765625 0
vt 0.5 0
vt 0.5 -0.59375
vt 0.234375 0
vt 0 -0.59375
vt 0 0
f 22/22/22 23/23/23 24/24/24
f 23/23/23 25/25/25 24/24/24
f 24/24/24 25/25/25 26/26/26
f 25/25/25 27/27/27 26/26/26
v 0.06884766 -0.375 -0.125
v 0.1625977 -0.390625 0.421875
v 0.006347656 0 0.03125
v 0.1625977 0 0.5625
v 0.1625977 0.390625 0.421875
vn -0.90625 -0.4238281 -0.02148438
vn -0.765625 -0.4882813 0.4179688
vn -0.9980469 0 0.05664063
vn -0.6777344 0 0.734375
vn -0.765625 0.4882813 0.4179688
vt 0 -0.875
vt 0 -0.875
vt 0 -0.875
vt 0 -0.875
vt 0 -0.875
f 28/28/28 29/29/29 30/30/30
f 29/29/29 31/31/31 30/30/30
f 30/30/30 31/31/31 32/32/32
v 0.4438477 -0.625 0.375
v 0.4907227 -0.359375 0.625
v 0.1625977 -0.390625 0.421875
v 0.1625977 0 0.5625
vn -0.2324219 -0.8632813 0.4492188
vn -0.08203125 -0.4511719 0.8886719
vn -0.765625 -0.4882813 0.4179688
vn -0.6777344 0 0.734375
vt 1 0
vt 0.765625 0
vt 1 -0.59375
vt 0.5 -0.59375
f 33/33/33 34/34/34 35/35/35
f 34/34/34 36/36/36 35/35/35
v 0.006347656 0 0.03125
v 0.1625977 0.390625 0.421875
v 0.06884766 0.375 -0.125
vn -0.9980469 0 0.05664063
vn -0.765625 0.4882813 0.4179688
vn -0.90625 0.4238281 -0.02148438
vt 0 -0.875
vt 0 -0.875
vt 0 -0.875
f 37/37/37 38/38/38 39/39/39
g polygon2
usemtl hair
v 0.65625 -0.78125 0.0625
v 0.75 -0.875 -0.3125
v 1.15625 -0.625 0.25
v 0.9750977 -0.65625 -0.1875
v 1.25 -0.46875 -0.25
v 0.8657227 -0.5 -0.59375
v 1.15625 0 -0.5625
v 0.8188477 0 -0.796875
v 0.8657227 0.5 -0.59375
v 0.5063477 0.484375 -0.59375
v 0.6938477 0.71875 -0.15625
vn 0.1699219 -0.9296875 0.3242188
vn -0.1835938 -0.7402344 -0.6464844
vn 0.4589844 -0.8828125 0.1074219
vn 0.4609375 -0.6972656 -0.5488281
vn 0.7890625 -0.5078125 -0.34375
vn 0.3222656 -0.6582031 -0.6796875
vn 0.78125 0 -0.6230469
vn 0.1542969 0 -0.9882813
vn 0.3222656 0.6582031 -0.6796875
vn -0.2363281 0.6503906 -0.7226563
vn -0.2128906 0.9160156 -0.3417969
vt 0.25 -0.1484375
vt 0.25 -0.1484375
vt 0.25 -0.1484375
vt 0.25 -0.1484375
vt 0.25 -0.1484375
vt 0.25 -0.1484375
vt 0.25 -0.1484375
vt 0.25 -0.1484375
vt 0.25 -0.1484375
vt 0.25 -0.1484375
vt 0.25 -0.1484375
f 40/40/40 41/41/41 42/42/42
f 41/41/41 43/43/43 42/42/42
f 42/42/42 43/43/43 44/44/44
f 43/43/43 45/45/45 44/44/44
f 44/44/44 45/45/45 46/46/46
f 45/45/45 47/47/47 46/46/46
f 46/46/46 47/47/47 48/48/48
f 47/47/47 49/49/49 48/48/48
f 48/48/48 49/49/49 50/50/50
v 0.65625 -0.78125 0.0625
v 1.15625 -0.625 0.25
v 0.8125 -0.59375 0.46875
v 1.375 -0.4375 0.5
v 1.0625 -0.1875 0.6875
v 1.46875 -0.125 0.4375
v 1.1875 0 0.4375
v 1.28125 0 -0.0625
vn 0.1699219 -0.9296875 0.3242188
vn 0.4589844 -0.8828125 0.1074219
vn 0.1601563 -0.796875 0.5820313
vn 0.6289063 -0.6035156 0.4902344
vn 0.3613281 0.0703125 0.9296875
vn 0.8730469 0.4140625 0.2539063
vn 0.3730469 0.8417969 0.390625
vn 0.5761719 0.8164063 -0.01171875
vt 0.25 -0.1640625
vt 0.25 -0.1484375
vt 0.25 -0.1875
vt 0.25 -0.1484375
vt 0.25 -0.203125
vt 0.25 -0.1796875
vt 0.25 -0.2421875
vt 0.25 -0.2265625
f 51/51/51 52/52/52 53/53/53
f 52/52/52 54/54/54 53/53/53
f 53/53/53 54/54/54 55/55/55
f 54/54/54 56/56/56 55/55/55
f 55/55/55 56/56/56 57/57/57
f 56/56/56 58/58/58 57/57/57
v 0.65625 -0.78125 0.0625
v 0.5375977 -0.703125 0.09375
v 0.6938477 -0.71875 -0.15625
v 0.2563477 -0.59375 -0.125
v 0.5063477 -0.484375 -0.59375
v 0.1157227 -0.3125 -0.484375
v 0.4438477 0 -0.75
v 0.1157227 0.3125 -0.484375
vn -0.3828125 -0.78125 0.4941406
vn -0.1503906 -0.9589844 0.2402344
vn -0.2128906 -0.9160156 -0.3417969
vn -0.5351563 -0.8378906 -0.1074219
vn -0.2363281 -0.6503906 -0.7226563
vn -0.7929688 -0.3496094 -0.4980469
vn -0.3496094 0 -0.9375
vn -0.7929688 0.3496094 -0.4980469
vt 0.03125 -0.34375
vt 0.03125 -0.4140625
vt 0.125 -0.34375
vt 0.171875 -0.46875
vt 0.3125 -0.359375
vt 0.375 -0.46875
vt 0.5 -0.375
vt 0.625 -0.46875
f 59/59/59 60/60/60 61/61/61
f 60/60/60 62/62/62 61/61/61
f 61/61/61 62/62/62 63/63/63
f 62/62/62 64/64/64 63/63/63
f 63/63/63 64/64/64 65/65/65
f 64/64/64 66/66/66 65/65/65
v 0.4438477 0 -0.75
v 0.1157227 0.3125 -0.484375
v 0.5063477 0.484375 -0.59375
v 0.2563477 0.59375 -0.125
v 0.6938477 0.71875 -0.15625
v 0.5375977 0.703125 0.09375
v 0.65625 0.78125 0.0625
vn -0.3496094 0 -0.9375
vn -0.7929688 0.3496094 -0.4980469
vn -0.2363281 0.6503906 -0.7226563
vn -0.5351563 0.8378906 -0.1074219
vn -0.2128906 0.9160156 -0.3417969
vn -0.1503906 0.9589844 0.2402344
vn -0.3828125 0.78125 0.4941406
vt 0.5 -0.375
vt 0.375 -0.46875
vt 0.3125 -0.359375
vt 0.171875 -0.46875
vt 0.125 -0.34375
vt 0.03125 -0.4140625
vt 0.03125 -0.34375
f 67/67/67 68/68/68 69/69/69
f 68/68/68 70/70/70 69/69/69
f 69/69/69 70/70/70 71/71/71
f 70/70/70 72/72/72 71/71/71
f 71/71/71 72/72/72 73/73/73
v 1.1875 0 0.4375
v 1.46875 0.125 0.4375
v 1.0625 0.1875 0.6875
v 1.375 0.4375 0.5
v 0.8125 0.59375 0.46875
v 1.15625 0.625 0.25
v 0.65625 0.78125 0.0625
vn 0.3730469 -0.8417969 0.390625
vn 0.8730469 -0.4140625 0.2539063
vn 0.3613281 -0.0703125 0.9296875
vn 0.6289063 0.6035156 0.4902344
vn 0.1601563 0.796875 0.5820313
vn 0.4589844 0.8828125 0.1074219
vn 0.1699219 0.9296875 0.3242188
vt 0.25 -0.2421875
vt 0.25 -0.1796875
vt 0.25 -0.203125
vt 0.25 -0.1484375
vt 0.25 -0.1875
vt 0.25 -0.1484375
vt 0.25 -0.1640625
f 74/74/74 75/75/75 76/76/76
f 75/75/75 77/77/77 76/76/76
f 76/76/76 77/77/77 78/78/78
f 77/77/77 79/79/79 78/78/78
f 78/78/78 79/79/79 80/80/80
v 0.65625 0.78125 0.0625
v 0.8110352 0.625 0.09375
v 0.8125 0.59375 0.46875
v 0.9282227 0.53125 0.34375
v 1.0625 0.1875 0.6875
v 1.1875 0 0.4375
vn -0.703125 -0.7089844 -0.05664063
vn -0.6210938 -0.78125 -0.0625
vn -0.6582031 -0.7363281 -0.1582031
vn -0.7304688 -0.6601563 -0.1777344
vn -0.8085938 -0.5429688 -0.2265625
vn -0.8867188 -0.4511719 -0.1054688
vt 0.25 -0.2421875
vt 0.25 -0.2421875
vt 0.25 -0.2421875
vt 0.25 -0.2421875
vt 0.25 -0.2421875
vt 0.25 -0.2421875
f 81/81/81 82/82/82 83/83/83
f 82/82/82 84/84/84 83/83/83
f 83/83/83 84/84/84 85/85/85
f 84/84/84 86/86/86 85/85/85
v 0.6938477 0.71875 -0.15625
v 0.9750977 0.65625 -0.1875
v 0.8657227 0.5 -0.59375
v 1.25 0.46875 -0.25
v 1.15625 0 -0.5625
v 1.3125 0.0625 -0.265625
vn -0.2128906 0.9160156 -0.3417969
vn 0.4609375 0.6972656 -0.5488281
vn 0.3222656 0.6582031 -0.6796875
vn 0.7890625 0.5078125 -0.34375
vn 0.78125 0 -0.6230469
vn 0.9023438 -0.3339844 -0.2753906
vt 0.25 -0.1484375
vt 0.25 -0.1484375
vt 0.25 -0.1484375
vt 0.25 -0.1484375
vt 0.25 -0.1484375
vt 0.25 -0.1484375
f 87/87/87 88/88/88 89/89/89
f 88/88/88 90/90/90 89/89/89
f 89/89/89 90/90/90 91/91/91
f 90/90/90 92/92/92 91/91/91
v 0.5219727 0.90625 0
v 0.6782227 0.8125 0
v 0.5063477 0.796875 -0.125
v 0.4438477 0.015625 0
v 0.3344727 0.78125 0
vn -0.03515625 0.7539063 -0.65625
vn 0.5488281 0.2734375 -0.7890625
vn -0.01953125 0.3691406 -0.9296875
vn 0.005859375 -0.1582031 -0.9882813
vn -0.5742188 0.3359375 -0.7460938
vt 0 -0.4375
vt 0 -0.4375
vt 0 -0.4375
vt 0 -0.4375
vt 0 -0.4375
f 93/93/93 94/94/94 95/95/95
f 94/94/94 96/96/96 95/95/95
f 95/95/95 96/96/96 97/97/97
v 0.6782227 -0.8125 0
v 0.5219727 -0.90625 0
v 0.5063477 -0.796875 -0.125
v 0.3344727 -0.78125 0
v 0.4438477 -0.015625 0
vn 0.5488281 -0.2734375 -0.7890625
vn -0.03515625 -0.7539063 -0.65625
vn -0.01953125 -0.3691406 -0.9296875
vn -0.5742188 -0.3359375 -0.7460938
vn 0.005859375 0.1582031 -0.9882813
vt 0 -0.4375
vt 0 -0.4375
vt 0 -0.4375
vt 0 -0.4375
vt 0 -0.4375
f 98/98/98 99/99/99 100/100/100
f 99/99/99 101/101/101 100/100/100
f 100/100/100 101/101/101 102/102/102
v 1.375 0.4375 0.5
v 1.25 0.46875 -0.25
v 1.15625 0.625 0.25
v 0.9750977 0.65625 -0.1875
v 0.75 0.875 -0.3125
vn 0.6289063 0.6035156 0.4902344
vn 0.7890625 0.5078125 -0.34375
vn 0.4589844 0.8828125 0.1074219
vn 0.4609375 0.6972656 -0.5488281
vn -0.1835938 0.7402344 -0.6464844
vt 0.25 -0.1484375
vt 0.25 -0.1484375
vt 0.25 -0.1484375
vt 0.25 -0.1484375
vt 0.25 -0.1484375
f 103/103/103 104/104/104 105/105/105
f 104/104/104 106/106/106 105/105/105
f 105/105/105 106/106/106 107/107/107
v 0.8110352 -0.625 0.09375
v 0.8125 -0.59375 0.46875
v 0.9282227 -0.53125 0.34375
v 1.0625 -0.1875 0.6875
v 1.1875 0 0.4375
vn -0.5351563 0.8378906 -0.1074219
vn -0.6308594 0.7460938 -0.2109375
vn -0.7304688 0.6601563 -0.1777344
vn -0.8085938 0.5429688 -0.2265625
vn -0.8867188 0.4511719 -0.1054688
vt 0.25 -0.2421875
vt 0.25 -0.2421875
vt 0.25 -0.2421875
vt 0.25 -0.2421875
vt 0.25 -0.2421875
f 108/108/108 109/109/109 110/110/110
f 109/109/109 111/111/111 110/110/110
f 110/110/110 111/111/111 112/112/112
v 0.9750977 -0.65625 -0.1875
v 0.6938477 -0.71875 -0.15625
v 0.8657227 -0.5 -0.59375
v 0.5063477 -0.484375 -0.59375
v 0.8188477 0 -0.796875
vn 0.4609375 -0.6972656 -0.5488281
vn -0.2128906 -0.9160156 -0.3417969
vn 0.3222656 -0.6582031 -0.6796875
vn -0.2363281 -0.6503906 -0.7226563
vn 0.1542969 0 -0.9882813
vt 0.25 -0.1484375
vt 0.25 -0.1484375
vt 0.25 -0.1484375
vt 0.25 -0.1484375
vt 0.25 -0.1484375
f 113/113/113 114/114/114 115/115/115
f 114/114/114 116/116/116 115/115/115
f 115/115/115 116/116/116 117/117/117
v 1.15625 0 -0.5625
v 1.3125 -0.0625 -0.265625
v 1.25 -0.46875 -0.25
v 1.46875 -0.125 0.4375
v 1.375 -0.4375 0.5
vn 0.78125 0 -0.6230469
vn 0.9023438 0.3339844 -0.2753906
vn 0.7890625 -0.5078125 -0.34375
vn 0.8730469 0.4140625 0.2539063
vn 0.6289063 -0.6035156 0.4902344
vt 0.25 -0.1484375
vt 0.25 -0.1484375
vt 0.25 -0.1484375
vt 0.25 -0.1484375
vt 0.25 -0.1484375
f 118/118/118 119/119/119 120/120/120
f 119/119/119 121/121/121 120/120/120
f 120/120/120 121/121/121 122/122/122
v 0.6782227 0.8125 0
v 0.5219727 0.90625 0
v 0.4438477 0.015625 0
v 0.3344727 0.78125 0
vn 0 0 0.9980469
vn 0 0 0.9980469
vn 0 0 0.9980469
vn 0 0 0.9980469
vt 0 -0.4375
vt 0 -0.4375
vt 0 -0.4375
vt 0 -0.4375
f 123/123/123 124/124/124 125/125/125
f 124/124/124 126/126/126 125/125/125
v 0.9282227 0.53125 0.34375
v 0.5375977 0.703125 0.09375
v 0.4438477 0.625 0.375
v 0.2563477 0.59375 -0.125
vn 0.34375 0.7246094 0.5976563
vn -0.1503906 0.9589844 0.2402344
vn -0.2324219 0.8632813 0.4492188
vn -0.5351563 0.8378906 -0.1074219
vt 0 -0.4375
vt 0 -0.4375
vt 0 -0.4375
vt 0 -0.4375
f 127/127/127 128/128/128 129/129/129
f 128/128/128 130/130/130 129/129/129
v 1.3125 0.0625 -0.265625
v 1.46875 0.125 0.4375
v 1.28125 0 -0.0625
v 1.1875 0 0.4375
vn 0.9023438 -0.3339844 -0.2753906
vn 0.8730469 -0.4140625 0.2539063
vn 0.5761719 -0.8164063 -0.01171875
vn 0.3730469 -0.8417969 0.390625
vt 0.25 -0.1953125
vt 0.25 -0.1796875
vt 0.25 -0.2265625
vt 0.25 -0.2421875
f 131/131/131 132/132/132 133/133/133
f 132/132/132 134/134/134 133/133/133
v 1.3125 0.0625 -0.265625
v 1.25 0.46875 -0.25
v 1.46875 0.125 0.4375
v 1.375 0.4375 0.5
vn 0.9023438 -0.3339844 -0.2753906
vn 0.7890625 0.5078125 -0.34375
vn 0.8730469 -0.4140625 0.2539063
vn 0.6289063 0.6035156 0.4902344
vt 0.25 -0.1484375
vt 0.25 -0.1484375
vt 0.25 -0.1484375
vt 0.25 -0.1484375
f 135/135/135 136/136/136 137/137/137
f 136/136/136 138/138/138 137/137/137
v 0.6782227 -0.8125 0
v 0.4438477 -0.015625 0
v 0.5219727 -0.90625 0
v 0.3344727 -0.78125 0
vn 0 0 0.9980469
vn 0 0 0.9980469
vn 0 0 0.9980469
vn 0 0 0.9980469
vt 0 -0.4375
vt 0 -0.4375
vt 0 -0.4375
vt 0 -0.4375
f 139/139/139 140/140/140 141/141/141
f 140/140/140 142/142/142 141/141/141
v 0.9282227 -0.53125 0.34375
v 1.1875 0 0.4375
v 1.037598 0 0.5625
v 0.9282227 0.53125 0.34375
vn 0.34375 -0.7246094 0.5976563
vn 0.640625 0 0.7675781
vn 0.4472656 0 0.8945313
vn 0.34375 0.7246094 0.5976563
vt 0 -0.4375
vt 0.03125 -0.2578125
vt -0.015625 -0.2578125
vt 0 -0.4375
f 143/143/143 144/144/144 145/145/145
f 144/144/144 146/146/146 145/145/145
v 0.9282227 -0.53125 0.34375
v 0.4438477 -0.625 0.375
v 0.5375977 -0.703125 0.09375
v 0.2563477 -0.59375 -0.125
vn 0.34375 -0.7246094 0.5976563
vn -0.2324219 -0.8632813 0.4492188
vn -0.1503906 -0.9589844 0.2402344
vn -0.5351563 -0.8378906 -0.1074219
vt 0 -0.4375
vt 0 -0.4375
vt 0 -0.4375
vt 0 -0.4375
f 147/147/147 148/148/148 149/149/149
f 148/148/148 150/150/150 149/149/149
v 0.5063477 0.484375 -0.59375
v 0.8188477 0 -0.796875
v 0.4438477 0 -0.75
v 0.5063477 -0.484375 -0.59375
vn -0.2363281 0.6503906 -0.7226563
vn 0.1542969 0 -0.9882813
vn -0.3496094 0 -0.9375
vn -0.2363281 -0.6503906 -0.7226563
vt 0.25 -0.1484375
vt 0.25 -0.1484375
vt 0.25 -0.1484375
vt 0.25 -0.1484375
f 151/151/151 152/152/152 153/153/153
f 152/152/152 154/154/154 153/153/153
v 0.3344727 0.78125 0
v 0.5219727 0.90625 0
v 0.5063477 0.796875 -0.125
v 0.5063477 -0.796875 -0.125
v 0.4438477 -0.015625 0
v 0.6782227 -0.8125 0
v 0.65625 -0.78125 0.0625
v 0.8110352 -0.625 0.09375
v 0.5375977 -0.703125 0.09375
v 0.75 0.875 -0.3125
v 0.6938477 0.71875 -0.15625
v 0.65625 0.78125 0.0625
v 0.75 0.875 -0.3125
v 0.9750977 0.65625 -0.1875
v 0.6938477 0.71875 -0.15625
v 0.65625 0.78125 0.0625
v 1.15625 0.625 0.25
v 0.75 0.875 -0.3125
v 0.65625 0.78125 0.0625
v 0.5375977 0.703125 0.09375
v 0.8110352 0.625 0.09375
v 0.75 -0.875 -0.3125
v 0.6938477 -0.71875 -0.15625
v 0.9750977 -0.65625 -0.1875
v 0.75 -0.875 -0.3125
v 0.65625 -0.78125 0.0625
v 0.6938477 -0.71875 -0.15625
v 0.8110352 -0.625 0.09375
v 0.65625 -0.78125 0.0625
v 0.8125 -0.59375 0.46875
v 0.8110352 0.625 0.09375
v 0.5375977 0.703125 0.09375
v 0.9282227 0.53125 0.34375
v 1.3125 -0.0625 -0.265625
v 1.15625 0 -0.5625
v 1.28125 0 -0.0625
v 1.15625 -0.625 0.25
v 1.25 -0.46875 -0.25
v 1.375 -0.4375 0.5
v 1.46875 -0.125 0.4375
v 1.3125 -0.0625 -0.265625
v 1.28125 0 -0.0625
v 0.8110352 -0.625 0.09375
v 0.9282227 -0.53125 0.34375
v 0.5375977 -0.703125 0.09375
v 1.15625 0 -0.5625
v 1.3125 0.0625 -0.265625
v 1.28125 0 -0.0625
vn -0.5742188 0.3359375 -0.7460938
vn -0.03515625 0.7539063 -0.65625
vn -0.01953125 0.3691406 -0.9296875
vn -0.01953125 -0.3691406 -0.9296875
vn 0.005859375 0.1582031 -0.9882813
vn 0.5488281 -0.2734375 -0.7890625
vn -0.3828125 -0.78125 0.4941406
vn 0.1992188 -0.6972656 0.6875
vn -0.1503906 -0.9589844 0.2402344
vn -0.1835938 0.7402344 -0.6464844
vn -0.7460938 -0.3164063 -0.5859375
vn -0.96875 0.1425781 -0.2070313
vn -0.1835938 0.7402344 -0.6464844
vn 0.4609375 0.6972656 -0.5488281
vn -0.7460938 -0.3164063 -0.5859375
vn 0.1699219 0.9296875 0.3242188
vn 0.4589844 0.8828125 0.1074219
vn -0.1835938 0.7402344 -0.6464844
vn -0.3828125 0.78125 0.4941406
vn -0.1503906 0.9589844 0.2402344
vn 0.1992188 0.6972656 0.6875
vn -0.1835938 -0.7402344 -0.6464844
vn -0.7460938 0.3164063 -0.5859375
vn 0.4609375 -0.6972656 -0.5488281
vn -0.1835938 -0.7402344 -0.6464844
vn -0.96875 -0.1425781 -0.2070313
vn -0.7460938 0.3164063 -0.5859375
vn -0.703125 0.7089844 -0.05664063
vn -0.703125 0.7089844 -0.05664063
vn -0.703125 0.7089844 -0.05664063
vn 0.1992188 0.6972656 0.6875
vn -0.1503906 0.9589844 0.2402344
vn 0.34375 0.7246094 0.5976563
vn 0.9023438 0.3339844 -0.2753906
vn 0.78125 0 -0.6230469
vn 0.5996094 0.7871094 -0.1503906
vn 0.4589844 -0.8828125 0.1074219
vn 0.7890625 -0.5078125 -0.34375
vn 0.6289063 -0.6035156 0.4902344
vn 0.8730469 0.4140625 0.2539063
vn 0.9023438 0.3339844 -0.2753906
vn 0.5761719 0.8164063 -0.01171875
vn 0.1992188 -0.6972656 0.6875
vn 0.34375 -0.7246094 0.5976563
vn -0.1503906 -0.9589844 0.2402344
vn 0.78125 0 -0.6230469
vn 0.9023438 -0.3339844 -0.2753906
vn 0.5996094 -0.7871094 -0.1503906
vt 0 -0.4375
vt 0 -0.4375
vt 0 -0.4375
vt 0 -0.4375
vt 0 -0.4375
vt 0 -0.4375
vt 0.25 -0.1484375
vt 0.25 -0.1484375
vt 0.25 -0.1484375
vt 0.25 -0.2421875
vt 0.25 -0.2421875
vt 0.25 -0.2421875
vt 0.25 -0.2265625
vt 0.25 -0.1953125
vt 0.25 -0.2421875
vt 0.25 -0.1484375
vt 0.25 -0.1484375
vt 0.25 -0.1484375
vt 0.25 -0.1484375
vt 0.25 -0.1484375
vt 0.25 -0.1484375
vt 0.25 -0.2265625
vt 0.25 -0.2421875
vt 0.25 -0.1953125
vt 0.25 -0.2421875
vt 0.25 -0.2421875
vt 0.25 -0.2421875
vt 0.25 -0.2421875
vt 0.25 -0.2421875
vt 0.25 -0.2421875
vt 0.03125 -0.2578125
vt 0 -0.4375
vt -0.015625 -0.2578125
vt 0.25 -0.1953125
vt 0.25 -0.1953125
vt 0.25 -0.2265625
vt 0.25 -0.1484375
vt 0.25 -0.1484375
vt 0.25 -0.1484375
vt 0.25 -0.1796875
vt 0.25 -0.1953125
vt 0.25 -0.2265625
vt 0.03125 -0.2578125
vt -0.015625 -0.2578125
vt 0 -0.4375
vt 0.25 -0.1953125
vt 0.25 -0.1953125
vt 0.25 -0.2265625
f 155/155/155 156/156/156 157/157/157
f 158/158/158 159/159/159 160/160/160
f 161/161/161 162/162/162 163/163/163
f 164/164/164 165/165/165 166/166/166
f 167/167/167 168/168/168 169/169/169
f 170/170/170 171/171/171 172/172/172
f 173/173/173 174/174/174 175/175/175
f 176/176/176 177/177/177 178/178/178
f 179/179/179 180/180/180 181/181/181
f 182/182/182 183/183/183 184/184/184
f 185/185/185 186/186/186 187/187/187
f 188/188/188 189/189/189 190/190/190
f 191/191/191 192/192/192 193/193/193
f 194/194/194 195/195/195 196/196/196
f 197/197/197 198/198/198 199/199/199
f 200/200/200 201/201/201 202/202/202
