# Created by MKDS Course Modifier
mtllib 0.mtl
g polygon0
usemtl e
v 0.4438477 -0.625 0.375
v 0.9282227 -0.53125 0.34375
v 0.4907227 -0.359375 0.625
v 1.037598 0 0.5625
v 0.5063477 0 0.71875
v 0.4907227 0.359375 0.625
vn -0.2324219 -0.8632813 0.4492188
vn 0.4296875 -0.7695313 0.4726563
vn -0.08203125 -0.4511719 0.8886719
vn 0.484375 0 0.875
vn -0.07226563 0 0.9980469
vn -0.08203125 0.4511719 0.8886719
vt 1.0625 -1
vt 0.9375 -0.0625
vt 0.78125 -1
vt 0.5 0
vt 0.5 -1
vt 0.21875 -1
f 1/1/1 2/2/2 3/3/3
f 2/2/2 4/4/4 3/3/3
f 3/3/3 4/4/4 5/5/5
f 4/4/4 6/6/6 5/5/5
v 1.037598 0 0.5625
v 0.9282227 0.53125 0.34375
v 0.4907227 0.359375 0.625
v 0.4438477 0.625 0.375
vn 0.484375 0 0.875
vn 0.4296875 0.7695313 0.4726563
vn -0.08203125 0.4511719 0.8886719
vn -0.2324219 0.8632813 0.4492188
vt 0.5 0
vt 0.0625 -0.0625
vt 0.21875 -1
vt -0.0625 -1
f 7/7/7 8/8/8 9/9/9
f 8/8/8 10/10/10 9/9/9
g polygon1
usemtl m
v 0.4438477 -0.625 0.375
v 0.4907227 -0.359375 0.625
v 0.1625977 -0.390625 0.421875
v 0.1625977 0 0.5625
v 0.006347656 0 0.03125
v 0.1625977 0.390625 0.421875
v 0.06884766 0.375 -0.125
v 0.2563477 0.59375 -0.125
v 0.1157227 0.3125 -0.484375
vn -0.2324219 -0.8632813 0.4492188
vn -0.08203125 -0.4511719 0.8886719
vn -0.765625 -0.4882813 0.4179688
vn -0.6777344 0 0.734375
vn -0.9980469 0 0.05664063
vn -0.765625 0.4882813 0.4179688
vn -0.90625 0.4238281 -0.02148438
vn -0.5351563 0.8378906 -0.1074219
vn -0.7929688 0.3496094 -0.4980469
vt 1 0
vt 0.765625 0
vt 1 -0.59375
vt 0.5 -0.59375
vt 0.5 -0.59375
vt 0.5 -0.59375
vt 0.5 -0.59375
vt 0.5 -0.59375
vt 0.5 -0.59375
f 11/11/11 12/12/12 13/13/13
f 12/12/12 14/14/14 13/13/13
f 13/13/13 14/14/14 15/15/15
f 14/14/14 16/16/16 15/15/15
f 15/15/15 16/16/16 17/17/17
f 16/16/16 18/18/18 17/17/17
f 17/17/17 18/18/18 19/19/19
v 0.4438477 -0.625 0.375
v 0.1625977 -0.390625 0.421875
v 0.2563477 -0.59375 -0.125
v 0.06884766 -0.375 -0.125
v 0.1157227 -0.3125 -0.484375
v 0.006347656 0 0.03125
v 0.1157227 0.3125 -0.484375
v 0.06884766 0.375 -0.125
vn -0.2324219 -0.8632813 0.4492188
vn -0.765625 -0.4882813 0.4179688
vn -0.5351563 -0.8378906 -0.1074219
vn -0.90625 -0.4238281 -0.02148438
vn -0.7929688 -0.3496094 -0.4980469
vn -0.9980469 0 0.05664063
vn -0.7929688 0.3496094 -0.4980469
vn -0.90625 0.4238281 -0.02148438
vt 0.5 -0.59375
vt 0.5 -0.59375
vt 0.5 -0.59375
vt 0.5 -0.59375
vt 0.5 -0.59375
vt 0.5 -0.59375
vt 0.5 -0.59375
vt 0.5 -0.59375
f 20/20/20 21/21/21 22/22/22
f 21/21/21 23/23/23 22/22/22
f 22/22/22 23/23/23 24/24/24
f 23/23/23 25/25/25 24/24/24
f 24/24/24 25/25/25 26/26/26
f 25/25/25 27/27/27 26/26/26
v 0.4438477 0.625 0.375
v 0.1625977 0.390625 0.421875
v 0.4907227 0.359375 0.625
v 0.1625977 0 0.5625
v 0.5063477 0 0.71875
v 0.4907227 -0.359375 0.625
vn -0.2324219 0.8632813 0.4492188
vn -0.765625 0.4882813 0.4179688
vn -0.08203125 0.4511719 0.8886719
vn -0.6777344 0 0.734375
vn -0.07226563 0 0.9980469
vn -0.08203125 -0.4511719 0.8886719
vt 0 0
vt 0 -0.59375
vt 0.234375 0
vt 0.5 -0.59375
vt 0.5 0
vt 0.765625 0
f 28/28/28 29/29/29 30/30/30
f 29/29/29 31/31/31 30/30/30
f 30/30/30 31/31/31 32/32/32
f 31/31/31 33/33/33 32/32/32
v 0.1625977 0.390625 0.421875
v 0.4438477 0.625 0.375
v 0.2563477 0.59375 -0.125
v 0.06884766 -0.375 -0.125
v 0.1625977 -0.390625 0.421875
v 0.006347656 0 0.03125
vn -0.765625 0.4882813 0.4179688
vn -0.2324219 0.8632813 0.4492188
vn -0.5351563 0.8378906 -0.1074219
vn -0.90625 -0.4238281 -0.02148438
vn -0.765625 -0.4882813 0.4179688
vn -0.9980469 0 0.05664063
vt 0.5 -0.59375
vt 0.5 -0.59375
vt 0.5 -0.59375
vt 0.5 -0.59375
vt 0.5 -0.59375
vt 0.5 -0.59375
f 34/34/34 35/35/35 36/36/36
f 37/37/37 38/38/38 39/39/39
g polygon2
usemtl hair
v 0.2563477 0.59375 -0.125
v 0.5063477 0.484375 -0.59375
v 0.1157227 0.3125 -0.484375
v 0.4438477 0 -0.75
v 0.1157227 -0.3125 -0.484375
v 0.5063477 -0.484375 -0.59375
v 0.2563477 -0.59375 -0.125
v 0.6938477 -0.71875 -0.15625
v 0.5375977 -0.703125 0.09375
v 0.9282227 -0.53125 0.34375
v 0.4438477 -0.625 0.375
vn -0.5351563 0.8378906 -0.1074219
vn -0.1953125 0.6464844 -0.7382813
vn -0.7929688 0.3496094 -0.4980469
vn -0.3183594 0 -0.9492188
vn -0.7929688 -0.3496094 -0.4980469
vn -0.1953125 -0.6464844 -0.7382813
vn -0.5351563 -0.8378906 -0.1074219
vn 0.0625 -0.9824219 -0.1738281
vn -0.06445313 -0.9882813 0.1425781
vn 0.4296875 -0.7695313 0.4726563
vn -0.2324219 -0.8632813 0.4492188
vt 0.65625 -0.9375
vt 0.96875 -0.6875
vt 0.96875 -0.9375
vt 0.96875 -0.6875
vt 0.96875 -0.9375
vt 0.96875 -0.6875
vt 0.65625 -0.9375
vt 0.65625 -0.6875
vt 0.375 -0.8125
vt 0.03125 -0.5
vt 0.03125 -0.90625
f 40/40/40 41/41/41 42/42/42
f 41/41/41 43/43/43 42/42/42
f 42/42/42 43/43/43 44/44/44
f 43/43/43 45/45/45 44/44/44
f 44/44/44 45/45/45 46/46/46
f 45/45/45 47/47/47 46/46/46
f 46/46/46 47/47/47 48/48/48
f 47/47/47 49/49/49 48/48/48
f 48/48/48 49/49/49 50/50/50
v 0.6938477 -0.71875 -0.15625
v 0.9750977 -0.625 -0.1875
v 0.9282227 -0.53125 0.34375
v 1.193848 -0.40625 -0.015625
v 1.225098 -0.21875 0.3125
v 1.287598 0 -0.09375
v 1.225098 0.21875 0.3125
v 1.193848 0.40625 -0.015625
v 0.9282227 0.53125 0.34375
vn 0.0625 -0.9824219 -0.1738281
vn 0.5390625 -0.8320313 -0.1289063
vn 0.4296875 -0.7695313 0.4726563
vn 0.8476563 -0.5273438 0.05078125
vn 0.8730469 -0.2792969 0.4003906
vn 0.9960938 0 -0.08203125
vn 0.8730469 0.2792969 0.4003906
vn 0.8476563 0.5273438 0.05078125
vn 0.4296875 0.7695313 0.4726563
vt 0.65625 -0.6875
vt 0.65625 -0.5
vt 0.03125 -0.5
vt 0.59375 -0.34375
vt 0.3125 -0.15625
vt 0.71875 0
vt 0.3125 -0.15625
vt 0.59375 -0.34375
vt 0.03125 -0.5
f 51/51/51 52/52/52 53/53/53
f 52/52/52 54/54/54 53/53/53
f 53/53/53 54/54/54 55/55/55
f 54/54/54 56/56/56 55/55/55
f 55/55/55 56/56/56 57/57/57
f 56/56/56 58/58/58 57/57/57
f 57/57/57 58/58/58 59/59/59
v 0.9750977 0.625 -0.1875
v 1.193848 0.40625 -0.015625
v 1.162598 0.34375 -0.40625
v 1.287598 0 -0.09375
v 1.162598 0 -0.53125
v 1.162598 -0.34375 -0.40625
v 0.8969727 -0.453125 -0.59375
v 0.9750977 -0.625 -0.1875
v 0.6938477 -0.71875 -0.15625
vn 0.5390625 0.8320313 -0.1289063
vn 0.8476563 0.5273438 0.05078125
vn 0.8320313 0.4179688 -0.3632813
vn 0.9960938 0 -0.08203125
vn 0.7714844 0 -0.6347656
vn 0.8320313 -0.4179688 -0.3632813
vn 0.3925781 -0.6054688 -0.6914063
vn 0.5390625 -0.8320313 -0.1289063
vn 0.0625 -0.9824219 -0.1738281
vt 0.875 -0.0625
vt 0.875 -0.0625
vt 0.875 -0.0625
vt 0.875 -0.0625
vt 0.875 -0.0625
vt 0.875 -0.0625
vt 0.875 -0.0625
vt 0.875 -0.0625
vt 0.875 -0.0625
f 60/60/60 61/61/61 62/62/62
f 61/61/61 63/63/63 62/62/62
f 62/62/62 63/63/63 64/64/64
f 63/63/63 65/65/65 64/64/64
f 64/64/64 65/65/65 66/66/66
f 65/65/65 67/67/67 66/66/66
f 66/66/66 67/67/67 68/68/68
v 0.6938477 -0.71875 -0.15625
v 0.5063477 -0.484375 -0.59375
v 0.8969727 -0.453125 -0.59375
v 0.8500977 0 -0.765625
v 1.162598 0 -0.53125
v 0.8969727 0.453125 -0.59375
v 1.162598 0.34375 -0.40625
v 0.9750977 0.625 -0.1875
vn 0.0625 -0.9824219 -0.1738281
vn -0.1953125 -0.6464844 -0.7382813
vn 0.3925781 -0.6054688 -0.6914063
vn 0.2109375 0 -0.9765625
vn 0.7714844 0 -0.6347656
vn 0.3925781 0.6054688 -0.6914063
vn 0.8320313 0.4179688 -0.3632813
vn 0.5390625 0.8320313 -0.1289063
vt 0.875 -0.0625
vt 0.875 -0.0625
vt 0.875 -0.0625
vt 0.875 -0.0625
vt 0.875 -0.0625
vt 0.875 -0.0625
vt 0.875 -0.0625
vt 0.875 -0.0625
f 69/69/69 70/70/70 71/71/71
f 70/70/70 72/72/72 71/71/71
f 71/71/71 72/72/72 73/73/73
f 72/72/72 74/74/74 73/73/73
f 73/73/73 74/74/74 75/75/75
f 74/74/74 76/76/76 75/75/75
v 0.5063477 -0.484375 -0.59375
v 0.4438477 0 -0.75
v 0.8500977 0 -0.765625
v 0.5063477 0.484375 -0.59375
v 0.8969727 0.453125 -0.59375
v 0.6938477 0.71875 -0.15625
v 0.9750977 0.625 -0.1875
vn -0.1953125 -0.6464844 -0.7382813
vn -0.3183594 0 -0.9492188
vn 0.2109375 0 -0.9765625
vn -0.1953125 0.6464844 -0.7382813
vn 0.3925781 0.6054688 -0.6914063
vn 0.0625 0.9824219 -0.1738281
vn 0.5390625 0.8320313 -0.1289063
vt 0.875 -0.0625
vt 0.875 -0.0625
vt 0.875 -0.0625
vt 0.875 -0.0625
vt 0.875 -0.0625
vt 0.875 -0.0625
vt 0.875 -0.0625
f 77/77/77 78/78/78 79/79/79
f 78/78/78 80/80/80 79/79/79
f 79/79/79 80/80/80 81/81/81
f 80/80/80 82/82/82 81/81/81
f 81/81/81 82/82/82 83/83/83
v 0.5063477 0.484375 -0.59375
v 0.2563477 0.59375 -0.125
v 0.6938477 0.71875 -0.15625
v 0.5375977 0.703125 0.09375
v 0.9282227 0.53125 0.34375
v 0.4438477 0.625 0.375
vn -0.1953125 0.6464844 -0.7382813
vn -0.5351563 0.8378906 -0.1074219
vn 0.0625 0.9824219 -0.1738281
vn -0.06445313 0.9882813 0.1425781
vn 0.4296875 0.7695313 0.4726563
vn -0.2324219 0.8632813 0.4492188
vt 0.96875 -0.6875
vt 0.65625 -0.9375
vt 0.65625 -0.6875
vt 0.375 -0.8125
vt 0.03125 -0.5
vt 0.03125 -0.90625
f 84/84/84 85/85/85 86/86/86
f 85/85/85 87/87/87 86/86/86
f 86/86/86 87/87/87 88/88/88
f 87/87/87 89/89/89 88/88/88
v 0.9282227 -0.53125 0.34375
v 1.225098 -0.21875 0.3125
v 1.037598 0 0.5625
v 1.225098 0.21875 0.3125
v 0.9282227 0.53125 0.34375
vn 0.4296875 -0.7695313 0.4726563
vn 0.8730469 -0.2792969 0.4003906
vn 0.484375 0 0.875
vn 0.8730469 0.2792969 0.4003906
vn 0.4296875 0.7695313 0.4726563
vt 0.03125 -0.5
vt 0.3125 -0.15625
vt 0 0
vt 0.3125 -0.15625
vt 0.03125 -0.5
f 90/90/90 91/91/91 92/92/92
f 91/91/91 93/93/93 92/92/92
f 92/92/92 93/93/93 94/94/94
v 0.3344727 -0.78125 0
v 0.4438477 -0.015625 0
v 0.5063477 -0.796875 -0.125
v 0.6782227 -0.8125 0
v 0.5219727 -0.90625 0
vn -0.5742188 -0.3359375 -0.7460938
vn 0.005859375 0.1582031 -0.9882813
vn -0.01953125 -0.3691406 -0.9296875
vn 0.5488281 -0.2734375 -0.7890625
vn -0.03515625 -0.7539063 -0.65625
vt 0.0625 -0.875
vt 0.0625 -0.875
vt 0.0625 -0.875
vt 0.0625 -0.875
vt 0.0625 -0.875
f 95/95/95 96/96/96 97/97/97
f 96/96/96 98/98/98 97/97/97
f 97/97/97 98/98/98 99/99/99
v 0.4438477 0.015625 0
v 0.3344727 0.78125 0
v 0.5063477 0.796875 -0.125
v 0.5219727 0.90625 0
v 0.6782227 0.8125 0
vn 0.005859375 -0.1582031 -0.9882813
vn -0.5742188 0.3359375 -0.7460938
vn -0.01953125 0.3691406 -0.9296875
vn -0.03515625 0.7539063 -0.65625
vn 0.5488281 0.2734375 -0.7890625
vt 0.125 -0.875
vt 0.125 -0.875
vt 0.125 -0.875
vt 0.125 -0.875
vt 0.125 -0.875
f 100/100/100 101/101/101 102/102/102
f 101/101/101 103/103/103 102/102/102
f 102/102/102 103/103/103 104/104/104
v 0.3344727 0.78125 0
v 0.4438477 0.015625 0
v 0.5219727 0.90625 0
v 0.6782227 0.8125 0
vn 0 0 0.9980469
vn 0 0 0.9980469
vn 0 0 0.9980469
vn 0 0 0.9980469
vt 0.125 -0.875
vt 0.125 -0.875
vt 0.125 -0.875
vt 0.125 -0.875
f 105/105/105 106/106/106 107/107/107
f 106/106/106 108/108/108 107/107/107
v 0.3344727 -0.78125 0
v 0.5219727 -0.90625 0
v 0.4438477 -0.015625 0
v 0.6782227 -0.8125 0
vn 0 0 0.9980469
vn 0 0 0.9980469
vn 0 0 0.9980469
vn 0 0 0.9980469
vt 0.0625 -0.875
vt 0.0625 -0.875
vt 0.0625 -0.875
vt 0.0625 -0.875
f 109/109/109 110/110/110 111/111/111
f 110/110/110 112/112/112 111/111/111
v 0.6938477 0.71875 -0.15625
v 0.9282227 0.53125 0.34375
v 0.9750977 0.625 -0.1875
v 1.193848 0.40625 -0.015625
vn 0.0625 0.9824219 -0.1738281
vn 0.4296875 0.7695313 0.4726563
vn 0.5390625 0.8320313 -0.1289063
vn 0.8476563 0.5273438 0.05078125
vt 0.65625 -0.6875
vt 0.03125 -0.5
vt 0.65625 -0.5
vt 0.59375 -0.34375
f 113/113/113 114/114/114 115/115/115
f 114/114/114 116/116/116 115/115/115
v 1.287598 0 -0.09375
v 1.193848 -0.40625 -0.015625
v 1.162598 -0.34375 -0.40625
v 0.9750977 -0.625 -0.1875
vn 0.9960938 0 -0.08203125
vn 0.8476563 -0.5273438 0.05078125
vn 0.8320313 -0.4179688 -0.3632813
vn 0.5390625 -0.8320313 -0.1289063
vt 0.875 -0.0625
vt 0.875 -0.0625
vt 0.875 -0.0625
vt 0.875 -0.0625
f 117/117/117 118/118/118 119/119/119
f 118/118/118 120/120/120 119/119/119
v 0.3344727 -0.78125 0
v 0.5063477 -0.796875 -0.125
v 0.5219727 -0.90625 0
v 0.5063477 0.796875 -0.125
v 0.6782227 0.8125 0
v 0.4438477 0.015625 0
v 0.4438477 -0.625 0.375
v 0.2563477 -0.59375 -0.125
v 0.5375977 -0.703125 0.09375
v 0.4438477 0.625 0.375
v 0.5375977 0.703125 0.09375
v 0.2563477 0.59375 -0.125
vn -0.5742188 -0.3359375 -0.7460938
vn -0.01953125 -0.3691406 -0.9296875
vn -0.03515625 -0.7539063 -0.65625
vn -0.01953125 0.3691406 -0.9296875
vn 0.5488281 0.2734375 -0.7890625
vn 0.005859375 -0.1582031 -0.9882813
vn -0.2324219 -0.8632813 0.4492188
vn -0.5351563 -0.8378906 -0.1074219
vn -0.06445313 -0.9882813 0.1425781
vn -0.2324219 0.8632813 0.4492188
vn -0.06445313 0.9882813 0.1425781
vn -0.5351563 0.8378906 -0.1074219
vt 0.0625 -0.875
vt 0.0625 -0.875
vt 0.0625 -0.875
vt 0.125 -0.875
vt 0.125 -0.875
vt 0.125 -0.875
vt 0.03125 -0.90625
vt 0.65625 -0.9375
vt 0.375 -0.8125
vt 0.03125 -0.90625
vt 0.375 -0.8125
vt 0.65625 -0.9375
f 121/121/121 122/122/122 123/123/123
f 124/124/124 125/125/125 126/126/126
f 127/127/127 128/128/128 129/129/129
f 130/130/130 131/131/131 132/132/132
