# Created by MKDS Course Modifier
mtllib 24.mtl
g polygon0
usemtl e
v 0.4438477 -0.625 0.375
v 0.9282227 -0.53125 0.34375
v 0.4907227 -0.359375 0.625
v 1.037598 0 0.5625
v 0.5063477 0 0.71875
v 0.4907227 0.359375 0.625
vn -0.265625 -0.8496094 0.4570313
vn 0.2636719 -0.7207031 0.640625
vn -0.08203125 -0.4511719 0.8886719
vn 0.34375 0 0.9394531
vn -0.07226563 0 0.9980469
vn -0.08203125 0.4511719 0.8886719
vt 1.0625 -1
vt 0.9375 -0.0625
vt 0.78125 -1
vt 0.5 0
vt 0.5 -1
vt 0.21875 -1
f 1/1/1 2/2/2 3/3/3
f 2/2/2 4/4/4 3/3/3
f 3/3/3 4/4/4 5/5/5
f 4/4/4 6/6/6 5/5/5
v 1.037598 0 0.5625
v 0.9282227 0.53125 0.34375
v 0.4907227 0.359375 0.625
v 0.4438477 0.625 0.375
vn 0.34375 0 0.9394531
vn 0.2636719 0.7207031 0.640625
vn -0.08203125 0.4511719 0.8886719
vn -0.265625 0.8496094 0.4570313
vt 0.5 0
vt 0.0625 -0.0625
vt 0.21875 -1
vt -0.0625 -1
f 7/7/7 8/8/8 9/9/9
f 8/8/8 10/10/10 9/9/9
g polygon1
usemtl m
v 0.4438477 -0.625 0.375
v 0.4907227 -0.359375 0.625
v 0.1625977 -0.390625 0.421875
v 0.1625977 0 0.5625
v 0.006347656 0 0.03125
v 0.1625977 0.390625 0.421875
v 0.06884766 0.375 -0.125
v 0.2563477 0.59375 -0.125
v 0.1157227 0.3125 -0.484375
vn -0.265625 -0.8496094 0.4570313
vn -0.08203125 -0.4511719 0.8886719
vn -0.765625 -0.4882813 0.4179688
vn -0.6777344 0 0.734375
vn -0.9980469 0 0.05664063
vn -0.765625 0.4882813 0.4179688
vn -0.90625 0.4238281 -0.02148438
vn -0.578125 0.8085938 -0.1035156
vn -0.7929688 0.3496094 -0.4980469
vt 1 0
vt 0.765625 0
vt 1 -0.59375
vt 0.5 -0.59375
vt 0.5 -0.9375
vt 0.5 -0.9375
vt 0.5 -0.9375
vt 0.5 -0.9375
vt 0.5 -0.9375
f 11/11/11 12/12/12 13/13/13
f 12/12/12 14/14/14 13/13/13
f 13/13/13 14/14/14 15/15/15
f 14/14/14 16/16/16 15/15/15
f 15/15/15 16/16/16 17/17/17
f 16/16/16 18/18/18 17/17/17
f 17/17/17 18/18/18 19/19/19
v 0.4438477 -0.625 0.375
v 0.1625977 -0.390625 0.421875
v 0.2563477 -0.59375 -0.125
v 0.06884766 -0.375 -0.125
v 0.1157227 -0.3125 -0.484375
v 0.006347656 0 0.03125
v 0.1157227 0.3125 -0.484375
v 0.06884766 0.375 -0.125
vn -0.265625 -0.8496094 0.4570313
vn -0.765625 -0.4882813 0.4179688
vn -0.578125 -0.8085938 -0.1035156
vn -0.90625 -0.4238281 -0.02148438
vn -0.7929688 -0.3496094 -0.4980469
vn -0.9980469 0 0.05664063
vn -0.7929688 0.3496094 -0.4980469
vn -0.90625 0.4238281 -0.02148438
vt 0.5 -0.9375
vt 0.5 -0.9375
vt 0.5 -0.9375
vt 0.5 -0.9375
vt 0.5 -0.9375
vt 0.5 -0.9375
vt 0.5 -0.9375
vt 0.5 -0.9375
f 20/20/20 21/21/21 22/22/22
f 21/21/21 23/23/23 22/22/22
f 22/22/22 23/23/23 24/24/24
f 23/23/23 25/25/25 24/24/24
f 24/24/24 25/25/25 26/26/26
f 25/25/25 27/27/27 26/26/26
v 0.4438477 0.625 0.375
v 0.1625977 0.390625 0.421875
v 0.4907227 0.359375 0.625
v 0.1625977 0 0.5625
v 0.5063477 0 0.71875
v 0.4907227 -0.359375 0.625
vn -0.265625 0.8496094 0.4570313
vn -0.765625 0.4882813 0.4179688
vn -0.08203125 0.4511719 0.8886719
vn -0.6777344 0 0.734375
vn -0.07226563 0 0.9980469
vn -0.08203125 -0.4511719 0.8886719
vt 0 0
vt 0 -0.59375
vt 0.234375 0
vt 0.5 -0.59375
vt 0.5 0
vt 0.765625 0
f 28/28/28 29/29/29 30/30/30
f 29/29/29 31/31/31 30/30/30
f 30/30/30 31/31/31 32/32/32
f 31/31/31 33/33/33 32/32/32
v 0.1625977 0.390625 0.421875
v 0.4438477 0.625 0.375
v 0.2563477 0.59375 -0.125
v 0.06884766 -0.375 -0.125
v 0.1625977 -0.390625 0.421875
v 0.006347656 0 0.03125
vn -0.765625 0.4882813 0.4179688
vn -0.265625 0.8496094 0.4570313
vn -0.578125 0.8085938 -0.1035156
vn -0.90625 -0.4238281 -0.02148438
vn -0.765625 -0.4882813 0.4179688
vn -0.9980469 0 0.05664063
vt 0.5 -0.9375
vt 0.5 -0.9375
vt 0.5 -0.9375
vt 0.5 -0.9375
vt 0.5 -0.9375
vt 0.5 -0.9375
f 34/34/34 35/35/35 36/36/36
f 37/37/37 38/38/38 39/39/39
g polygon2
usemtl hair
v 0.9282227 -0.53125 0.34375
v 0.4438477 -0.625 0.375
v 0.46875 -0.6875 0.15625
v 0.2563477 -0.59375 -0.125
v 0.4375 -0.640625 -0.21875
v 0.5063477 -0.484375 -0.59375
vn 0.2636719 -0.7207031 0.640625
vn -0.265625 -0.8496094 0.4570313
vn -0.2382813 -0.9628906 0.1289063
vn -0.578125 -0.8085938 -0.1035156
vn -0.3652344 -0.8945313 -0.2578125
vn -0.4433594 -0.6679688 -0.5957031
vt 0.03125 -0.5
vt 0.03125 -0.90625
vt 0.375 -0.8125
vt 0.65625 -0.9375
vt 0.671875 -0.75
vt 0.96875 -0.6875
f 40/40/40 41/41/41 42/42/42
f 41/41/41 43/43/43 42/42/42
f 42/42/42 43/43/43 44/44/44
f 43/43/43 45/45/45 44/44/44
v 0.9282227 -0.53125 0.34375
v 0.46875 -0.6875 0.15625
v 0.5 -0.9465332 0.0625
v 0.4375 -0.640625 -0.21875
v 0.5063477 -0.484375 -0.59375
vn -0.1601563 -0.4355469 0.8867188
vn -0.75 -0.3027344 0.5878906
vn -0.7363281 -0.6171875 0.2753906
vn -0.9335938 -0.3261719 -0.1484375
vn -0.2480469 -0.6289063 -0.7363281
vt 0.09375 -0.015625
vt 0.28125 -0.25
vt 0.5 -0.1875
vt 0.5 -0.359375
vt 0.96875 -0.453125
f 46/46/46 47/47/47 48/48/48
f 47/47/47 49/49/49 48/48/48
f 48/48/48 49/49/49 50/50/50
v 0.8334961 1.131592 -0.02026367
v 0.5063477 0.484375 -0.59375
v 0.5 0.9465332 0.0625
v 0.4375 0.640625 -0.21875
v 0.46875 0.6875 0.15625
vn 0.7988281 0.5488281 -0.25
vn -0.2480469 0.6289063 -0.7363281
vn -0.7363281 0.6171875 0.2753906
vn -0.9335938 0.3261719 -0.1484375
vn -0.75 0.3027344 0.5878906
vt 0.96875 -0.015625
vt 0.96875 -0.453125
vt 0.5 -0.1875
vt 0.5 -0.359375
vt 0.28125 -0.25
f 51/51/51 52/52/52 53/53/53
f 52/52/52 54/54/54 53/53/53
f 53/53/53 54/54/54 55/55/55
v 0.5063477 -0.484375 -0.59375
v 0.6938477 -0.71875 -0.15625
v 0.8334961 -1.131592 -0.02026367
v 0.9282227 -0.53125 0.34375
vn -0.2480469 -0.6289063 -0.7363281
vn 0.9082031 0.1855469 -0.3730469
vn 0.7988281 -0.5488281 -0.25
vn 0.875 0.1425781 -0.4628906
vt 0.125 -0.03125
vt 0.53125 -0.234375
vt 0.96875 -0.015625
vt 0.9375 -0.4375
f 56/56/56 57/57/57 58/58/58
f 57/57/57 59/59/59 58/58/58
v 0.5063477 0.484375 -0.59375
v 0.8334961 1.131592 -0.02026367
v 0.6938477 0.71875 -0.15625
v 0.9282227 0.53125 0.34375
vn -0.2480469 0.6289063 -0.7363281
vn 0.7988281 0.5488281 -0.25
vn 0.9082031 -0.1855469 -0.3730469
vn 0.875 -0.1425781 -0.4628906
vt 0.125 -0.03125
vt 0.96875 -0.015625
vt 0.53125 -0.234375
vt 0.9375 -0.4375
f 60/60/60 61/61/61 62/62/62
f 61/61/61 63/63/63 62/62/62
v 0.9282227 0.53125 0.34375
v 0.46875 0.6875 0.15625
v 0.4438477 0.625 0.375
v 0.2563477 0.59375 -0.125
vn 0.2636719 0.7207031 0.640625
vn -0.2382813 0.9628906 0.1289063
vn -0.265625 0.8496094 0.4570313
vn -0.578125 0.8085938 -0.1035156
vt 0.03125 -0.5
vt 0.375 -0.8125
vt 0.03125 -0.90625
vt 0.65625 -0.9375
f 64/64/64 65/65/65 66/66/66
f 65/65/65 67/67/67 66/66/66
v 0.2563477 -0.59375 -0.125
v 0.1157227 -0.3125 -0.484375
v 0.5063477 -0.484375 -0.59375
v 0.4438477 0 -0.75
vn -0.578125 -0.8085938 -0.1035156
vn -0.7929688 -0.3496094 -0.4980469
vn -0.4433594 -0.6679688 -0.5957031
vn -0.4882813 0 -0.8730469
vt 0.65625 -0.9375
vt 0.96875 -0.9375
vt 0.96875 -0.6875
vt 0.96875 -0.6875
f 68/68/68 69/69/69 70/70/70
f 69/69/69 71/71/71 70/70/70
v 0.1157227 -0.3125 -0.484375
v 0.1157227 0.3125 -0.484375
v 0.4438477 0 -0.75
v 0.5063477 0.484375 -0.59375
vn -0.7929688 -0.3496094 -0.4980469
vn -0.7929688 0.3496094 -0.4980469
vn -0.4882813 0 -0.8730469
vn -0.4433594 0.6679688 -0.5957031
vt 0.96875 -0.9375
vt 0.96875 -0.9375
vt 0.96875 -0.6875
vt 0.96875 -0.6875
f 72/72/72 73/73/73 74/74/74
f 73/73/73 75/75/75 74/74/74
v 0.1157227 0.3125 -0.484375
v 0.2563477 0.59375 -0.125
v 0.5063477 0.484375 -0.59375
v 0.4375 0.640625 -0.21875
vn -0.7929688 0.3496094 -0.4980469
vn -0.578125 0.8085938 -0.1035156
vn -0.4433594 0.6679688 -0.5957031
vn -0.3652344 0.8945313 -0.2578125
vt 0.96875 -0.9375
vt 0.65625 -0.9375
vt 0.96875 -0.6875
vt 0.671875 -0.75
f 76/76/76 77/77/77 78/78/78
f 77/77/77 79/79/79 78/78/78
v 0.5063477 -0.484375 -0.59375
v 0.8334961 -1.131592 -0.02026367
v 0.5 -0.9465332 0.0625
v 0.9282227 -0.53125 0.34375
vn -0.2480469 -0.6289063 -0.7363281
vn 0.7988281 -0.5488281 -0.25
vn -0.7363281 -0.6171875 0.2753906
vn -0.1601563 -0.4355469 0.8867188
vt 0.96875 -0.453125
vt 0.96875 -0.015625
vt 0.5 -0.1875
vt 0.09375 -0.015625
f 80/80/80 81/81/81 82/82/82
f 81/81/81 83/83/83 82/82/82
v 0.8334961 1.131592 -0.02026367
v 0.5 0.9465332 0.0625
v 0.9282227 0.53125 0.34375
v 0.46875 0.6875 0.15625
vn 0.7988281 0.5488281 -0.25
vn -0.7363281 0.6171875 0.2753906
vn -0.1601563 0.4355469 0.8867188
vn -0.75 0.3027344 0.5878906
vt 0.96875 -0.015625
vt 0.5 -0.1875
vt 0.09375 -0.015625
vt 0.28125 -0.25
f 84/84/84 85/85/85 86/86/86
f 85/85/85 87/87/87 86/86/86
v 0.46875 0.6875 0.15625
v 0.4375 0.640625 -0.21875
v 0.2563477 0.59375 -0.125
vn -0.2382813 0.9628906 0.1289063
vn -0.3652344 0.8945313 -0.2578125
vn -0.578125 0.8085938 -0.1035156
vt 0.375 -0.8125
vt 0.671875 -0.75
vt 0.65625 -0.9375
f 88/88/88 89/89/89 90/90/90
