# Created by MKDS Course Modifier
mtllib 30.mtl
g polygon0
usemtl e
v 0.4555664 -0.5585938 0.4375
v 0.9282227 -0.53125 0.34375
v 0.4907227 -0.359375 0.625
v 1.037598 0 0.5625
v 0.5063477 0 0.71875
v 0.4907227 0.359375 0.625
vn -0.3105469 -0.8085938 0.5
vn 0.2792969 -0.5625 0.7773438
vn -0.08203125 -0.4511719 0.8886719
vn 0.34375 0 0.9394531
vn -0.07226563 0 0.9980469
vn -0.08203125 0.4511719 0.8886719
vt 1.0625 -1
vt 0.9375 -0.0625
vt 0.78125 -1
vt 0.5 0
vt 0.5 -1
vt 0.21875 -1
f 1/1/1 2/2/2 3/3/3
f 2/2/2 4/4/4 3/3/3
f 3/3/3 4/4/4 5/5/5
f 4/4/4 6/6/6 5/5/5
v 1.037598 0 0.5625
v 0.9282227 0.53125 0.34375
v 0.4907227 0.359375 0.625
v 0.4555664 0.5585938 0.4375
vn 0.34375 0 0.9394531
vn 0.2792969 0.5625 0.7773438
vn -0.08203125 0.4511719 0.8886719
vn -0.3105469 0.8085938 0.5
vt 0.5 0
vt 0.0625 -0.0625
vt 0.21875 -1
vt -0.0625 -1
f 7/7/7 8/8/8 9/9/9
f 8/8/8 10/10/10 9/9/9
g polygon1
usemtl hair
v 0.4555664 0.5585938 0.4375
v 0.625 0.8125 0.3125
v 0.375 0.6640625 -0.15625
v 0.53125 0.84375 -0.1875
v 0.3125 0.375 -0.65625
v 0.421875 0.5625 -0.6875
v 0.375 0 -0.875
vn -0.7441406 0.6386719 0.1953125
vn -0.7441406 0.6386719 0.1953125
vn -0.7636719 0.6425781 0.04492188
vn -0.7988281 0.5996094 -0.05664063
vn -0.8671875 0.328125 -0.3730469
vn -0.8183594 0.4101563 -0.4042969
vn -0.8125 -0.0078125 -0.5839844
vt 0.140625 -1
vt 0.3125 -0.875
vt 0.140625 -1
vt 0.328125 -0.859375
vt 0.140625 -1
vt 0.328125 -0.859375
vt 0.328125 -0.859375
f 11/11/11 12/12/12 13/13/13
f 12/12/12 14/14/14 13/13/13
f 13/13/13 14/14/14 15/15/15
f 14/14/14 16/16/16 15/15/15
f 15/15/15 16/16/16 17/17/17
v 0.625 0.8125 0.3125
v 0.875 0.6875 0.28125
v 0.53125 0.84375 -0.1875
v 0.6938477 0.71875 -0.15625
v 0.421875 0.5625 -0.6875
v 0.375 0 -0.875
vn 0.4433594 0.8945313 -0.02734375
vn 0.65625 0.6796875 0.3261719
vn 0.5664063 0.7851563 -0.2460938
vn 0.8378906 0.3535156 -0.4160156
vn 0.7714844 0.3828125 -0.5078125
vn 0.890625 -0.001953125 -0.4550781
vt 0.3125 -0.625
vt 0.3125 -0.625
vt 0.3125 -0.625
vt 0.3125 -0.625
vt 0.3125 -0.625
vt 0.3125 -0.625
f 18/18/18 19/19/19 20/20/20
f 19/19/19 21/21/21 20/20/20
f 20/20/20 21/21/21 22/22/22
f 21/21/21 23/23/23 22/22/22
v 0.53125 -0.84375 -0.1875
v 0.421875 -0.53125 -0.6875
v 0.6938477 -0.71875 -0.15625
v 0.375 0 -0.875
v 0.6938477 0.71875 -0.15625
vn 0.5664063 -0.7832031 -0.2578125
vn 0.7636719 -0.3769531 -0.5234375
vn 0.8359375 -0.3515625 -0.421875
vn 0.890625 -0.001953125 -0.4550781
vn 0.8378906 0.3535156 -0.4160156
vt 0.3125 -0.625
vt 0.3125 -0.625
vt 0.3125 -0.625
vt 0.3125 -0.625
vt 0.3125 -0.625
f 24/24/24 25/25/25 26/26/26
f 25/25/25 27/27/27 26/26/26
f 26/26/26 27/27/27 28/28/28
v 0.3125 0.375 -0.65625
v 0.375 0 -0.875
v 0.3125 -0.3671875 -0.65625
v 0.421875 -0.53125 -0.6875
v 0.53125 -0.84375 -0.1875
vn -0.8671875 0.328125 -0.3730469
vn -0.8125 -0.0078125 -0.5839844
vn -0.8476563 -0.3808594 -0.3671875
vn -0.7832031 -0.4375 -0.4433594
vn -0.7871094 -0.6113281 -0.08007813
vt 0.140625 -1
vt 0.328125 -0.859375
vt 0.140625 -1
vt 0.328125 -0.859375
vt 0.328125 -0.859375
f 29/29/29 30/30/30 31/31/31
f 30/30/30 32/32/32 31/31/31
f 31/31/31 32/32/32 33/33/33
v 0.3125 -0.3671875 -0.65625
v 0.53125 -0.84375 -0.1875
v 0.375 -0.6640625 -0.15625
v 0.625 -0.8125 0.3125
v 0.4555664 -0.5585938 0.4375
vn -0.8476563 -0.3808594 -0.3671875
vn -0.7871094 -0.6113281 -0.08007813
vn -0.765625 -0.6425781 0.04296875
vn -0.7617188 -0.6132813 0.2128906
vn -0.7617188 -0.6132813 0.2128906
vt 0.140625 -1
vt 0.328125 -0.859375
vt 0.140625 -1
vt 0.3125 -0.875
vt 0.140625 -1
f 34/34/34 35/35/35 36/36/36
f 35/35/35 37/37/37 36/36/36
f 36/36/36 37/37/37 38/38/38
v 0.625 0.8125 0.3125
v 0.4555664 0.5585938 0.4375
v 0.875 0.6875 0.28125
v 0.9282227 0.53125 0.34375
v 0.6938477 0.71875 -0.15625
vn 0.2578125 0.2832031 0.9238281
vn 0.2285156 0.3535156 0.90625
vn 0.65625 0.6796875 0.3261719
vn 0.8183594 0.4296875 0.3789063
vn 0.8378906 0.3535156 -0.4160156
vt 0.3125 -0.875
vt 0.140625 -1
vt 0.28125 -0.59375
vt 0.15625 -0.5625
vt 0.25 -0.515625
f 39/39/39 40/40/40 41/41/41
f 40/40/40 42/42/42 41/41/41
f 41/41/41 42/42/42 43/43/43
v 0.625 -0.8125 0.3125
v 0.53125 -0.84375 -0.1875
v 0.875 -0.6875 0.28125
v 0.6938477 -0.71875 -0.15625
vn 0.4277344 -0.71875 0.546875
vn 0.5664063 -0.7832031 -0.2578125
vn 0.65625 -0.6796875 0.3261719
vn 0.8359375 -0.3515625 -0.421875
vt 0.3125 -0.625
vt 0.3125 -0.625
vt 0.3125 -0.625
vt 0.3125 -0.625
f 44/44/44 45/45/45 46/46/46
f 45/45/45 47/47/47 46/46/46
v 0.625 -0.8125 0.3125
v 0.875 -0.6875 0.28125
v 0.4555664 -0.5585938 0.4375
v 0.9282227 -0.53125 0.34375
vn 0.4277344 -0.71875 0.546875
vn 0.65625 -0.6796875 0.3261719
vn 0.2285156 -0.3535156 0.90625
vn 0.8183594 -0.4296875 0.3789063
vt 0.3125 -0.875
vt 0.28125 -0.59375
vt 0.140625 -1
vt 0.15625 -0.5625
f 48/48/48 49/49/49 50/50/50
f 49/49/49 51/51/51 50/50/50
v 0.9282227 -0.53125 0.34375
v 0.875 -0.6875 0.28125
v 0.6938477 -0.71875 -0.15625
vn 0.8183594 -0.4296875 0.3789063
vn 0.65625 -0.6796875 0.3261719
vn 0.8359375 -0.3515625 -0.421875
vt 0.15625 -0.5625
vt 0.28125 -0.59375
vt 0.25 -0.515625
f 52/52/52 53/53/53 54/54/54
g polygon2
usemtl m
v 0.4555664 -0.5585938 0.4375
v 0.4907227 -0.359375 0.625
v 0.1625977 -0.390625 0.421875
v 0.1625977 0 0.5625
v 0.006347656 0 0.03125
v 0.1625977 0.390625 0.421875
v 0.06884766 0.375 -0.125
v 0.2563477 0.59375 -0.125
v 0.1157227 0.3125 -0.484375
vn -0.3105469 -0.8085938 0.5
vn -0.08203125 -0.4511719 0.8886719
vn -0.75 -0.5039063 0.4296875
vn -0.6777344 0 0.734375
vn -0.9980469 0 0.05664063
vn -0.75 0.5039063 0.4296875
vn -0.90625 0.4238281 -0.02148438
vn -0.6191406 0.7832031 -0.06835938
vn -0.8671875 0.328125 -0.3730469
vt 0.9414063 0
vt 0.765625 0
vt 1 -0.59375
vt 0.5 -0.59375
vt 0.5 -0.9375
vt 0.5 -0.9375
vt 0.25 -0.9375
vt 0.25 -0.9375
vt 0.25 -0.9375
f 55/55/55 56/56/56 57/57/57
f 56/56/56 58/58/58 57/57/57
f 57/57/57 58/58/58 59/59/59
f 58/58/58 60/60/60 59/59/59
f 59/59/59 60/60/60 61/61/61
f 60/60/60 62/62/62 61/61/61
f 61/61/61 62/62/62 63/63/63
v 0.06884766 0.375 -0.125
v 0.1157227 0.3125 -0.484375
v 0.006347656 0 0.03125
v 0.1157227 -0.3125 -0.484375
v 0.06884766 -0.375 -0.125
v 0.2563477 -0.59375 -0.125
v 0.1625977 -0.390625 0.421875
vn -0.90625 0.4238281 -0.02148438
vn -0.8671875 0.328125 -0.3730469
vn -0.9980469 0 0.05664063
vn -0.8457031 -0.2773438 -0.4550781
vn -0.90625 -0.4238281 -0.02148438
vn -0.6171875 -0.7851563 -0.07226563
vn -0.75 -0.5039063 0.4296875
vt 0.25 -0.9375
vt 0.25 -0.9375
vt 0.5 -0.9375
vt 0.25 -0.9375
vt 0.25 -0.9375
vt 0.25 -0.9375
vt 0.25 -0.9375
f 64/64/64 65/65/65 66/66/66
f 65/65/65 67/67/67 66/66/66
f 66/66/66 67/67/67 68/68/68
f 67/67/67 69/69/69 68/68/68
f 68/68/68 69/69/69 70/70/70
v 0.375 -0.6640625 -0.15625
v 0.2563477 -0.59375 -0.125
v 0.3125 -0.3671875 -0.65625
v 0.1157227 -0.3125 -0.484375
v 0.3125 0.375 -0.65625
v 0.1157227 0.3125 -0.484375
v 0.2563477 0.59375 -0.125
vn -0.5234375 -0.8476563 -0.0859375
vn -0.6171875 -0.7851563 -0.07226563
vn -0.6328125 -0.546875 -0.5488281
vn -0.8457031 -0.2773438 -0.4550781
vn -0.6679688 0.4140625 -0.6191406
vn -0.8671875 0.328125 -0.3730469
vn -0.6191406 0.7832031 -0.06835938
vt 0.3330078 -0.921875
vt 0.328125 -0.9375
vt 0.484375 -0.921875
vt 0.484375 -0.9375
vt 0.484375 -0.921875
vt 0.484375 -0.9375
vt 0.328125 -0.9375
f 71/71/71 72/72/72 73/73/73
f 72/72/72 74/74/74 73/73/73
f 73/73/73 74/74/74 75/75/75
f 74/74/74 76/76/76 75/75/75
f 75/75/75 76/76/76 77/77/77
v 0.4555664 0.5585938 0.4375
v 0.1625977 0.390625 0.421875
v 0.4907227 0.359375 0.625
v 0.1625977 0 0.5625
v 0.5063477 0 0.71875
v 0.4907227 -0.359375 0.625
vn -0.3105469 0.8085938 0.5
vn -0.75 0.5039063 0.4296875
vn -0.08203125 0.4511719 0.8886719
vn -0.6777344 0 0.734375
vn -0.07226563 0 0.9980469
vn -0.08203125 -0.4511719 0.8886719
vt 0.05859375 0
vt 0 -0.59375
vt 0.234375 0
vt 0.5 -0.59375
vt 0.5 0
vt 0.765625 0
f 78/78/78 79/79/79 80/80/80
f 79/79/79 81/81/81 80/80/80
f 80/80/80 81/81/81 82/82/82
f 81/81/81 83/83/83 82/82/82
v 0.375 -0.6640625 -0.15625
v 0.4555664 -0.5585938 0.4375
v 0.2563477 -0.59375 -0.125
v 0.1625977 -0.390625 0.421875
vn -0.5234375 -0.8476563 -0.0859375
vn -0.3105469 -0.8085938 0.5
vn -0.6171875 -0.7851563 -0.07226563
vn -0.75 -0.5039063 0.4296875
vt 0.0625 -0.875
vt 0.0625 -0.875
vt 0.0625 -0.875
vt 0.0625 -0.875
f 84/84/84 85/85/85 86/86/86
f 85/85/85 87/87/87 86/86/86
v 0.1625977 0.390625 0.421875
v 0.4555664 0.5585938 0.4375
v 0.2563477 0.59375 -0.125
v 0.375 0.6640625 -0.15625
vn -0.75 0.5039063 0.4296875
vn -0.3105469 0.8085938 0.5
vn -0.6191406 0.7832031 -0.06835938
vn -0.5234375 0.8476563 -0.08007813
vt 0.0625 -0.875
vt 0.0625 -0.875
vt 0.0625 -0.875
vt 0.0625 -0.875
f 88/88/88 89/89/89 90/90/90
f 89/89/89 91/91/91 90/90/90
v 0.06884766 -0.375 -0.125
v 0.1625977 -0.390625 0.421875
v 0.006347656 0 0.03125
v 0.375 0.6640625 -0.15625
v 0.3125 0.375 -0.65625
v 0.2563477 0.59375 -0.125
vn -0.90625 -0.4238281 -0.02148438
vn -0.75 -0.5039063 0.4296875
vn -0.9980469 0 0.05664063
vn -0.5234375 0.8476563 -0.08007813
vn -0.6679688 0.4140625 -0.6191406
vn -0.6191406 0.7832031 -0.06835938
vt 0.25 -0.9375
vt 0.25 -0.9375
vt 0.5 -0.9375
vt 0.3330078 -0.921875
vt 0.484375 -0.921875
vt 0.328125 -0.9375
f 92/92/92 93/93/93 94/94/94
f 95/95/95 96/96/96 97/97/97
