# Created by MKDS Course Modifier
mtllib 9.mtl
g polygon0
usemtl e
v 0.4555664 -0.5585938 0.4375
v 0.9282227 -0.53125 0.34375
v 0.4907227 -0.359375 0.625
v 1.037598 0 0.5625
v 0.5063477 0 0.71875
v 0.4907227 0.359375 0.625
vn -0.2597656 -0.7871094 0.5605469
vn 0.3398438 -0.5175781 0.7851563
vn -0.1171875 -0.4570313 0.8828125
vn 0.3730469 -0.08984375 0.9238281
vn -0.07226563 0 0.9980469
vn -0.1171875 0.4570313 0.8828125
vt 1.0625 -1
vt 0.9375 -0.0625
vt 0.78125 -1
vt 0.5 0
vt 0.5 -1
vt 0.21875 -1
f 1/1/1 2/2/2 3/3/3
f 2/2/2 4/4/4 3/3/3
f 3/3/3 4/4/4 5/5/5
f 4/4/4 6/6/6 5/5/5
v 1.037598 0 0.5625
v 0.9282227 0.53125 0.34375
v 0.4907227 0.359375 0.625
v 0.4555664 0.5585938 0.4375
vn 0.3730469 -0.08984375 0.9238281
vn 0.2792969 0.5625 0.7773438
vn -0.1171875 0.4570313 0.8828125
vn -0.2597656 0.7871094 0.5605469
vt 0.5 0
vt 0.0625 -0.0625
vt 0.21875 -1
vt -0.0625 -1
f 7/7/7 8/8/8 9/9/9
f 8/8/8 10/10/10 9/9/9
g polygon1
usemtl m
v 0.4555664 -0.5585938 0.4375
v 0.4907227 -0.359375 0.625
v 0.1625977 -0.390625 0.421875
v 0.1625977 0 0.5625
v 0.006347656 0 0.03125
v 0.1625977 0.390625 0.421875
v 0.06884766 0.375 -0.125
v 0.1875 0.515625 -0.125
v 0.125 0.3125 -0.5
vn -0.2597656 -0.7871094 0.5605469
vn -0.1171875 -0.4570313 0.8828125
vn -0.7519531 -0.5058594 0.4199219
vn -0.6777344 0 0.734375
vn -0.9980469 0 0.04882813
vn -0.7519531 0.5058594 0.4199219
vn -0.9082031 0.4199219 -0.02929688
vn -0.6855469 0.7265625 0.0234375
vn -0.9453125 0.2539063 -0.2089844
vt 0.9414063 0
vt 0.765625 0
vt 1 -0.59375
vt 0.5 -0.59375
vt 0.5 -0.9375
vt 0.5 -0.9375
vt 0.5 -0.9375
vt 0.5 -0.9375
vt 0.5 -0.9375
f 11/11/11 12/12/12 13/13/13
f 12/12/12 14/14/14 13/13/13
f 13/13/13 14/14/14 15/15/15
f 14/14/14 16/16/16 15/15/15
f 15/15/15 16/16/16 17/17/17
f 16/16/16 18/18/18 17/17/17
f 17/17/17 18/18/18 19/19/19
v 0.06884766 0.375 -0.125
v 0.125 0.3125 -0.5
v 0.006347656 0 0.03125
v 0.125 -0.3125 -0.5
v 0.06884766 -0.375 -0.125
v 0.1875 -0.515625 -0.125
v 0.1625977 -0.390625 0.421875
v 0.4555664 -0.5585938 0.4375
vn -0.9082031 0.4199219 -0.02929688
vn -0.9453125 0.2539063 -0.2089844
vn -0.9980469 0 0.04882813
vn -0.9453125 -0.2539063 -0.2089844
vn -0.9082031 -0.4199219 -0.02929688
vn -0.6855469 -0.7265625 0.0234375
vn -0.7519531 -0.5058594 0.4199219
vn -0.2597656 -0.7871094 0.5605469
vt 0.5 -0.9375
vt 0.5 -0.9375
vt 0.5 -0.9375
vt 0.5 -0.9375
vt 0.5 -0.9375
vt 0.5 -0.9375
vt 0.5 -0.9375
vt 0.9414063 0
f 20/20/20 21/21/21 22/22/22
f 21/21/21 23/23/23 22/22/22
f 22/22/22 23/23/23 24/24/24
f 23/23/23 25/25/25 24/24/24
f 24/24/24 25/25/25 26/26/26
f 25/25/25 27/27/27 26/26/26
v 0.4907227 -0.359375 0.625
v 0.5063477 0 0.71875
v 0.1625977 0 0.5625
v 0.4907227 0.359375 0.625
v 0.1625977 0.390625 0.421875
v 0.4555664 0.5585938 0.4375
v 0.1875 0.515625 -0.125
vn -0.1171875 -0.4570313 0.8828125
vn -0.07226563 0 0.9980469
vn -0.6777344 0 0.734375
vn -0.1171875 0.4570313 0.8828125
vn -0.7519531 0.5058594 0.4199219
vn -0.2597656 0.7871094 0.5605469
vn -0.6855469 0.7265625 0.0234375
vt 0.765625 0
vt 0.5 0
vt 0.5 -0.59375
vt 0.234375 0
vt 0 -0.59375
vt 0.05859375 0
vt 0.5 -0.9375
f 28/28/28 29/29/29 30/30/30
f 29/29/29 31/31/31 30/30/30
f 30/30/30 31/31/31 32/32/32
f 31/31/31 33/33/33 32/32/32
f 32/32/32 33/33/33 34/34/34
v 0.06884766 -0.375 -0.125
v 0.1625977 -0.390625 0.421875
v 0.006347656 0 0.03125
vn -0.9082031 -0.4199219 -0.02929688
vn -0.7519531 -0.5058594 0.4199219
vn -0.9980469 0 0.04882813
vt 0.5 -0.9375
vt 0.5 -0.9375
vt 0.5 -0.9375
f 35/35/35 36/36/36 37/37/37
g polygon2
usemtl hair
v 0.0625 0.6875 -0.21875
v 0.78125 0.71875 -0.3125
v 0.09375 0.484375 -0.59375
v 0.8125 0.453125 -0.625
v 0.4375 0 -0.78125
v 0.8500977 0 -0.8125
v 0.8125 -0.453125 -0.625
v 1.21875 0 -0.5625
v 1.15625 -0.40625 -0.40625
v 1.375 0 -0.09375
v 1.28125 -0.375 0.15625
v 1.28125 -0.1875 0.5
vn 0.25 0.8984375 -0.3632813
vn 0.25 0.8984375 -0.3632813
vn 0.01757813 0.640625 -0.7675781
vn 0.2519531 0.5195313 -0.8164063
vn 0.03515625 0 -1
vn 0.2578125 0 -0.9667969
vn 0.2519531 -0.5195313 -0.8164063
vn 0.7324219 0 -0.6816406
vn 0.7402344 -0.5429688 -0.3945313
vn 0.9960938 0.005859375 -0.08203125
vn 0.8300781 -0.5292969 0.1757813
vn 0.71875 -0.3925781 0.5742188
vt 0.625 -0.625
vt 0.625 -0.625
vt 0.625 -0.625
vt 0.625 -0.625
vt 0.625 -0.625
vt 0.625 -0.625
vt 0.625 -0.625
vt 0.625 -0.625
vt 0.625 -0.625
vt 0.625 -0.625
vt 0.625 -0.625
vt 0.625 -0.625
f 38/38/38 39/39/39 40/40/40
f 39/39/39 41/41/41 40/40/40
f 40/40/40 41/41/41 42/42/42
f 41/41/41 43/43/43 42/42/42
f 42/42/42 43/43/43 44/44/44
f 43/43/43 45/45/45 44/44/44
f 44/44/44 45/45/45 46/46/46
f 45/45/45 47/47/47 46/46/46
f 46/46/46 47/47/47 48/48/48
f 47/47/47 49/49/49 48/48/48
v 0.4375 0 -0.78125
v 0.8125 -0.453125 -0.625
v 0.09375 -0.484375 -0.59375
v 0.78125 -0.71875 -0.3125
v 0.0625 -0.6875 -0.21875
v 0.8125 -0.625 0.375
v 0.53125 -0.71875 0.375
vn 0.03515625 0 -1
vn 0.2519531 -0.5195313 -0.8164063
vn 0.01757813 -0.640625 -0.7675781
vn 0.1992188 -0.9296875 -0.3125
vn 0.28125 -0.8847656 -0.3710938
vn 0.1914063 -0.9804688 0.04101563
vn 0.5976563 -0.6210938 -0.5058594
vt 0.625 -0.625
vt 0.625 -0.625
vt 0.625 -0.625
vt 0.625 -0.625
vt 0.625 -0.625
vt 0.625 -0.625
vt 0.625 -0.625
f 50/50/50 51/51/51 52/52/52
f 51/51/51 53/53/53 52/52/52
f 52/52/52 53/53/53 54/54/54
f 53/53/53 55/55/55 54/54/54
f 54/54/54 55/55/55 56/56/56
v 0.9282227 0.53125 0.34375
v 0.8125 0.65625 0.375
v 0.4555664 0.5585938 0.4375
v 0.53125 0.71875 0.375
v 0.28125 0.59375 0.40625
v 0.21875 0.78125 0.28125
vn -0.8261719 -0.5585938 0.06835938
vn -0.2851563 -0.171875 0.9433594
vn 0.0625 0.2265625 0.9726563
vn -0.04882813 0.5214844 0.8515625
vn -0.1171875 0.4570313 0.8828125
vn -0.09179688 0.6621094 0.7441406
vt 0.3125 -0.625
vt 0.375 -0.5
vt 0.3125 -0.8164063
vt 0.5 -0.75
vt 0.375 -0.9609375
vt 0.625 -0.9960938
f 57/57/57 58/58/58 59/59/59
f 58/58/58 60/60/60 59/59/59
f 59/59/59 60/60/60 61/61/61
f 60/60/60 62/62/62 61/61/61
v 0.8125 -0.453125 -0.625
v 1.15625 -0.40625 -0.40625
v 0.78125 -0.71875 -0.3125
v 1.0625 -0.625 0
v 0.8125 -0.625 0.375
v 1.09375 -0.5625 0.265625
vn 0.2519531 -0.5195313 -0.8164063
vn 0.7402344 -0.5429688 -0.3945313
vn 0.1992188 -0.9296875 -0.3125
vn 0.5410156 -0.8417969 -0.0078125
vn 0.1914063 -0.9804688 0.04101563
vn 0.5917969 -0.6210938 0.5136719
vt 0.625 -0.625
vt 0.625 -0.625
vt 0.625 -0.625
vt 0.625 -0.625
vt 0.625 -0.625
vt 0.625 -0.625
f 63/63/63 64/64/64 65/65/65
f 64/64/64 66/66/66 65/65/65
f 65/65/65 66/66/66 67/67/67
f 66/66/66 68/68/68 67/67/67
v 0.8500977 0 -0.8125
v 0.8125 0.453125 -0.625
v 1.21875 0 -0.5625
v 1.15625 0.40625 -0.40625
v 1.375 0 -0.09375
v 1.28125 0.375 0.15625
vn 0.2578125 0 -0.9667969
vn 0.2519531 0.5195313 -0.8164063
vn 0.7324219 0 -0.6816406
vn 0.7402344 0.5429688 -0.3945313
vn 0.9960938 0.005859375 -0.08203125
vn 0.8710938 0.484375 0.0703125
vt 0.625 -0.625
vt 0.625 -0.625
vt 0.625 -0.625
vt 0.625 -0.625
vt 0.625 -0.625
vt 0.625 -0.625
f 69/69/69 70/70/70 71/71/71
f 70/70/70 72/72/72 71/71/71
f 71/71/71 72/72/72 73/73/73
f 72/72/72 74/74/74 73/73/73
v 1.28125 -0.1875 0.5
v 1.375 0 -0.09375
v 1.25 0.1875 0.5
v 1.28125 0.375 0.15625
v 1.125 0.5 0.3125
v 1.0625 0.625 0
vn 0.71875 -0.3925781 0.5742188
vn 0.9960938 0.005859375 -0.08203125
vn 0.7636719 0.28125 0.5800781
vn 0.8710938 0.484375 0.0703125
vn 0.59375 0.6816406 0.4277344
vn 0.5800781 0.8144531 0.0078125
vt 0.625 -0.625
vt 0.625 -0.625
vt 0.625 -0.625
vt 0.625 -0.625
vt 0.625 -0.625
vt 0.625 -0.625
f 75/75/75 76/76/76 77/77/77
f 76/76/76 78/78/78 77/77/77
f 77/77/77 78/78/78 79/79/79
f 78/78/78 80/80/80 79/79/79
v 0.21875 -0.78125 0.28125
v 0.28125 -0.59375 0.40625
v 0.0625 -0.6875 -0.21875
v 0.125 0 -0.5
v 0.09375 -0.484375 -0.59375
v 0.15625 0 -0.84375
vn -0.9355469 -0.2539063 0.2441406
vn -0.7988281 0.4101563 0.4375
vn -0.9804688 -0.05273438 0.1894531
vn -0.9746094 0 0.2207031
vn -0.9941406 0.07617188 -0.06640625
vn -0.9960938 0 -0.08984375
vt 0.3125 -0.5664063
vt 0.3125 -0.5664063
vt 0.3125 -0.5664063
vt 0.3125 -0.5664063
vt 0.3125 -0.5664063
vt 0.3125 -0.5664063
f 81/81/81 82/82/82 83/83/83
f 82/82/82 84/84/84 83/83/83
f 83/83/83 84/84/84 85/85/85
f 84/84/84 86/86/86 85/85/85
v 0.8125 0.65625 0.375
v 0.9282227 0.53125 0.34375
v 0.875 0.3125 0.65625
v 1.037598 0 0.5625
v 0.9375 -0.0625 0.6875
v 1.03125 -0.28125 0.5625
vn -0.2851563 -0.171875 0.9433594
vn -0.8261719 -0.5585938 0.06835938
vn -0.7773438 -0.3515625 -0.5214844
vn -0.8457031 -0.1210938 -0.5195313
vn -0.7578125 -0.08007813 -0.6464844
vn -0.8691406 0.01953125 -0.4941406
vt 0.125 -0.25
vt 0.25 -0.375
vt 0.40625 -0.25
vt 0.75 -0.375
vt 0.65625 -0.25
vt 0.875 -0.1875
f 87/87/87 88/88/88 89/89/89
f 88/88/88 90/90/90 89/89/89
f 89/89/89 90/90/90 91/91/91
f 90/90/90 92/92/92 91/91/91
v 0.9375 -0.0625 0.6875
v 1.03125 -0.28125 0.5625
v 1.28125 -0.1875 0.5
v 1.125 -0.375 0.3125
v 1.28125 -0.375 0.15625
vn 0.4296875 -0.0546875 0.9003906
vn 0.3984375 -0.5996094 0.6933594
vn 0.71875 -0.3925781 0.5742188
vn 0.421875 -0.7929688 0.4414063
vn 0.8300781 -0.5292969 0.1757813
vt 0 -0.484375
vt 0.375 -0.484375
vt 0.25 -0.0625
vt 0.6875 -0.34375
vt 0.84375 -0.125
f 93/93/93 94/94/94 95/95/95
f 94/94/94 96/96/96 95/95/95
f 95/95/95 96/96/96 97/97/97
v 0.4555664 -0.5585938 0.4375
v 0.28125 -0.59375 0.40625
v 0.53125 -0.71875 0.375
v 0.21875 -0.78125 0.28125
v 0.28125 -0.90625 0.125
vn 0.06835938 -0.234375 0.96875
vn -0.1171875 -0.4570313 0.8828125
vn -0.04101563 -0.5175781 0.8535156
vn -0.09179688 -0.6621094 0.7441406
vn -0.02734375 -0.7851563 0.6171875
vt 0.375 -0.8125
vt 0.375 -0.9609375
vt 0.5 -0.75
vt 0.625 -0.9960938
vt 0.7421875 -0.90625
f 98/98/98 99/99/99 100/100/100
f 99/99/99 101/101/101 100/100/100
f 100/100/100 101/101/101 102/102/102
v 0.5219727 0.90625 0
v 0.6782227 0.8125 0
v 0.5063477 0.796875 -0.125
v 0.4438477 0.015625 0
v 0.3344727 0.78125 0
vn -0.03515625 0.7539063 -0.65625
vn 0.5488281 0.2734375 -0.7890625
vn -0.01953125 0.3691406 -0.9296875
vn 0.005859375 -0.1582031 -0.9882813
vn -0.5742188 0.3359375 -0.7460938
vt 0.125 -0.75
vt 0.125 -0.75
vt 0.125 -0.75
vt 0.125 -0.75
vt 0.125 -0.75
f 103/103/103 104/104/104 105/105/105
f 104/104/104 106/106/106 105/105/105
f 105/105/105 106/106/106 107/107/107
v 0.4555664 0.5585938 0.4375
v 0.28125 0.59375 0.40625
v 0.125 0 -0.5
v 0.0625 0.6875 -0.21875
v 0.09375 0.484375 -0.59375
vn -0.2597656 -0.7871094 0.5605469
vn -0.7988281 -0.4101563 0.4375
vn -0.9746094 0 0.2207031
vn -0.9804688 0.05273438 0.1894531
vn -0.9941406 -0.07617188 -0.06640625
vt 0.3125 -0.5664063
vt 0.3125 -0.5664063
vt 0.3125 -0.5664063
vt 0.3125 -0.5664063
vt 0.3125 -0.5664063
f 108/108/108 109/109/109 110/110/110
f 109/109/109 111/111/111 110/110/110
f 110/110/110 111/111/111 112/112/112
v 0.6782227 -0.8125 0
v 0.5219727 -0.90625 0
v 0.5063477 -0.796875 -0.125
v 0.3344727 -0.78125 0
v 0.4438477 -0.015625 0
vn 0.5488281 -0.2734375 -0.7890625
vn -0.03515625 -0.7539063 -0.65625
vn -0.01953125 -0.3691406 -0.9296875
vn -0.5742188 -0.3359375 -0.7460938
vn 0.005859375 0.1582031 -0.9882813
vt 0.125 -0.75
vt 0.125 -0.75
vt 0.125 -0.75
vt 0.125 -0.75
vt 0.125 -0.75
f 113/113/113 114/114/114 115/115/115
f 114/114/114 116/116/116 115/115/115
f 115/115/115 116/116/116 117/117/117
v 0.6782227 -0.8125 0
v 0.4438477 -0.015625 0
v 0.5219727 -0.90625 0
v 0.3344727 -0.78125 0
vn 0 0 0.9980469
vn 0 0 0.9980469
vn 0 0 0.9980469
vn 0 0 0.9980469
vt 0.125 -0.75
vt 0.125 -0.75
vt 0.125 -0.75
vt 0.125 -0.75
f 118/118/118 119/119/119 120/120/120
f 119/119/119 121/121/121 120/120/120
v 1.28125 0.375 0.15625
v 1.15625 0.40625 -0.40625
v 1.0625 0.625 0
v 0.78125 0.71875 -0.3125
vn 0.8710938 0.484375 0.0703125
vn 0.7402344 0.5429688 -0.3945313
vn 0.5800781 0.8144531 0.0078125
vn 0.25 0.8984375 -0.3632813
vt 0.625 -0.625
vt 0.625 -0.625
vt 0.625 -0.625
vt 0.625 -0.625
f 122/122/122 123/123/123 124/124/124
f 123/123/123 125/125/125 124/124/124
v 0.6782227 0.8125 0
v 0.5219727 0.90625 0
v 0.4438477 0.015625 0
v 0.3344727 0.78125 0
vn 0 0 0.9980469
vn 0 0 0.9980469
vn 0 0 0.9980469
vn 0 0 0.9980469
vt 0.125 -0.75
vt 0.125 -0.75
vt 0.125 -0.75
vt 0.125 -0.75
f 126/126/126 127/127/127 128/128/128
f 127/127/127 129/129/129 128/128/128
v 0.09375 0.484375 -0.59375
v 0.4375 0 -0.78125
v 0.15625 0 -0.84375
v 0.09375 -0.484375 -0.59375
vn 0.01757813 0.640625 -0.7675781
vn 0.03515625 0 -1
vn 0.2578125 0 -0.9667969
vn 0.01757813 -0.640625 -0.7675781
vt 0.625 -0.625
vt 0.625 -0.625
vt 0.625 -0.625
vt 0.625 -0.625
f 130/130/130 131/131/131 132/132/132
f 131/131/131 133/133/133 132/132/132
v 1.125 0.5 0.3125
v 1.0625 0.625 0
v 0.8125 0.65625 0.375
v 0.78125 0.71875 -0.3125
vn 0.59375 0.6816406 0.4277344
vn 0.5800781 0.8144531 0.0078125
vn 0.2851563 0.9414063 0.1835938
vn 0.25 0.8984375 -0.3632813
vt 0.75 -0.5625
vt 1.5 -0.625
vt 0.875 -0.984375
vt 2.125 -0.984375
f 134/134/134 135/135/135 136/136/136
f 135/135/135 137/137/137 136/136/136
v 0.875 0.3125 0.65625
v 0.9375 -0.0625 0.6875
v 1.25 0.1875 0.5
v 1.28125 -0.1875 0.5
vn 0.4570313 0.4628906 0.7597656
vn 0.4296875 -0.0546875 0.9003906
vn 0.7636719 0.28125 0.5800781
vn 0.71875 -0.3925781 0.5742188
vt 0 -0.484375
vt 0.75 -0.484375
vt 0.25 0
vt 1 -0.0625
f 138/138/138 139/139/139 140/140/140
f 139/139/139 141/141/141 140/140/140
v 1.09375 -0.5625 0.265625
v 1.0625 -0.625 0
v 1.28125 -0.375 0.15625
v 1.15625 -0.40625 -0.40625
vn 0.5917969 -0.6210938 0.5136719
vn 0.5410156 -0.8417969 -0.0078125
vn 0.8300781 -0.5292969 0.1757813
vn 0.7402344 -0.5429688 -0.3945313
vt 0.625 -0.625
vt 0.625 -0.625
vt 0.625 -0.625
vt 0.625 -0.625
f 142/142/142 143/143/143 144/144/144
f 143/143/143 145/145/145 144/144/144
v 0.53125 0.71875 0.375
v 0.8125 0.65625 0.375
v 0.0625 0.6875 -0.21875
v 0.78125 0.71875 -0.3125
vn 0.5664063 0.6679688 -0.4824219
vn 0.2851563 0.9414063 0.1835938
vn 0.25 0.8984375 -0.3632813
vn 0.25 0.8984375 -0.3632813
vt 0.875 -0.515625
vt 0.875 -1
vt 2.125 -0.515625
vt 2.125 -1
f 146/146/146 147/147/147 148/148/148
f 147/147/147 149/149/149 148/148/148
v 1.25 0.1875 0.5
v 1.125 0.5 0.3125
v 0.875 0.3125 0.65625
v 0.8125 0.65625 0.375
vn 0.7636719 0.28125 0.5800781
vn 0.59375 0.6816406 0.4277344
vn 0.4570313 0.4628906 0.7597656
vn 0.2851563 0.9414063 0.1835938
vt 1 0
vt 0.125 -0.0625
vt 0.75 -0.484375
vt 0 -0.484375
f 150/150/150 151/151/151 152/152/152
f 151/151/151 153/153/153 152/152/152
v 1.28125 -0.375 0.15625
v 1.125 -0.375 0.3125
v 1.09375 -0.5625 0.265625
v 0.8125 -0.625 0.375
vn 0.8300781 -0.5292969 0.1757813
vn 0.4375 -0.1875 0.8789063
vn 0.5917969 -0.6210938 0.5136719
vn 0.2324219 -0.1972656 0.953125
vt 0.4375 -0.5
vt 0.25 -0.546875
vt 0.5 -0.546875
vt 0.46875 -0.6875
f 154/154/154 155/155/155 156/156/156
f 155/155/155 157/157/157 156/156/156
v 1.125 -0.375 0.3125
v 0.4555664 -0.5585938 0.4375
v 0.8125 -0.625 0.375
v 0.53125 -0.71875 0.375
vn 0.4375 -0.1875 0.8789063
vn 0.06835938 -0.234375 0.96875
vn 0.2324219 -0.1972656 0.953125
vn -0.04101563 -0.5175781 0.8535156
vt 0.25 -0.546875
vt 0.375 -0.8125
vt 0.46875 -0.6875
vt 0.5 -0.75
f 158/158/158 159/159/159 160/160/160
f 159/159/159 161/161/161 160/160/160
v 0.5063477 -0.796875 -0.125
v 0.4438477 -0.015625 0
v 0.6782227 -0.8125 0
v 0.3344727 0.78125 0
v 0.5219727 0.90625 0
v 0.5063477 0.796875 -0.125
v 0.0625 -0.6875 -0.21875
v 0.53125 -0.71875 0.375
v 0.28125 -0.90625 0.125
v 0.53125 0.71875 0.375
v 0.0625 0.6875 -0.21875
v 0.28125 0.90625 0.125
v 0.0625 0.6875 -0.21875
v 0.28125 0.59375 0.40625
v 0.21875 0.78125 0.28125
v 0.21875 -0.78125 0.28125
v 0.0625 -0.6875 -0.21875
v 0.28125 -0.90625 0.125
v 0.125 0 -0.5
v 0.09375 0.484375 -0.59375
v 0.15625 0 -0.84375
v 0.8125 0.453125 -0.625
v 0.78125 0.71875 -0.3125
v 1.15625 0.40625 -0.40625
v 1.125 -0.375 0.3125
v 1.037598 0 0.5625
v 0.9282227 -0.53125 0.34375
v 1.125 -0.375 0.3125
v 1.03125 -0.28125 0.5625
v 1.037598 0 0.5625
v 0.4555664 -0.5585938 0.4375
v 0.125 0 -0.5
v 0.28125 -0.59375 0.40625
v 0.0625 0.6875 -0.21875
v 0.21875 0.78125 0.28125
v 0.28125 0.90625 0.125
v 0.53125 0.71875 0.375
v 0.28125 0.90625 0.125
v 0.21875 0.78125 0.28125
vn -0.01953125 -0.3691406 -0.9296875
vn 0.005859375 0.1582031 -0.9882813
vn 0.5488281 -0.2734375 -0.7890625
vn -0.5742188 0.3359375 -0.7460938
vn -0.03515625 0.7539063 -0.65625
vn -0.01953125 0.3691406 -0.9296875
vn 0.28125 -0.8847656 -0.3710938
vn 0.5976563 -0.6210938 -0.5058594
vn 0.7636719 -0.2011719 -0.6132813
vn 0.5664063 0.6679688 -0.4824219
vn 0.25 0.8984375 -0.3632813
vn 0.7636719 0.2011719 -0.6132813
vn -0.9804688 0.05273438 0.1894531
vn -0.7988281 -0.4101563 0.4375
vn -0.9355469 0.2539063 0.2441406
vn -0.9355469 -0.2539063 0.2441406
vn -0.9804688 -0.05273438 0.1894531
vn -0.8027344 -0.5800781 0.1425781
vn -0.9746094 0 0.2207031
vn -0.9941406 -0.07617188 -0.06640625
vn -0.9960938 0 -0.08984375
vn 0.2519531 0.5195313 -0.8164063
vn 0.25 0.8984375 -0.3632813
vn 0.7402344 0.5429688 -0.3945313
vn 0.4570313 -0.4179688 0.7851563
vn 0.3730469 -0.08984375 0.9238281
vn 0.3398438 -0.5175781 0.7851563
vn -0.9335938 0.02148438 -0.3574219
vn -0.8691406 0.01953125 -0.4941406
vn -0.8457031 -0.1210938 -0.5195313
vn -0.2597656 0.7871094 0.5605469
vn -0.9746094 0 0.2207031
vn -0.7988281 0.4101563 0.4375
vn -0.9804688 0.05273438 0.1894531
vn -0.9355469 0.2539063 0.2441406
vn -0.8027344 0.5800781 0.1425781
vn -0.04882813 0.5214844 0.8515625
vn -0.02734375 0.7851563 0.6171875
vn -0.09179688 0.6621094 0.7441406
vt 0.125 -0.75
vt 0.125 -0.75
vt 0.125 -0.75
vt 0.125 -0.75
vt 0.125 -0.75
vt 0.125 -0.75
vt 0.625 -0.625
vt 0.625 -0.625
vt 0.625 -0.625
vt 0.625 -0.625
vt 0.625 -0.625
vt 0.625 -0.625
vt 0.3125 -0.5664063
vt 0.3125 -0.5664063
vt 0.3125 -0.5664063
vt 0.625 -0.9960938
vt 0.7421875 -0.9960938
vt 0.7421875 -0.90625
vt 0.3125 -0.5664063
vt 0.3125 -0.5664063
vt 0.3125 -0.5664063
vt 0.625 -0.625
vt 0.625 -0.625
vt 0.625 -0.625
vt 0.125 -0.5039063
vt 0 -0.8164063
vt 0.2421875 -0.5625
vt 0.9375 -0.125
vt 0.875 -0.1875
vt 0.75 -0.375
vt 0.3125 -0.5664063
vt 0.3125 -0.5664063
vt 0.3125 -0.5664063
vt 0.7421875 -0.9960938
vt 0.625 -0.9960938
vt 0.7421875 -0.90625
vt 0.5 -0.75
vt 0.7421875 -0.90625
vt 0.625 -0.9960938
f 162/162/162 163/163/163 164/164/164
f 165/165/165 166/166/166 167/167/167
f 168/168/168 169/169/169 170/170/170
f 171/171/171 172/172/172 173/173/173
f 174/174/174 175/175/175 176/176/176
f 177/177/177 178/178/178 179/179/179
f 180/180/180 181/181/181 182/182/182
f 183/183/183 184/184/184 185/185/185
f 186/186/186 187/187/187 188/188/188
f 189/189/189 190/190/190 191/191/191
f 192/192/192 193/193/193 194/194/194
f 195/195/195 196/196/196 197/197/197
f 198/198/198 199/199/199 200/200/200
