# Created by MKDS Course Modifier
mtllib 6.mtl
g polygon0
usemtl e
v 0.4438477 -0.625 0.375
v 0.9282227 -0.53125 0.34375
v 0.4907227 -0.359375 0.625
v 1.037598 0 0.5625
v 0.5063477 0 0.71875
v 0.4907227 0.359375 0.625
vn -0.2128906 -0.8710938 0.4414063
vn 0.1328125 -0.71875 0.6816406
vn -0.08203125 -0.4511719 0.8886719
vn 0.34375 0 0.9394531
vn -0.07226563 0 0.9980469
vn -0.08203125 0.4511719 0.8886719
vt 1.0625 -1
vt 0.9375 -0.0625
vt 0.78125 -1
vt 0.5 0
vt 0.5 -1
vt 0.21875 -1
f 1/1/1 2/2/2 3/3/3
f 2/2/2 4/4/4 3/3/3
f 3/3/3 4/4/4 5/5/5
f 4/4/4 6/6/6 5/5/5
v 1.037598 0 0.5625
v 0.9282227 0.53125 0.34375
v 0.4907227 0.359375 0.625
v 0.4438477 0.625 0.375
vn 0.34375 0 0.9394531
vn 0.1328125 0.71875 0.6816406
vn -0.08203125 0.4511719 0.8886719
vn -0.2128906 0.8710938 0.4414063
vt 0.5 0
vt 0.0625 -0.0625
vt 0.21875 -1
vt -0.0625 -1
f 7/7/7 8/8/8 9/9/9
f 8/8/8 10/10/10 9/9/9
g polygon1
usemtl m
v 0.4438477 -0.625 0.375
v 0.4907227 -0.359375 0.625
v 0.1625977 -0.390625 0.421875
v 0.1625977 0 0.5625
v 0.006347656 0 0.03125
v 0.1625977 0.390625 0.421875
v 0.06884766 0.375 -0.125
v 0.2563477 0.59375 -0.125
v 0.1157227 0.3125 -0.484375
vn -0.2128906 -0.8710938 0.4414063
vn -0.08203125 -0.4511719 0.8886719
vn -0.765625 -0.4882813 0.4179688
vn -0.6777344 0 0.734375
vn -0.9980469 0 0.05664063
vn -0.765625 0.4882813 0.4179688
vn -0.90625 0.4238281 -0.02148438
vn -0.5546875 0.8300781 -0.07617188
vn -0.8007813 0.3417969 -0.4921875
vt 1 0
vt 0.765625 0
vt 1 -0.59375
vt 0.5 -0.59375
vt 0.5 -0.9375
vt 0.5 -0.9375
vt 0.5 -0.9375
vt 0.5 -0.9375
vt 0.5 -0.9375
f 11/11/11 12/12/12 13/13/13
f 12/12/12 14/14/14 13/13/13
f 13/13/13 14/14/14 15/15/15
f 14/14/14 16/16/16 15/15/15
f 15/15/15 16/16/16 17/17/17
f 16/16/16 18/18/18 17/17/17
f 17/17/17 18/18/18 19/19/19
v 0.4438477 -0.625 0.375
v 0.1625977 -0.390625 0.421875
v 0.2563477 -0.59375 -0.125
v 0.06884766 -0.375 -0.125
v 0.1157227 -0.3125 -0.484375
v 0.006347656 0 0.03125
v 0.1157227 0.3125 -0.484375
v 0.06884766 0.375 -0.125
vn -0.2128906 -0.8710938 0.4414063
vn -0.765625 -0.4882813 0.4179688
vn -0.5546875 -0.8300781 -0.07617188
vn -0.90625 -0.4238281 -0.02148438
vn -0.8007813 -0.3417969 -0.4921875
vn -0.9980469 0 0.05664063
vn -0.8007813 0.3417969 -0.4921875
vn -0.90625 0.4238281 -0.02148438
vt 0.5 -0.9375
vt 0.5 -0.9375
vt 0.5 -0.9375
vt 0.5 -0.9375
vt 0.5 -0.9375
vt 0.5 -0.9375
vt 0.5 -0.9375
vt 0.5 -0.9375
f 20/20/20 21/21/21 22/22/22
f 21/21/21 23/23/23 22/22/22
f 22/22/22 23/23/23 24/24/24
f 23/23/23 25/25/25 24/24/24
f 24/24/24 25/25/25 26/26/26
f 25/25/25 27/27/27 26/26/26
v 0.4438477 0.625 0.375
v 0.1625977 0.390625 0.421875
v 0.4907227 0.359375 0.625
v 0.1625977 0 0.5625
v 0.5063477 0 0.71875
v 0.4907227 -0.359375 0.625
vn -0.2128906 0.8710938 0.4414063
vn -0.765625 0.4882813 0.4179688
vn -0.08203125 0.4511719 0.8886719
vn -0.6777344 0 0.734375
vn -0.07226563 0 0.9980469
vn -0.08203125 -0.4511719 0.8886719
vt 0 0
vt 0 -0.59375
vt 0.234375 0
vt 0.5 -0.59375
vt 0.5 0
vt 0.765625 0
f 28/28/28 29/29/29 30/30/30
f 29/29/29 31/31/31 30/30/30
f 30/30/30 31/31/31 32/32/32
f 31/31/31 33/33/33 32/32/32
v 0.1625977 0.390625 0.421875
v 0.4438477 0.625 0.375
v 0.2563477 0.59375 -0.125
v 0.06884766 -0.375 -0.125
v 0.1625977 -0.390625 0.421875
v 0.006347656 0 0.03125
vn -0.765625 0.4882813 0.4179688
vn -0.2128906 0.8710938 0.4414063
vn -0.5546875 0.8300781 -0.07617188
vn -0.90625 -0.4238281 -0.02148438
vn -0.765625 -0.4882813 0.4179688
vn -0.9980469 0 0.05664063
vt 0.5 -0.9375
vt 0.5 -0.9375
vt 0.5 -0.9375
vt 0.5 -0.9375
vt 0.5 -0.9375
vt 0.5 -0.9375
f 34/34/34 35/35/35 36/36/36
f 37/37/37 38/38/38 39/39/39
g polygon2
usemtl hair
v 0.2563477 0.59375 -0.125
v 0.4750977 0.484375 -0.59375
v 0.1157227 0.3125 -0.484375
v 0.4438477 0 -0.75
v 0.1157227 -0.3125 -0.484375
v 0.4750977 -0.484375 -0.59375
v 0.2563477 -0.59375 -0.125
v 0.5625 -0.71875 -0.15625
v 0.59375 -0.703125 0.0625
v 0.8125 -0.71875 0.125
v 0.9282227 -0.53125 0.34375
vn -0.5546875 0.8300781 -0.07617188
vn -0.6113281 0.6015625 -0.515625
vn -0.8007813 0.3417969 -0.4921875
vn -0.6933594 0 -0.7207031
vn -0.8007813 -0.3417969 -0.4921875
vn -0.6113281 -0.6015625 -0.515625
vn -0.5546875 -0.8300781 -0.07617188
vn -0.421875 -0.9023438 -0.09765625
vn -0.1816406 -0.9433594 0.2773438
vn -0.2128906 -0.8710938 0.4414063
vn 0.1328125 -0.71875 0.6816406
vt 0.328125 -0.453125
vt 0.5 -0.34375
vt 0.5 -0.46875
vt 0.5 -0.34375
vt 0.5 -0.46875
vt 0.5 -0.34375
vt 0.328125 -0.453125
vt 0.328125 -0.34375
vt 0.1875 -0.34375
vt 0.140625 -0.2578125
vt 0.015625 -0.2578125
f 40/40/40 41/41/41 42/42/42
f 41/41/41 43/43/43 42/42/42
f 42/42/42 43/43/43 44/44/44
f 43/43/43 45/45/45 44/44/44
f 44/44/44 45/45/45 46/46/46
f 45/45/45 47/47/47 46/46/46
f 46/46/46 47/47/47 48/48/48
f 47/47/47 49/49/49 48/48/48
f 48/48/48 49/49/49 50/50/50
v 0.9414063 -0.2578125 0.6796875
v 0.90625 -0.46875 0.5625
v 1.3125 -0.21875 0.4375
v 1.125 -0.5625 0.3125
v 1.25 -0.5 -0.125
v 0.9375 -0.71875 -0.1875
v 1.203125 -0.40625 -0.5
v 0.859375 -0.46875 -0.65625
v 0.84375 0 -0.84375
v 0.53125 -0.53125 -0.65625
v 0.515625 0 -0.84375
vn 0.5136719 -0.4804688 0.7109375
vn 0.4160156 -0.6503906 0.6347656
vn 0.828125 -0.328125 0.4550781
vn 0.5292969 -0.7871094 0.3183594
vn 0.8339844 -0.5507813 -0.046875
vn 0.3085938 -0.9277344 -0.2109375
vn 0.7070313 -0.4511719 -0.5449219
vn 0.2773438 -0.625 -0.7304688
vn 0.28125 0 -0.9589844
vn 0.0546875 -0.6777344 -0.734375
vn 0 0 -1
vt 0.4375 -0.28125
vt 0.4375 -0.28125
vt 0.4375 -0.28125
vt 0.4375 -0.28125
vt 0.4375 -0.28125
vt 0.4375 -0.28125
vt 0.4375 -0.28125
vt 0.4375 -0.28125
vt 0.4375 -0.28125
vt 0.4375 -0.28125
vt 0.4375 -0.28125
f 51/51/51 52/52/52 53/53/53
f 52/52/52 54/54/54 53/53/53
f 53/53/53 54/54/54 55/55/55
f 54/54/54 56/56/56 55/55/55
f 55/55/55 56/56/56 57/57/57
f 56/56/56 58/58/58 57/57/57
f 57/57/57 58/58/58 59/59/59
f 58/58/58 60/60/60 59/59/59
f 59/59/59 60/60/60 61/61/61
v 0.515625 0 -0.84375
v 0.53125 0.53125 -0.65625
v 0.84375 0 -0.84375
v 0.859375 0.46875 -0.65625
v 1.203125 0.40625 -0.5
v 0.9375 0.71875 -0.1875
v 1.25 0.5 -0.125
v 1.125 0.5625 0.3125
v 1.3125 0.21875 0.4375
vn 0 0 -1
vn 0.0546875 0.6777344 -0.734375
vn 0.28125 0 -0.9589844
vn 0.2773438 0.625 -0.7304688
vn 0.7070313 0.4511719 -0.5449219
vn 0.3085938 0.9277344 -0.2109375
vn 0.8339844 0.5507813 -0.046875
vn 0.5292969 0.7871094 0.3183594
vn 0.8085938 0.28125 0.515625
vt 0.4375 -0.28125
vt 0.4375 -0.28125
vt 0.4375 -0.28125
vt 0.4375 -0.28125
vt 0.4375 -0.28125
vt 0.4375 -0.28125
vt 0.4375 -0.28125
vt 0.4375 -0.28125
vt 0.4375 -0.28125
f 62/62/62 63/63/63 64/64/64
f 63/63/63 65/65/65 64/64/64
f 64/64/64 65/65/65 66/66/66
f 65/65/65 67/67/67 66/66/66
f 66/66/66 67/67/67 68/68/68
f 67/67/67 69/69/69 68/68/68
f 68/68/68 69/69/69 70/70/70
v 0.9414063 0.2578125 0.6796875
v 1.3125 0.21875 0.4375
v 0.90625 0.46875 0.5625
v 1.125 0.5625 0.3125
v 0.8125 0.71875 0.125
v 0.9375 0.71875 -0.1875
v 0.5625 0.71875 -0.15625
v 0.53125 0.53125 -0.65625
vn 0.5136719 0.4804688 0.7109375
vn 0.8085938 0.28125 0.515625
vn 0.4160156 0.6503906 0.6347656
vn 0.5292969 0.7871094 0.3183594
vn 0.1816406 0.9609375 0.2109375
vn 0.3085938 0.9277344 -0.2109375
vn -0.015625 0.984375 -0.1777344
vn 0.0546875 0.6777344 -0.734375
vt 0.4375 -0.28125
vt 0.4375 -0.28125
vt 0.4375 -0.28125
vt 0.4375 -0.28125
vt 0.4375 -0.28125
vt 0.4375 -0.28125
vt 0.4375 -0.28125
vt 0.4375 -0.28125
f 71/71/71 72/72/72 73/73/73
f 72/72/72 74/74/74 73/73/73
f 73/73/73 74/74/74 75/75/75
f 74/74/74 76/76/76 75/75/75
f 75/75/75 76/76/76 77/77/77
f 76/76/76 78/78/78 77/77/77
v 0.953125 0.1875 0.71875
v 0.953125 -0.1875 0.71875
v 1.3125 0.21875 0.4375
v 1.3125 -0.21875 0.4375
v 1.375 0 -0.125
v 1.25 -0.5 -0.125
v 1.203125 -0.40625 -0.5
vn 0.6171875 0 0.7871094
vn 0.6171875 0 0.7871094
vn 0.8085938 0.28125 0.515625
vn 0.828125 -0.328125 0.4550781
vn 0.9902344 0 -0.1367188
vn 0.8339844 -0.5507813 -0.046875
vn 0.7070313 -0.4511719 -0.5449219
vt 0.4375 -0.28125
vt 0.4375 -0.28125
vt 0.4375 -0.28125
vt 0.4375 -0.28125
vt 0.4375 -0.28125
vt 0.4375 -0.28125
vt 0.4375 -0.28125
f 79/79/79 80/80/80 81/81/81
f 80/80/80 82/82/82 81/81/81
f 81/81/81 82/82/82 83/83/83
f 82/82/82 84/84/84 83/83/83
f 83/83/83 84/84/84 85/85/85
v 0.5625 -0.71875 -0.15625
v 0.4750977 -0.484375 -0.59375
v 0.53125 -0.53125 -0.65625
v 0.4438477 0 -0.75
v 0.515625 0 -0.84375
v 0.53125 0.53125 -0.65625
vn -0.421875 -0.9023438 -0.09765625
vn -0.6113281 -0.6015625 -0.515625
vn -0.8007813 -0.3417969 -0.4921875
vn -0.6933594 0 -0.7207031
vn -0.7929688 0 -0.609375
vn -0.8007813 0.3417969 -0.4921875
vt 0 -0.203125
vt 0.125 -0.2421875
vt 0.375 -0.1796875
vt 0.375 -0.2421875
vt 0.5 -0.1875
vt 0.375 -0.1796875
f 86/86/86 87/87/87 88/88/88
f 87/87/87 89/89/89 88/88/88
f 88/88/88 89/89/89 90/90/90
f 89/89/89 91/91/91 90/90/90
v 0.4750977 0.484375 -0.59375
v 0.2563477 0.59375 -0.125
v 0.5625 0.71875 -0.15625
v 0.59375 0.703125 0.0625
v 0.8125 0.71875 0.125
v 0.9282227 0.53125 0.34375
vn -0.6113281 0.6015625 -0.515625
vn -0.5546875 0.8300781 -0.07617188
vn -0.421875 0.9023438 -0.09765625
vn -0.1816406 0.9433594 0.2773438
vn -0.2128906 0.8710938 0.4414063
vn 0.1328125 0.71875 0.6816406
vt 0.5 -0.34375
vt 0.328125 -0.453125
vt 0.328125 -0.34375
vt 0.1875 -0.34375
vt 0.140625 -0.2578125
vt 0.015625 -0.2578125
f 92/92/92 93/93/93 94/94/94
f 93/93/93 95/95/95 94/94/94
f 94/94/94 95/95/95 96/96/96
f 95/95/95 97/97/97 96/96/96
v 1.375 0 -0.125
v 1.203125 -0.40625 -0.5
v 1.1875 0 -0.625
v 0.84375 0 -0.84375
v 1.203125 0.40625 -0.5
vn 0.9902344 0 -0.1367188
vn 0.7070313 -0.4511719 -0.5449219
vn 0.7792969 0 -0.6269531
vn 0.28125 0 -0.9589844
vn 0.7070313 0.4511719 -0.5449219
vt 0.4375 -0.28125
vt 0.4375 -0.28125
vt 0.4375 -0.28125
vt 0.4375 -0.28125
vt 0.4375 -0.28125
f 98/98/98 99/99/99 100/100/100
f 99/99/99 101/101/101 100/100/100
f 100/100/100 101/101/101 102/102/102
v 0.9414063 -0.2578125 0.6796875
v 0.9375 -0.1875 0.59375
v 0.90625 -0.46875 0.5625
v 0.9282227 -0.53125 0.34375
v 0.8125 -0.71875 0.125
vn -0.9882813 0.09570313 0.1230469
vn -0.96875 0.109375 -0.2246094
vn -0.9375 0.3339844 -0.09960938
vn -0.8574219 0.4179688 -0.3027344
vn -0.6484375 0.7128906 -0.2675781
vt 0.015625 -0.15625
vt 0.015625 -0.234375
vt 0.125 -0.15625
vt 0.3125 -0.234375
vt 0.484375 -0.203125
f 103/103/103 104/104/104 105/105/105
f 104/104/104 106/106/106 105/105/105
f 105/105/105 106/106/106 107/107/107
v 0.5219727 0.90625 0
v 0.6782227 0.8125 0
v 0.5063477 0.796875 -0.125
v 0.4438477 0.015625 0
v 0.3344727 0.78125 0
vn -0.03515625 0.7539063 -0.65625
vn 0.5488281 0.2734375 -0.7890625
vn -0.01953125 0.3691406 -0.9296875
vn 0.005859375 -0.1582031 -0.9882813
vn -0.5742188 0.3359375 -0.7460938
vt 0.0625 -0.4375
vt 0.0625 -0.4375
vt 0.0625 -0.4375
vt 0.0625 -0.4375
vt 0.0625 -0.4375
f 108/108/108 109/109/109 110/110/110
f 109/109/109 111/111/111 110/110/110
f 110/110/110 111/111/111 112/112/112
v 0.6782227 -0.8125 0
v 0.5219727 -0.90625 0
v 0.5063477 -0.796875 -0.125
v 0.3344727 -0.78125 0
v 0.4438477 -0.015625 0
vn 0.5488281 -0.2734375 -0.7890625
vn -0.03515625 -0.7539063 -0.65625
vn -0.01953125 -0.3691406 -0.9296875
vn -0.5742188 -0.3359375 -0.7460938
vn 0.005859375 0.1582031 -0.9882813
vt 0.03125 -0.4375
vt 0.03125 -0.4375
vt 0.03125 -0.4375
vt 0.03125 -0.4375
vt 0.03125 -0.4375
f 113/113/113 114/114/114 115/115/115
f 114/114/114 116/116/116 115/115/115
f 115/115/115 116/116/116 117/117/117
v 0.6782227 -0.8125 0
v 0.4438477 -0.015625 0
v 0.5219727 -0.90625 0
v 0.3344727 -0.78125 0
vn 0 0 0.9980469
vn 0 0 0.9980469
vn 0 0 0.9980469
vn 0 0 0.9980469
vt 0.03125 -0.4375
vt 0.03125 -0.4375
vt 0.03125 -0.4375
vt 0.03125 -0.4375
f 118/118/118 119/119/119 120/120/120
f 119/119/119 121/121/121 120/120/120
v 0.6782227 0.8125 0
v 0.5219727 0.90625 0
v 0.4438477 0.015625 0
v 0.3344727 0.78125 0
vn 0 0 0.9980469
vn 0 0 0.9980469
vn 0 0 0.9980469
vn 0 0 0.9980469
vt 0.0625 -0.4375
vt 0.0625 -0.4375
vt 0.0625 -0.4375
vt 0.0625 -0.4375
f 122/122/122 123/123/123 124/124/124
f 123/123/123 125/125/125 124/124/124
v 0.953125 -0.1875 0.71875
v 0.953125 0.1875 0.71875
v 0.9375 -0.1875 0.59375
v 0.9375 0.1875 0.59375
vn -0.9921875 0 0.125
vn -0.9921875 0 0.125
vn -0.96875 0.109375 -0.2246094
vn -0.9433594 -0.1328125 -0.3007813
vt 0.015625 -0.15625
vt 0.015625 -0.15625
vt 0.015625 -0.234375
vt 0.015625 -0.234375
f 126/126/126 127/127/127 128/128/128
f 127/127/127 129/129/129 128/128/128
v 0.953125 0.1875 0.71875
v 1.3125 0.21875 0.4375
v 0.9375 0.1875 0.59375
v 0.9414063 0.2578125 0.6796875
vn -0.078125 0.9960938 0.009765625
vn 0.3320313 0.3652344 0.8691406
vn 0.3320313 0.3652344 0.8691406
vn 0.3085938 -0.7421875 0.59375
vt 0 -0.15625
vt 0.5 -0.203125
vt 0 -0.2421875
vt 0 -0.15625
f 130/130/130 131/131/131 132/132/132
f 131/131/131 133/133/133 132/132/132
v 0.4438477 0 -0.75
v 0.4750977 0.484375 -0.59375
v 0.53125 0.53125 -0.65625
v 0.5625 0.71875 -0.15625
vn -0.6933594 0 -0.7207031
vn -0.6113281 0.6015625 -0.515625
vn -0.8007813 0.3417969 -0.4921875
vn -0.421875 0.9023438 -0.09765625
vt 0.375 -0.2421875
vt 0.125 -0.2421875
vt 0.375 -0.1796875
vt 0 -0.203125
f 134/134/134 135/135/135 136/136/136
f 135/135/135 137/137/137 136/136/136
v 0.9282227 0.53125 0.34375
v 1.037598 0 0.5625
v 0.9375 0.1875 0.59375
v 0.9375 -0.1875 0.59375
vn -0.8574219 -0.4179688 -0.3027344
vn -0.6933594 0 -0.7207031
vn -0.9433594 -0.1328125 -0.3007813
vn -0.96875 0.109375 -0.2246094
vt 0.4375 -0.03125
vt 0.4375 -0.03125
vt 0.4375 -0.03125
vt 0.4375 -0.03125
f 138/138/138 139/139/139 140/140/140
f 139/139/139 141/141/141 140/140/140
v 0.859375 -0.46875 -0.65625
v 0.9375 -0.71875 -0.1875
v 0.53125 -0.53125 -0.65625
v 0.5625 -0.71875 -0.15625
vn 0.2773438 -0.625 -0.7304688
vn 0.3085938 -0.9277344 -0.2109375
vn 0.0546875 -0.6777344 -0.734375
vn -0.015625 -0.984375 -0.1777344
vt 0.4375 -0.28125
vt 0.4375 -0.28125
vt 0.4375 -0.28125
vt 0.4375 -0.28125
f 142/142/142 143/143/143 144/144/144
f 143/143/143 145/145/145 144/144/144
v 0.90625 -0.46875 0.5625
v 0.8125 -0.71875 0.125
v 1.125 -0.5625 0.3125
v 0.9375 -0.71875 -0.1875
vn 0.4160156 -0.6503906 0.6347656
vn 0.1816406 -0.9609375 0.2109375
vn 0.5292969 -0.7871094 0.3183594
vn 0.3085938 -0.9277344 -0.2109375
vt 0.4375 -0.28125
vt 0.4375 -0.28125
vt 0.4375 -0.28125
vt 0.4375 -0.28125
f 146/146/146 147/147/147 148/148/148
f 147/147/147 149/149/149 148/148/148
v 0.9414063 -0.2578125 0.6796875
v 1.3125 -0.21875 0.4375
v 0.9375 -0.1875 0.59375
v 0.953125 -0.1875 0.71875
vn 0.3085938 0.7421875 0.59375
vn 0.3320313 -0.3652344 0.8691406
vn 0.3320313 -0.3652344 0.8691406
vn -0.078125 -0.9960938 0.009765625
vt 0 -0.15625
vt 0.5 -0.203125
vt 0 -0.2421875
vt 0 -0.15625
f 150/150/150 151/151/151 152/152/152
f 151/151/151 153/153/153 152/152/152
v 0.9414063 0.2578125 0.6796875
v 0.90625 0.46875 0.5625
v 0.9375 0.1875 0.59375
v 0.9282227 0.53125 0.34375
vn -0.9882813 -0.09570313 0.1230469
vn -0.9375 -0.3339844 -0.09960938
vn -0.9433594 -0.1328125 -0.3007813
vn -0.8574219 -0.4179688 -0.3027344
vt 0.015625 -0.15625
vt 0.125 -0.15625
vt 0.015625 -0.234375
vt 0.3125 -0.234375
f 154/154/154 155/155/155 156/156/156
f 155/155/155 157/157/157 156/156/156
v 1.3125 0.21875 0.4375
v 1.375 0 -0.125
v 1.25 0.5 -0.125
v 1.203125 0.40625 -0.5
vn 0.8085938 0.28125 0.515625
vn 0.9902344 0 -0.1367188
vn 0.8339844 0.5507813 -0.046875
vn 0.7070313 0.4511719 -0.5449219
vt 0.4375 -0.28125
vt 0.4375 -0.28125
vt 0.4375 -0.28125
vt 0.4375 -0.28125
f 158/158/158 159/159/159 160/160/160
f 159/159/159 161/161/161 160/160/160
v 0.9282227 0.53125 0.34375
v 0.59375 0.703125 0.0625
v 0.4438477 0.625 0.375
v 0.2563477 0.59375 -0.125
vn 0.1328125 0.71875 0.6816406
vn -0.1816406 0.9433594 0.2773438
vn -0.2128906 0.8710938 0.4414063
vn -0.5546875 0.8300781 -0.07617188
vt 0.015625 -0.2578125
vt 0.1875 -0.34375
vt 0.015625 -0.4375
vt 0.328125 -0.453125
f 162/162/162 163/163/163 164/164/164
f 163/163/163 165/165/165 164/164/164
v 0.9282227 -0.53125 0.34375
v 0.4438477 -0.625 0.375
v 0.59375 -0.703125 0.0625
v 0.2563477 -0.59375 -0.125
vn 0.1328125 -0.71875 0.6816406
vn -0.2128906 -0.8710938 0.4414063
vn -0.1816406 -0.9433594 0.2773438
vn -0.5546875 -0.8300781 -0.07617188
vt 0.015625 -0.2578125
vt 0.015625 -0.4375
vt 0.1875 -0.34375
vt 0.328125 -0.453125
f 166/166/166 167/167/167 168/168/168
f 167/167/167 169/169/169 168/168/168
v 0.3344727 0.78125 0
v 0.5219727 0.90625 0
v 0.5063477 0.796875 -0.125
v 1.203125 0.40625 -0.5
v 1.375 0 -0.125
v 1.1875 0 -0.625
v 0.5063477 -0.796875 -0.125
v 0.4438477 -0.015625 0
v 0.6782227 -0.8125 0
v 0.8125 -0.71875 0.125
v 0.5625 -0.71875 -0.15625
v 0.9375 -0.71875 -0.1875
v 0.9282227 0.53125 0.34375
v 0.90625 0.46875 0.5625
v 0.8125 0.71875 0.125
v 1.037598 0 0.5625
v 0.9282227 -0.53125 0.34375
v 0.9375 -0.1875 0.59375
v 0.859375 0.46875 -0.65625
v 0.53125 0.53125 -0.65625
v 0.9375 0.71875 -0.1875
vn -0.5742188 0.3359375 -0.7460938
vn -0.03515625 0.7539063 -0.65625
vn -0.01953125 0.3691406 -0.9296875
vn 0.7070313 0.4511719 -0.5449219
vn 0.9902344 0 -0.1367188
vn 0.7792969 0 -0.6269531
vn -0.01953125 -0.3691406 -0.9296875
vn 0.005859375 0.1582031 -0.9882813
vn 0.5488281 -0.2734375 -0.7890625
vn 0.1816406 -0.9609375 0.2109375
vn -0.015625 -0.984375 -0.1777344
vn 0.3085938 -0.9277344 -0.2109375
vn -0.8574219 -0.4179688 -0.3027344
vn -0.9375 -0.3339844 -0.09960938
vn -0.6484375 -0.7128906 -0.2675781
vn -0.6933594 0 -0.7207031
vn -0.8574219 0.4179688 -0.3027344
vn -0.96875 0.109375 -0.2246094
vn 0.2773438 0.625 -0.7304688
vn 0.0546875 0.6777344 -0.734375
vn 0.3085938 0.9277344 -0.2109375
vt 0.0625 -0.4375
vt 0.0625 -0.4375
vt 0.0625 -0.4375
vt 0.4375 -0.28125
vt 0.4375 -0.28125
vt 0.4375 -0.28125
vt 0.03125 -0.4375
vt 0.03125 -0.4375
vt 0.03125 -0.4375
vt 0.4375 -0.28125
vt 0.4375 -0.28125
vt 0.4375 -0.28125
vt 0.3125 -0.234375
vt 0.125 -0.15625
vt 0.484375 -0.203125
vt 0.4375 -0.03125
vt 0.4375 -0.03125
vt 0.4375 -0.03125
vt 0.4375 -0.28125
vt 0.4375 -0.28125
vt 0.4375 -0.28125
f 170/170/170 171/171/171 172/172/172
f 173/173/173 174/174/174 175/175/175
f 176/176/176 177/177/177 178/178/178
f 179/179/179 180/180/180 181/181/181
f 182/182/182 183/183/183 184/184/184
f 185/185/185 186/186/186 187/187/187
f 188/188/188 189/189/189 190/190/190
